<mxfile host="Electron" modified="2023-05-21T19:56:37.952Z" agent="Mozilla/5.0 (Windows NT 10.0; Win64; x64) AppleWebKit/537.36 (KHTML, like Gecko) draw.io/21.2.8 Chrome/112.0.5615.165 Electron/24.2.0 Safari/537.36" etag="D8rGaweD2SjHIwq-22ch" version="21.2.8" type="device">
  <diagram name="Pagina-1" id="RgT5V78wegxijUSIYcRX">
    <mxGraphModel dx="1350" dy="789" grid="1" gridSize="10" guides="1" tooltips="1" connect="1" arrows="1" fold="1" page="1" pageScale="1" pageWidth="1000" pageHeight="650" math="0" shadow="0">
      <root>
        <mxCell id="0" />
        <mxCell id="1" parent="0" />
        <mxCell id="3aJ_x7FP6PWGD6nfpYZ6-341" value="" style="rounded=0;whiteSpace=wrap;html=1;" parent="1" vertex="1">
          <mxGeometry x="523.5" y="142.9" width="433.5" height="380" as="geometry" />
        </mxCell>
        <mxCell id="3aJ_x7FP6PWGD6nfpYZ6-340" value="" style="rounded=0;whiteSpace=wrap;html=1;" parent="1" vertex="1">
          <mxGeometry x="40" y="30" width="433.5" height="570" as="geometry" />
        </mxCell>
        <mxCell id="3aJ_x7FP6PWGD6nfpYZ6-199" value="" style="rounded=0;whiteSpace=wrap;html=1;fillColor=#EDF5FF;" parent="1" vertex="1">
          <mxGeometry x="57.5" y="80" width="390" height="370" as="geometry" />
        </mxCell>
        <mxCell id="3aJ_x7FP6PWGD6nfpYZ6-200" value="" style="edgeStyle=orthogonalEdgeStyle;rounded=0;orthogonalLoop=1;jettySize=auto;html=1;" parent="1" source="3aJ_x7FP6PWGD6nfpYZ6-1" target="3aJ_x7FP6PWGD6nfpYZ6-72" edge="1">
          <mxGeometry relative="1" as="geometry" />
        </mxCell>
        <mxCell id="3aJ_x7FP6PWGD6nfpYZ6-1" value="" style="rounded=1;whiteSpace=wrap;html=1;absoluteArcSize=1;arcSize=14;strokeWidth=2;fillColor=#dae8fc;strokeColor=none;" parent="1" vertex="1">
          <mxGeometry x="72.5" y="110" width="105" height="180" as="geometry" />
        </mxCell>
        <mxCell id="3aJ_x7FP6PWGD6nfpYZ6-2" value="" style="ellipse;whiteSpace=wrap;html=1;fillColor=#1ba1e2;strokeColor=#006EAF;fontColor=#ffffff;" parent="1" vertex="1">
          <mxGeometry x="87.5" y="140" width="10" height="10" as="geometry" />
        </mxCell>
        <mxCell id="3aJ_x7FP6PWGD6nfpYZ6-3" value="" style="ellipse;whiteSpace=wrap;html=1;fillColor=#1ba1e2;strokeColor=#006EAF;fontColor=#ffffff;" parent="1" vertex="1">
          <mxGeometry x="87.5" y="160" width="10" height="10" as="geometry" />
        </mxCell>
        <mxCell id="3aJ_x7FP6PWGD6nfpYZ6-4" value="" style="ellipse;whiteSpace=wrap;html=1;fillColor=#1ba1e2;strokeColor=#006EAF;fontColor=#ffffff;" parent="1" vertex="1">
          <mxGeometry x="87.5" y="180" width="10" height="10" as="geometry" />
        </mxCell>
        <mxCell id="3aJ_x7FP6PWGD6nfpYZ6-5" value="" style="ellipse;whiteSpace=wrap;html=1;fillColor=#1ba1e2;strokeColor=#006EAF;fontColor=#ffffff;" parent="1" vertex="1">
          <mxGeometry x="87.5" y="200" width="10" height="10" as="geometry" />
        </mxCell>
        <mxCell id="3aJ_x7FP6PWGD6nfpYZ6-6" value="" style="ellipse;whiteSpace=wrap;html=1;fillColor=#1ba1e2;strokeColor=#006EAF;fontColor=#ffffff;" parent="1" vertex="1">
          <mxGeometry x="87.5" y="220" width="10" height="10" as="geometry" />
        </mxCell>
        <mxCell id="3aJ_x7FP6PWGD6nfpYZ6-13" value="" style="ellipse;whiteSpace=wrap;html=1;" parent="1" vertex="1">
          <mxGeometry x="120" y="240" width="10" height="10" as="geometry" />
        </mxCell>
        <mxCell id="3aJ_x7FP6PWGD6nfpYZ6-14" value="" style="ellipse;whiteSpace=wrap;html=1;" parent="1" vertex="1">
          <mxGeometry x="157.5" y="140" width="10" height="10" as="geometry" />
        </mxCell>
        <mxCell id="3aJ_x7FP6PWGD6nfpYZ6-15" value="" style="ellipse;whiteSpace=wrap;html=1;" parent="1" vertex="1">
          <mxGeometry x="157.5" y="160" width="10" height="10" as="geometry" />
        </mxCell>
        <mxCell id="3aJ_x7FP6PWGD6nfpYZ6-16" value="" style="ellipse;whiteSpace=wrap;html=1;" parent="1" vertex="1">
          <mxGeometry x="157.5" y="180" width="10" height="10" as="geometry" />
        </mxCell>
        <mxCell id="3aJ_x7FP6PWGD6nfpYZ6-17" value="" style="ellipse;whiteSpace=wrap;html=1;" parent="1" vertex="1">
          <mxGeometry x="157.5" y="200" width="10" height="10" as="geometry" />
        </mxCell>
        <mxCell id="3aJ_x7FP6PWGD6nfpYZ6-18" value="" style="ellipse;whiteSpace=wrap;html=1;" parent="1" vertex="1">
          <mxGeometry x="157.5" y="220" width="10" height="10" as="geometry" />
        </mxCell>
        <mxCell id="3aJ_x7FP6PWGD6nfpYZ6-23" value="" style="ellipse;whiteSpace=wrap;html=1;" parent="1" vertex="1">
          <mxGeometry x="120" y="120" width="10" height="10" as="geometry" />
        </mxCell>
        <mxCell id="3aJ_x7FP6PWGD6nfpYZ6-24" value="" style="ellipse;whiteSpace=wrap;html=1;" parent="1" vertex="1">
          <mxGeometry x="120" y="140" width="10" height="10" as="geometry" />
        </mxCell>
        <mxCell id="3aJ_x7FP6PWGD6nfpYZ6-25" value="" style="ellipse;whiteSpace=wrap;html=1;" parent="1" vertex="1">
          <mxGeometry x="120" y="160" width="10" height="10" as="geometry" />
        </mxCell>
        <mxCell id="3aJ_x7FP6PWGD6nfpYZ6-26" value="" style="ellipse;whiteSpace=wrap;html=1;" parent="1" vertex="1">
          <mxGeometry x="120" y="180" width="10" height="10" as="geometry" />
        </mxCell>
        <mxCell id="3aJ_x7FP6PWGD6nfpYZ6-27" value="" style="ellipse;whiteSpace=wrap;html=1;" parent="1" vertex="1">
          <mxGeometry x="120" y="200" width="10" height="10" as="geometry" />
        </mxCell>
        <mxCell id="3aJ_x7FP6PWGD6nfpYZ6-28" value="" style="ellipse;whiteSpace=wrap;html=1;" parent="1" vertex="1">
          <mxGeometry x="120" y="220" width="10" height="10" as="geometry" />
        </mxCell>
        <mxCell id="3aJ_x7FP6PWGD6nfpYZ6-33" value="" style="endArrow=none;html=1;rounded=0;exitX=1;exitY=0;exitDx=0;exitDy=0;entryX=0;entryY=0.5;entryDx=0;entryDy=0;" parent="1" source="3aJ_x7FP6PWGD6nfpYZ6-2" target="3aJ_x7FP6PWGD6nfpYZ6-23" edge="1">
          <mxGeometry width="50" height="50" relative="1" as="geometry">
            <mxPoint x="97.5" y="140" as="sourcePoint" />
            <mxPoint x="117.5" y="130" as="targetPoint" />
          </mxGeometry>
        </mxCell>
        <mxCell id="3aJ_x7FP6PWGD6nfpYZ6-34" value="" style="endArrow=none;html=1;rounded=0;exitX=1;exitY=0;exitDx=0;exitDy=0;entryX=0;entryY=1;entryDx=0;entryDy=0;" parent="1" source="3aJ_x7FP6PWGD6nfpYZ6-3" target="3aJ_x7FP6PWGD6nfpYZ6-24" edge="1">
          <mxGeometry width="50" height="50" relative="1" as="geometry">
            <mxPoint x="106.5" y="151" as="sourcePoint" />
            <mxPoint x="117.5" y="150" as="targetPoint" />
          </mxGeometry>
        </mxCell>
        <mxCell id="3aJ_x7FP6PWGD6nfpYZ6-35" value="" style="endArrow=none;html=1;rounded=0;entryX=0;entryY=0.5;entryDx=0;entryDy=0;exitX=1;exitY=0.5;exitDx=0;exitDy=0;" parent="1" source="3aJ_x7FP6PWGD6nfpYZ6-4" target="3aJ_x7FP6PWGD6nfpYZ6-25" edge="1">
          <mxGeometry width="50" height="50" relative="1" as="geometry">
            <mxPoint x="97.5" y="180" as="sourcePoint" />
            <mxPoint x="117.5" y="170" as="targetPoint" />
          </mxGeometry>
        </mxCell>
        <mxCell id="3aJ_x7FP6PWGD6nfpYZ6-36" value="" style="endArrow=none;html=1;rounded=0;entryX=0;entryY=0.5;entryDx=0;entryDy=0;exitX=1;exitY=0.5;exitDx=0;exitDy=0;" parent="1" source="3aJ_x7FP6PWGD6nfpYZ6-5" target="3aJ_x7FP6PWGD6nfpYZ6-27" edge="1">
          <mxGeometry width="50" height="50" relative="1" as="geometry">
            <mxPoint x="107.5" y="195" as="sourcePoint" />
            <mxPoint x="130.5" y="175" as="targetPoint" />
          </mxGeometry>
        </mxCell>
        <mxCell id="3aJ_x7FP6PWGD6nfpYZ6-37" value="" style="endArrow=none;html=1;rounded=0;entryX=0;entryY=0.5;entryDx=0;entryDy=0;exitX=1;exitY=0.5;exitDx=0;exitDy=0;" parent="1" source="3aJ_x7FP6PWGD6nfpYZ6-6" target="3aJ_x7FP6PWGD6nfpYZ6-28" edge="1">
          <mxGeometry width="50" height="50" relative="1" as="geometry">
            <mxPoint x="117.5" y="205" as="sourcePoint" />
            <mxPoint x="140.5" y="185" as="targetPoint" />
          </mxGeometry>
        </mxCell>
        <mxCell id="3aJ_x7FP6PWGD6nfpYZ6-38" value="" style="endArrow=none;html=1;rounded=0;entryX=0;entryY=0.5;entryDx=0;entryDy=0;exitX=1;exitY=1;exitDx=0;exitDy=0;" parent="1" source="3aJ_x7FP6PWGD6nfpYZ6-6" target="3aJ_x7FP6PWGD6nfpYZ6-13" edge="1">
          <mxGeometry width="50" height="50" relative="1" as="geometry">
            <mxPoint x="127.5" y="215" as="sourcePoint" />
            <mxPoint x="150.5" y="195" as="targetPoint" />
          </mxGeometry>
        </mxCell>
        <mxCell id="3aJ_x7FP6PWGD6nfpYZ6-39" value="" style="endArrow=none;html=1;rounded=0;entryX=0;entryY=0.5;entryDx=0;entryDy=0;exitX=1;exitY=0.5;exitDx=0;exitDy=0;" parent="1" source="3aJ_x7FP6PWGD6nfpYZ6-4" target="3aJ_x7FP6PWGD6nfpYZ6-26" edge="1">
          <mxGeometry width="50" height="50" relative="1" as="geometry">
            <mxPoint x="107.5" y="195" as="sourcePoint" />
            <mxPoint x="130.5" y="175" as="targetPoint" />
          </mxGeometry>
        </mxCell>
        <mxCell id="3aJ_x7FP6PWGD6nfpYZ6-40" value="" style="endArrow=none;html=1;rounded=0;exitX=1;exitY=0.5;exitDx=0;exitDy=0;entryX=0;entryY=0;entryDx=0;entryDy=0;" parent="1" source="3aJ_x7FP6PWGD6nfpYZ6-23" target="3aJ_x7FP6PWGD6nfpYZ6-15" edge="1">
          <mxGeometry width="50" height="50" relative="1" as="geometry">
            <mxPoint x="106.5" y="151" as="sourcePoint" />
            <mxPoint x="130.5" y="135" as="targetPoint" />
          </mxGeometry>
        </mxCell>
        <mxCell id="3aJ_x7FP6PWGD6nfpYZ6-41" value="" style="endArrow=none;html=1;rounded=0;exitX=1;exitY=0.5;exitDx=0;exitDy=0;entryX=0;entryY=0.5;entryDx=0;entryDy=0;" parent="1" source="3aJ_x7FP6PWGD6nfpYZ6-24" target="3aJ_x7FP6PWGD6nfpYZ6-14" edge="1">
          <mxGeometry width="50" height="50" relative="1" as="geometry">
            <mxPoint x="140.5" y="135" as="sourcePoint" />
            <mxPoint x="168.5" y="171" as="targetPoint" />
          </mxGeometry>
        </mxCell>
        <mxCell id="3aJ_x7FP6PWGD6nfpYZ6-42" value="" style="endArrow=none;html=1;rounded=0;exitX=1;exitY=0.5;exitDx=0;exitDy=0;entryX=0;entryY=0.5;entryDx=0;entryDy=0;" parent="1" edge="1">
          <mxGeometry width="50" height="50" relative="1" as="geometry">
            <mxPoint x="130" y="164.8" as="sourcePoint" />
            <mxPoint x="157" y="164.8" as="targetPoint" />
          </mxGeometry>
        </mxCell>
        <mxCell id="3aJ_x7FP6PWGD6nfpYZ6-43" value="" style="endArrow=none;html=1;rounded=0;exitX=1;exitY=0.5;exitDx=0;exitDy=0;entryX=0;entryY=0.5;entryDx=0;entryDy=0;" parent="1" edge="1">
          <mxGeometry width="50" height="50" relative="1" as="geometry">
            <mxPoint x="130" y="224.8" as="sourcePoint" />
            <mxPoint x="157" y="224.8" as="targetPoint" />
          </mxGeometry>
        </mxCell>
        <mxCell id="3aJ_x7FP6PWGD6nfpYZ6-44" value="" style="endArrow=none;html=1;rounded=0;exitX=1;exitY=0.5;exitDx=0;exitDy=0;entryX=0;entryY=1;entryDx=0;entryDy=0;" parent="1" source="3aJ_x7FP6PWGD6nfpYZ6-13" target="3aJ_x7FP6PWGD6nfpYZ6-17" edge="1">
          <mxGeometry width="50" height="50" relative="1" as="geometry">
            <mxPoint x="140" y="234.8" as="sourcePoint" />
            <mxPoint x="167" y="234.8" as="targetPoint" />
          </mxGeometry>
        </mxCell>
        <mxCell id="3aJ_x7FP6PWGD6nfpYZ6-45" value="" style="endArrow=none;html=1;rounded=0;entryX=0;entryY=0;entryDx=0;entryDy=0;exitX=1;exitY=0.5;exitDx=0;exitDy=0;" parent="1" source="3aJ_x7FP6PWGD6nfpYZ6-25" target="3aJ_x7FP6PWGD6nfpYZ6-16" edge="1">
          <mxGeometry width="50" height="50" relative="1" as="geometry">
            <mxPoint x="125.5" y="170" as="sourcePoint" />
            <mxPoint x="168.5" y="171" as="targetPoint" />
          </mxGeometry>
        </mxCell>
        <mxCell id="3aJ_x7FP6PWGD6nfpYZ6-46" value="" style="endArrow=none;html=1;rounded=0;entryX=0;entryY=0.5;entryDx=0;entryDy=0;exitX=1;exitY=0.5;exitDx=0;exitDy=0;" parent="1" source="3aJ_x7FP6PWGD6nfpYZ6-27" target="3aJ_x7FP6PWGD6nfpYZ6-17" edge="1">
          <mxGeometry width="50" height="50" relative="1" as="geometry">
            <mxPoint x="140.5" y="175" as="sourcePoint" />
            <mxPoint x="168.5" y="191" as="targetPoint" />
          </mxGeometry>
        </mxCell>
        <mxCell id="3aJ_x7FP6PWGD6nfpYZ6-47" value="" style="endArrow=none;html=1;rounded=0;entryX=0;entryY=0.5;entryDx=0;entryDy=0;exitX=1;exitY=0.5;exitDx=0;exitDy=0;" parent="1" edge="1">
          <mxGeometry width="50" height="50" relative="1" as="geometry">
            <mxPoint x="130.5" y="184.8" as="sourcePoint" />
            <mxPoint x="157.5" y="184.8" as="targetPoint" />
          </mxGeometry>
        </mxCell>
        <mxCell id="3aJ_x7FP6PWGD6nfpYZ6-51" value="" style="endArrow=none;html=1;rounded=0;exitX=1;exitY=0.5;exitDx=0;exitDy=0;entryX=0;entryY=0.5;entryDx=0;entryDy=0;" parent="1" source="3aJ_x7FP6PWGD6nfpYZ6-23" target="3aJ_x7FP6PWGD6nfpYZ6-14" edge="1">
          <mxGeometry width="50" height="50" relative="1" as="geometry">
            <mxPoint x="137.5" y="130" as="sourcePoint" />
            <mxPoint x="157.5" y="140" as="targetPoint" />
          </mxGeometry>
        </mxCell>
        <mxCell id="3aJ_x7FP6PWGD6nfpYZ6-52" value="" style="endArrow=none;html=1;rounded=0;entryX=0;entryY=1;entryDx=0;entryDy=0;exitX=1;exitY=0.5;exitDx=0;exitDy=0;" parent="1" source="3aJ_x7FP6PWGD6nfpYZ6-27" target="3aJ_x7FP6PWGD6nfpYZ6-16" edge="1">
          <mxGeometry width="50" height="50" relative="1" as="geometry">
            <mxPoint x="140.5" y="215" as="sourcePoint" />
            <mxPoint x="167.5" y="215" as="targetPoint" />
          </mxGeometry>
        </mxCell>
        <mxCell id="3aJ_x7FP6PWGD6nfpYZ6-53" value="Epoch 0" style="text;html=1;align=center;verticalAlign=middle;resizable=0;points=[];autosize=1;strokeColor=none;fillColor=none;" parent="1" vertex="1">
          <mxGeometry x="90" y="260" width="70" height="30" as="geometry" />
        </mxCell>
        <mxCell id="3aJ_x7FP6PWGD6nfpYZ6-201" value="" style="edgeStyle=orthogonalEdgeStyle;rounded=0;orthogonalLoop=1;jettySize=auto;html=1;" parent="1" source="3aJ_x7FP6PWGD6nfpYZ6-55" target="3aJ_x7FP6PWGD6nfpYZ6-183" edge="1">
          <mxGeometry relative="1" as="geometry" />
        </mxCell>
        <mxCell id="3aJ_x7FP6PWGD6nfpYZ6-55" value="" style="rounded=1;whiteSpace=wrap;html=1;absoluteArcSize=1;arcSize=14;strokeWidth=2;fillColor=#dae8fc;strokeColor=none;" parent="1" vertex="1">
          <mxGeometry x="197.5" y="110" width="110" height="180" as="geometry" />
        </mxCell>
        <mxCell id="3aJ_x7FP6PWGD6nfpYZ6-56" value="" style="ellipse;whiteSpace=wrap;html=1;fillColor=#1ba1e2;strokeColor=#006EAF;fontColor=#ffffff;" parent="1" vertex="1">
          <mxGeometry x="212.5" y="140" width="10" height="10" as="geometry" />
        </mxCell>
        <mxCell id="3aJ_x7FP6PWGD6nfpYZ6-57" value="" style="ellipse;whiteSpace=wrap;html=1;fillColor=#1ba1e2;strokeColor=#006EAF;fontColor=#ffffff;" parent="1" vertex="1">
          <mxGeometry x="212.5" y="160" width="10" height="10" as="geometry" />
        </mxCell>
        <object label="" id="3aJ_x7FP6PWGD6nfpYZ6-58">
          <mxCell style="ellipse;whiteSpace=wrap;html=1;fillColor=#0030EF;strokeColor=#001DBC;fontColor=#ffffff;rotation=0;" parent="1" vertex="1">
            <mxGeometry x="207.5" y="180" width="15" height="15" as="geometry" />
          </mxCell>
        </object>
        <mxCell id="3aJ_x7FP6PWGD6nfpYZ6-59" value="" style="ellipse;whiteSpace=wrap;html=1;" parent="1" vertex="1">
          <mxGeometry x="212.5" y="200" width="10" height="10" as="geometry" />
        </mxCell>
        <object label="" id="3aJ_x7FP6PWGD6nfpYZ6-60">
          <mxCell style="ellipse;whiteSpace=wrap;html=1;fillColor=#005AE2;strokeColor=#0600AF;fontColor=#ffffff;rotation=0;" parent="1" vertex="1">
            <mxGeometry x="208.75" y="218.75" width="12.5" height="12.5" as="geometry" />
          </mxCell>
        </object>
        <mxCell id="3aJ_x7FP6PWGD6nfpYZ6-61" value="" style="ellipse;whiteSpace=wrap;html=1;" parent="1" vertex="1">
          <mxGeometry x="245" y="240" width="10" height="10" as="geometry" />
        </mxCell>
        <mxCell id="3aJ_x7FP6PWGD6nfpYZ6-62" value="" style="ellipse;whiteSpace=wrap;html=1;" parent="1" vertex="1">
          <mxGeometry x="282.5" y="140" width="10" height="10" as="geometry" />
        </mxCell>
        <mxCell id="3aJ_x7FP6PWGD6nfpYZ6-63" value="" style="ellipse;whiteSpace=wrap;html=1;" parent="1" vertex="1">
          <mxGeometry x="282.5" y="160" width="10" height="10" as="geometry" />
        </mxCell>
        <mxCell id="3aJ_x7FP6PWGD6nfpYZ6-64" value="" style="ellipse;whiteSpace=wrap;html=1;" parent="1" vertex="1">
          <mxGeometry x="282.5" y="180" width="10" height="10" as="geometry" />
        </mxCell>
        <mxCell id="3aJ_x7FP6PWGD6nfpYZ6-65" value="" style="ellipse;whiteSpace=wrap;html=1;" parent="1" vertex="1">
          <mxGeometry x="282.5" y="200" width="10" height="10" as="geometry" />
        </mxCell>
        <mxCell id="3aJ_x7FP6PWGD6nfpYZ6-66" value="" style="ellipse;whiteSpace=wrap;html=1;" parent="1" vertex="1">
          <mxGeometry x="282.5" y="220" width="10" height="10" as="geometry" />
        </mxCell>
        <mxCell id="3aJ_x7FP6PWGD6nfpYZ6-67" value="" style="ellipse;whiteSpace=wrap;html=1;" parent="1" vertex="1">
          <mxGeometry x="245" y="120" width="10" height="10" as="geometry" />
        </mxCell>
        <mxCell id="3aJ_x7FP6PWGD6nfpYZ6-68" value="" style="ellipse;whiteSpace=wrap;html=1;" parent="1" vertex="1">
          <mxGeometry x="245" y="140" width="10" height="10" as="geometry" />
        </mxCell>
        <mxCell id="3aJ_x7FP6PWGD6nfpYZ6-69" value="" style="ellipse;whiteSpace=wrap;html=1;" parent="1" vertex="1">
          <mxGeometry x="245" y="160" width="10" height="10" as="geometry" />
        </mxCell>
        <mxCell id="3aJ_x7FP6PWGD6nfpYZ6-70" value="" style="ellipse;whiteSpace=wrap;html=1;" parent="1" vertex="1">
          <mxGeometry x="245" y="180" width="10" height="10" as="geometry" />
        </mxCell>
        <mxCell id="3aJ_x7FP6PWGD6nfpYZ6-71" value="" style="ellipse;whiteSpace=wrap;html=1;" parent="1" vertex="1">
          <mxGeometry x="245" y="200" width="10" height="10" as="geometry" />
        </mxCell>
        <mxCell id="3aJ_x7FP6PWGD6nfpYZ6-72" value="" style="ellipse;whiteSpace=wrap;html=1;" parent="1" vertex="1">
          <mxGeometry x="245" y="220" width="10" height="10" as="geometry" />
        </mxCell>
        <mxCell id="3aJ_x7FP6PWGD6nfpYZ6-73" value="" style="endArrow=none;html=1;rounded=0;exitX=1;exitY=0.5;exitDx=0;exitDy=0;entryX=0;entryY=0.5;entryDx=0;entryDy=0;" parent="1" source="3aJ_x7FP6PWGD6nfpYZ6-56" target="3aJ_x7FP6PWGD6nfpYZ6-68" edge="1">
          <mxGeometry width="50" height="50" relative="1" as="geometry">
            <mxPoint x="222.5" y="140" as="sourcePoint" />
            <mxPoint x="242.5" y="130" as="targetPoint" />
          </mxGeometry>
        </mxCell>
        <mxCell id="3aJ_x7FP6PWGD6nfpYZ6-74" value="" style="endArrow=none;html=1;rounded=0;exitX=1;exitY=0;exitDx=0;exitDy=0;entryX=0;entryY=1;entryDx=0;entryDy=0;" parent="1" source="3aJ_x7FP6PWGD6nfpYZ6-57" target="3aJ_x7FP6PWGD6nfpYZ6-67" edge="1">
          <mxGeometry width="50" height="50" relative="1" as="geometry">
            <mxPoint x="231.5" y="151" as="sourcePoint" />
            <mxPoint x="242.5" y="150" as="targetPoint" />
          </mxGeometry>
        </mxCell>
        <mxCell id="3aJ_x7FP6PWGD6nfpYZ6-75" value="" style="endArrow=none;html=1;rounded=0;entryX=0;entryY=0.5;entryDx=0;entryDy=0;exitX=1;exitY=0.5;exitDx=0;exitDy=0;" parent="1" source="3aJ_x7FP6PWGD6nfpYZ6-58" target="3aJ_x7FP6PWGD6nfpYZ6-69" edge="1">
          <mxGeometry width="50" height="50" relative="1" as="geometry">
            <mxPoint x="222.5" y="180" as="sourcePoint" />
            <mxPoint x="242.5" y="170" as="targetPoint" />
          </mxGeometry>
        </mxCell>
        <mxCell id="3aJ_x7FP6PWGD6nfpYZ6-77" value="" style="endArrow=none;html=1;rounded=0;entryX=0;entryY=0.5;entryDx=0;entryDy=0;exitX=1;exitY=0.5;exitDx=0;exitDy=0;" parent="1" source="3aJ_x7FP6PWGD6nfpYZ6-60" target="3aJ_x7FP6PWGD6nfpYZ6-72" edge="1">
          <mxGeometry width="50" height="50" relative="1" as="geometry">
            <mxPoint x="242.5" y="205" as="sourcePoint" />
            <mxPoint x="265.5" y="185" as="targetPoint" />
          </mxGeometry>
        </mxCell>
        <mxCell id="3aJ_x7FP6PWGD6nfpYZ6-78" value="" style="endArrow=none;html=1;rounded=0;entryX=0;entryY=0.5;entryDx=0;entryDy=0;exitX=1;exitY=1;exitDx=0;exitDy=0;" parent="1" source="3aJ_x7FP6PWGD6nfpYZ6-60" target="3aJ_x7FP6PWGD6nfpYZ6-61" edge="1">
          <mxGeometry width="50" height="50" relative="1" as="geometry">
            <mxPoint x="252.5" y="215" as="sourcePoint" />
            <mxPoint x="275.5" y="195" as="targetPoint" />
          </mxGeometry>
        </mxCell>
        <mxCell id="3aJ_x7FP6PWGD6nfpYZ6-79" value="" style="endArrow=none;html=1;rounded=0;entryX=0;entryY=0.5;entryDx=0;entryDy=0;exitX=1;exitY=0.5;exitDx=0;exitDy=0;" parent="1" source="3aJ_x7FP6PWGD6nfpYZ6-58" target="3aJ_x7FP6PWGD6nfpYZ6-70" edge="1">
          <mxGeometry width="50" height="50" relative="1" as="geometry">
            <mxPoint x="232.5" y="195" as="sourcePoint" />
            <mxPoint x="255.5" y="175" as="targetPoint" />
          </mxGeometry>
        </mxCell>
        <mxCell id="3aJ_x7FP6PWGD6nfpYZ6-80" value="" style="endArrow=none;html=1;rounded=0;exitX=1;exitY=0.5;exitDx=0;exitDy=0;entryX=0;entryY=0;entryDx=0;entryDy=0;" parent="1" source="3aJ_x7FP6PWGD6nfpYZ6-67" target="3aJ_x7FP6PWGD6nfpYZ6-63" edge="1">
          <mxGeometry width="50" height="50" relative="1" as="geometry">
            <mxPoint x="231.5" y="151" as="sourcePoint" />
            <mxPoint x="255.5" y="135" as="targetPoint" />
          </mxGeometry>
        </mxCell>
        <mxCell id="3aJ_x7FP6PWGD6nfpYZ6-81" value="" style="endArrow=none;html=1;rounded=0;exitX=1;exitY=0.5;exitDx=0;exitDy=0;entryX=0;entryY=0.5;entryDx=0;entryDy=0;" parent="1" source="3aJ_x7FP6PWGD6nfpYZ6-68" target="3aJ_x7FP6PWGD6nfpYZ6-63" edge="1">
          <mxGeometry width="50" height="50" relative="1" as="geometry">
            <mxPoint x="265.5" y="135" as="sourcePoint" />
            <mxPoint x="293.5" y="171" as="targetPoint" />
          </mxGeometry>
        </mxCell>
        <mxCell id="3aJ_x7FP6PWGD6nfpYZ6-82" value="" style="endArrow=none;html=1;rounded=0;exitX=1;exitY=0.5;exitDx=0;exitDy=0;entryX=0;entryY=0.5;entryDx=0;entryDy=0;" parent="1" edge="1">
          <mxGeometry width="50" height="50" relative="1" as="geometry">
            <mxPoint x="255" y="164.8" as="sourcePoint" />
            <mxPoint x="282" y="164.8" as="targetPoint" />
          </mxGeometry>
        </mxCell>
        <mxCell id="3aJ_x7FP6PWGD6nfpYZ6-83" value="" style="endArrow=none;html=1;rounded=0;exitX=1;exitY=0.5;exitDx=0;exitDy=0;entryX=0;entryY=0.5;entryDx=0;entryDy=0;" parent="1" source="3aJ_x7FP6PWGD6nfpYZ6-72" target="3aJ_x7FP6PWGD6nfpYZ6-65" edge="1">
          <mxGeometry width="50" height="50" relative="1" as="geometry">
            <mxPoint x="257.5" y="210" as="sourcePoint" />
            <mxPoint x="282.5" y="210" as="targetPoint" />
          </mxGeometry>
        </mxCell>
        <mxCell id="3aJ_x7FP6PWGD6nfpYZ6-84" value="" style="endArrow=none;html=1;rounded=0;exitX=1;exitY=0.5;exitDx=0;exitDy=0;entryX=0;entryY=1;entryDx=0;entryDy=0;" parent="1" source="3aJ_x7FP6PWGD6nfpYZ6-61" target="3aJ_x7FP6PWGD6nfpYZ6-64" edge="1">
          <mxGeometry width="50" height="50" relative="1" as="geometry">
            <mxPoint x="265" y="234.8" as="sourcePoint" />
            <mxPoint x="292" y="234.8" as="targetPoint" />
          </mxGeometry>
        </mxCell>
        <mxCell id="3aJ_x7FP6PWGD6nfpYZ6-85" value="" style="endArrow=none;html=1;rounded=0;entryX=0;entryY=0;entryDx=0;entryDy=0;exitX=1;exitY=0.5;exitDx=0;exitDy=0;" parent="1" source="3aJ_x7FP6PWGD6nfpYZ6-69" target="3aJ_x7FP6PWGD6nfpYZ6-64" edge="1">
          <mxGeometry width="50" height="50" relative="1" as="geometry">
            <mxPoint x="250.5" y="170" as="sourcePoint" />
            <mxPoint x="293.5" y="171" as="targetPoint" />
          </mxGeometry>
        </mxCell>
        <mxCell id="3aJ_x7FP6PWGD6nfpYZ6-86" value="" style="endArrow=none;html=1;rounded=0;entryX=0;entryY=0.5;entryDx=0;entryDy=0;exitX=1;exitY=0.5;exitDx=0;exitDy=0;" parent="1" source="3aJ_x7FP6PWGD6nfpYZ6-71" target="3aJ_x7FP6PWGD6nfpYZ6-65" edge="1">
          <mxGeometry width="50" height="50" relative="1" as="geometry">
            <mxPoint x="265.5" y="175" as="sourcePoint" />
            <mxPoint x="293.5" y="191" as="targetPoint" />
          </mxGeometry>
        </mxCell>
        <mxCell id="3aJ_x7FP6PWGD6nfpYZ6-87" value="" style="endArrow=none;html=1;rounded=0;entryX=0;entryY=0.5;entryDx=0;entryDy=0;exitX=1;exitY=0.5;exitDx=0;exitDy=0;" parent="1" edge="1">
          <mxGeometry width="50" height="50" relative="1" as="geometry">
            <mxPoint x="255.5" y="184.8" as="sourcePoint" />
            <mxPoint x="282.5" y="184.8" as="targetPoint" />
          </mxGeometry>
        </mxCell>
        <mxCell id="3aJ_x7FP6PWGD6nfpYZ6-88" value="" style="endArrow=none;html=1;rounded=0;exitX=1;exitY=0.5;exitDx=0;exitDy=0;entryX=0;entryY=0.5;entryDx=0;entryDy=0;" parent="1" source="3aJ_x7FP6PWGD6nfpYZ6-67" target="3aJ_x7FP6PWGD6nfpYZ6-62" edge="1">
          <mxGeometry width="50" height="50" relative="1" as="geometry">
            <mxPoint x="262.5" y="130" as="sourcePoint" />
            <mxPoint x="282.5" y="140" as="targetPoint" />
          </mxGeometry>
        </mxCell>
        <mxCell id="3aJ_x7FP6PWGD6nfpYZ6-89" value="" style="endArrow=none;html=1;rounded=0;entryX=0;entryY=1;entryDx=0;entryDy=0;exitX=1;exitY=0.5;exitDx=0;exitDy=0;" parent="1" source="3aJ_x7FP6PWGD6nfpYZ6-71" target="3aJ_x7FP6PWGD6nfpYZ6-62" edge="1">
          <mxGeometry width="50" height="50" relative="1" as="geometry">
            <mxPoint x="265.5" y="215" as="sourcePoint" />
            <mxPoint x="292.5" y="215" as="targetPoint" />
          </mxGeometry>
        </mxCell>
        <mxCell id="3aJ_x7FP6PWGD6nfpYZ6-90" value="Epoch 5" style="text;html=1;align=center;verticalAlign=middle;resizable=0;points=[];autosize=1;strokeColor=none;fillColor=none;" parent="1" vertex="1">
          <mxGeometry x="215" y="260" width="70" height="30" as="geometry" />
        </mxCell>
        <mxCell id="3aJ_x7FP6PWGD6nfpYZ6-91" value="" style="endArrow=none;html=1;rounded=0;entryX=0;entryY=0.5;entryDx=0;entryDy=0;exitX=1;exitY=0.5;exitDx=0;exitDy=0;" parent="1" source="3aJ_x7FP6PWGD6nfpYZ6-58" target="3aJ_x7FP6PWGD6nfpYZ6-61" edge="1">
          <mxGeometry width="50" height="50" relative="1" as="geometry">
            <mxPoint x="227.5" y="190" as="sourcePoint" />
            <mxPoint x="255.5" y="195" as="targetPoint" />
          </mxGeometry>
        </mxCell>
        <mxCell id="3aJ_x7FP6PWGD6nfpYZ6-127" value="" style="rounded=1;whiteSpace=wrap;html=1;absoluteArcSize=1;arcSize=14;strokeWidth=2;fillColor=#dae8fc;strokeColor=none;" parent="1" vertex="1">
          <mxGeometry x="326.25" y="110" width="105" height="180" as="geometry" />
        </mxCell>
        <mxCell id="3aJ_x7FP6PWGD6nfpYZ6-128" value="" style="ellipse;whiteSpace=wrap;html=1;fillColor=#1ba1e2;strokeColor=#006EAF;fontColor=#ffffff;" parent="1" vertex="1">
          <mxGeometry x="338.75" y="140" width="10" height="10" as="geometry" />
        </mxCell>
        <object label="" id="3aJ_x7FP6PWGD6nfpYZ6-130">
          <mxCell style="ellipse;whiteSpace=wrap;html=1;fillColor=#6a00ff;strokeColor=#3700CC;fontColor=#ffffff;rotation=0;" parent="1" vertex="1">
            <mxGeometry x="336.25" y="180" width="15" height="15" as="geometry" />
          </mxCell>
        </object>
        <mxCell id="3aJ_x7FP6PWGD6nfpYZ6-131" value="" style="ellipse;whiteSpace=wrap;html=1;" parent="1" vertex="1">
          <mxGeometry x="341.25" y="218.75" width="10" height="10" as="geometry" />
        </mxCell>
        <mxCell id="3aJ_x7FP6PWGD6nfpYZ6-133" value="" style="ellipse;whiteSpace=wrap;html=1;" parent="1" vertex="1">
          <mxGeometry x="373.75" y="240" width="10" height="10" as="geometry" />
        </mxCell>
        <mxCell id="3aJ_x7FP6PWGD6nfpYZ6-134" value="" style="ellipse;whiteSpace=wrap;html=1;" parent="1" vertex="1">
          <mxGeometry x="411.25" y="140" width="10" height="10" as="geometry" />
        </mxCell>
        <mxCell id="3aJ_x7FP6PWGD6nfpYZ6-135" value="" style="ellipse;whiteSpace=wrap;html=1;" parent="1" vertex="1">
          <mxGeometry x="411.25" y="160" width="10" height="10" as="geometry" />
        </mxCell>
        <mxCell id="3aJ_x7FP6PWGD6nfpYZ6-136" value="" style="ellipse;whiteSpace=wrap;html=1;" parent="1" vertex="1">
          <mxGeometry x="411.25" y="180" width="10" height="10" as="geometry" />
        </mxCell>
        <mxCell id="3aJ_x7FP6PWGD6nfpYZ6-137" value="" style="ellipse;whiteSpace=wrap;html=1;" parent="1" vertex="1">
          <mxGeometry x="411.25" y="200" width="10" height="10" as="geometry" />
        </mxCell>
        <mxCell id="3aJ_x7FP6PWGD6nfpYZ6-138" value="" style="ellipse;whiteSpace=wrap;html=1;" parent="1" vertex="1">
          <mxGeometry x="411.25" y="220" width="10" height="10" as="geometry" />
        </mxCell>
        <mxCell id="3aJ_x7FP6PWGD6nfpYZ6-139" value="" style="ellipse;whiteSpace=wrap;html=1;" parent="1" vertex="1">
          <mxGeometry x="373.75" y="120" width="10" height="10" as="geometry" />
        </mxCell>
        <mxCell id="3aJ_x7FP6PWGD6nfpYZ6-140" value="" style="ellipse;whiteSpace=wrap;html=1;" parent="1" vertex="1">
          <mxGeometry x="373.75" y="140" width="10" height="10" as="geometry" />
        </mxCell>
        <mxCell id="3aJ_x7FP6PWGD6nfpYZ6-141" value="" style="ellipse;whiteSpace=wrap;html=1;" parent="1" vertex="1">
          <mxGeometry x="373.75" y="160" width="10" height="10" as="geometry" />
        </mxCell>
        <mxCell id="3aJ_x7FP6PWGD6nfpYZ6-142" value="" style="ellipse;whiteSpace=wrap;html=1;" parent="1" vertex="1">
          <mxGeometry x="373.75" y="180" width="10" height="10" as="geometry" />
        </mxCell>
        <mxCell id="3aJ_x7FP6PWGD6nfpYZ6-143" value="" style="ellipse;whiteSpace=wrap;html=1;" parent="1" vertex="1">
          <mxGeometry x="373.75" y="200" width="10" height="10" as="geometry" />
        </mxCell>
        <mxCell id="3aJ_x7FP6PWGD6nfpYZ6-144" value="" style="ellipse;whiteSpace=wrap;html=1;" parent="1" vertex="1">
          <mxGeometry x="373.75" y="220" width="10" height="10" as="geometry" />
        </mxCell>
        <mxCell id="3aJ_x7FP6PWGD6nfpYZ6-145" value="" style="endArrow=none;html=1;rounded=0;exitX=1;exitY=0.5;exitDx=0;exitDy=0;entryX=0;entryY=0;entryDx=0;entryDy=0;" parent="1" source="3aJ_x7FP6PWGD6nfpYZ6-128" target="3aJ_x7FP6PWGD6nfpYZ6-143" edge="1">
          <mxGeometry width="50" height="50" relative="1" as="geometry">
            <mxPoint x="351.25" y="140" as="sourcePoint" />
            <mxPoint x="371.25" y="130" as="targetPoint" />
          </mxGeometry>
        </mxCell>
        <mxCell id="3aJ_x7FP6PWGD6nfpYZ6-146" value="" style="endArrow=none;html=1;rounded=0;exitX=1;exitY=0.5;exitDx=0;exitDy=0;entryX=0;entryY=1;entryDx=0;entryDy=0;" parent="1" target="3aJ_x7FP6PWGD6nfpYZ6-140" edge="1">
          <mxGeometry width="50" height="50" relative="1" as="geometry">
            <mxPoint x="348.75" y="165" as="sourcePoint" />
            <mxPoint x="371.25" y="150" as="targetPoint" />
          </mxGeometry>
        </mxCell>
        <mxCell id="3aJ_x7FP6PWGD6nfpYZ6-147" value="" style="endArrow=none;html=1;rounded=0;entryX=0;entryY=0.5;entryDx=0;entryDy=0;exitX=1;exitY=0.5;exitDx=0;exitDy=0;" parent="1" source="3aJ_x7FP6PWGD6nfpYZ6-130" target="3aJ_x7FP6PWGD6nfpYZ6-141" edge="1">
          <mxGeometry width="50" height="50" relative="1" as="geometry">
            <mxPoint x="351.25" y="180" as="sourcePoint" />
            <mxPoint x="371.25" y="170" as="targetPoint" />
          </mxGeometry>
        </mxCell>
        <mxCell id="3aJ_x7FP6PWGD6nfpYZ6-148" value="" style="endArrow=none;html=1;rounded=0;entryX=0;entryY=0.5;entryDx=0;entryDy=0;exitX=1;exitY=1;exitDx=0;exitDy=0;" parent="1" source="3aJ_x7FP6PWGD6nfpYZ6-163" target="3aJ_x7FP6PWGD6nfpYZ6-144" edge="1">
          <mxGeometry width="50" height="50" relative="1" as="geometry">
            <mxPoint x="349.9999999999925" y="225" as="sourcePoint" />
            <mxPoint x="394.25" y="185" as="targetPoint" />
          </mxGeometry>
        </mxCell>
        <mxCell id="3aJ_x7FP6PWGD6nfpYZ6-149" value="" style="endArrow=none;html=1;rounded=0;entryX=0;entryY=0.5;entryDx=0;entryDy=0;exitX=1;exitY=1;exitDx=0;exitDy=0;" parent="1" source="3aJ_x7FP6PWGD6nfpYZ6-163" target="3aJ_x7FP6PWGD6nfpYZ6-133" edge="1">
          <mxGeometry width="50" height="50" relative="1" as="geometry">
            <mxPoint x="348.1694173824201" y="229.41941738242002" as="sourcePoint" />
            <mxPoint x="404.25" y="195" as="targetPoint" />
          </mxGeometry>
        </mxCell>
        <mxCell id="3aJ_x7FP6PWGD6nfpYZ6-150" value="" style="endArrow=none;html=1;rounded=0;entryX=0;entryY=0.5;entryDx=0;entryDy=0;exitX=1;exitY=0.5;exitDx=0;exitDy=0;" parent="1" source="3aJ_x7FP6PWGD6nfpYZ6-130" target="3aJ_x7FP6PWGD6nfpYZ6-142" edge="1">
          <mxGeometry width="50" height="50" relative="1" as="geometry">
            <mxPoint x="361.25" y="195" as="sourcePoint" />
            <mxPoint x="384.25" y="175" as="targetPoint" />
          </mxGeometry>
        </mxCell>
        <mxCell id="3aJ_x7FP6PWGD6nfpYZ6-151" value="" style="endArrow=none;html=1;rounded=0;exitX=1;exitY=0.5;exitDx=0;exitDy=0;entryX=0;entryY=0.5;entryDx=0;entryDy=0;" parent="1" source="3aJ_x7FP6PWGD6nfpYZ6-139" target="3aJ_x7FP6PWGD6nfpYZ6-137" edge="1">
          <mxGeometry width="50" height="50" relative="1" as="geometry">
            <mxPoint x="360.25" y="151" as="sourcePoint" />
            <mxPoint x="384.25" y="135" as="targetPoint" />
          </mxGeometry>
        </mxCell>
        <mxCell id="3aJ_x7FP6PWGD6nfpYZ6-152" value="" style="endArrow=none;html=1;rounded=0;exitX=1;exitY=0.5;exitDx=0;exitDy=0;entryX=0;entryY=0.5;entryDx=0;entryDy=0;" parent="1" source="3aJ_x7FP6PWGD6nfpYZ6-140" target="3aJ_x7FP6PWGD6nfpYZ6-134" edge="1">
          <mxGeometry width="50" height="50" relative="1" as="geometry">
            <mxPoint x="394.25" y="135" as="sourcePoint" />
            <mxPoint x="422.25" y="171" as="targetPoint" />
          </mxGeometry>
        </mxCell>
        <mxCell id="3aJ_x7FP6PWGD6nfpYZ6-154" value="" style="endArrow=none;html=1;rounded=0;exitX=1;exitY=0;exitDx=0;exitDy=0;entryX=0;entryY=0.5;entryDx=0;entryDy=0;" parent="1" source="3aJ_x7FP6PWGD6nfpYZ6-133" edge="1">
          <mxGeometry width="50" height="50" relative="1" as="geometry">
            <mxPoint x="383.75" y="224.8" as="sourcePoint" />
            <mxPoint x="410.75" y="224.8" as="targetPoint" />
          </mxGeometry>
        </mxCell>
        <mxCell id="3aJ_x7FP6PWGD6nfpYZ6-155" value="" style="endArrow=none;html=1;rounded=0;exitX=1;exitY=0;exitDx=0;exitDy=0;entryX=0;entryY=0.5;entryDx=0;entryDy=0;" parent="1" source="3aJ_x7FP6PWGD6nfpYZ6-144" target="3aJ_x7FP6PWGD6nfpYZ6-136" edge="1">
          <mxGeometry width="50" height="50" relative="1" as="geometry">
            <mxPoint x="393.75" y="234.8" as="sourcePoint" />
            <mxPoint x="420.75" y="234.8" as="targetPoint" />
          </mxGeometry>
        </mxCell>
        <mxCell id="3aJ_x7FP6PWGD6nfpYZ6-157" value="" style="endArrow=none;html=1;rounded=0;entryX=0;entryY=0.5;entryDx=0;entryDy=0;exitX=1;exitY=0.5;exitDx=0;exitDy=0;" parent="1" source="3aJ_x7FP6PWGD6nfpYZ6-143" target="3aJ_x7FP6PWGD6nfpYZ6-137" edge="1">
          <mxGeometry width="50" height="50" relative="1" as="geometry">
            <mxPoint x="394.25" y="175" as="sourcePoint" />
            <mxPoint x="422.25" y="191" as="targetPoint" />
          </mxGeometry>
        </mxCell>
        <mxCell id="3aJ_x7FP6PWGD6nfpYZ6-158" value="" style="endArrow=none;html=1;rounded=0;entryX=0;entryY=0.5;entryDx=0;entryDy=0;exitX=1;exitY=0.5;exitDx=0;exitDy=0;" parent="1" edge="1">
          <mxGeometry width="50" height="50" relative="1" as="geometry">
            <mxPoint x="384.25" y="184.8" as="sourcePoint" />
            <mxPoint x="411.25" y="184.8" as="targetPoint" />
          </mxGeometry>
        </mxCell>
        <mxCell id="3aJ_x7FP6PWGD6nfpYZ6-159" value="" style="endArrow=none;html=1;rounded=0;exitX=1;exitY=0.5;exitDx=0;exitDy=0;entryX=0;entryY=0.5;entryDx=0;entryDy=0;" parent="1" source="3aJ_x7FP6PWGD6nfpYZ6-139" target="3aJ_x7FP6PWGD6nfpYZ6-134" edge="1">
          <mxGeometry width="50" height="50" relative="1" as="geometry">
            <mxPoint x="391.25" y="130" as="sourcePoint" />
            <mxPoint x="411.25" y="140" as="targetPoint" />
          </mxGeometry>
        </mxCell>
        <mxCell id="3aJ_x7FP6PWGD6nfpYZ6-160" value="" style="endArrow=none;html=1;rounded=0;entryX=0;entryY=0.5;entryDx=0;entryDy=0;exitX=1;exitY=0.5;exitDx=0;exitDy=0;" parent="1" source="3aJ_x7FP6PWGD6nfpYZ6-143" target="3aJ_x7FP6PWGD6nfpYZ6-134" edge="1">
          <mxGeometry width="50" height="50" relative="1" as="geometry">
            <mxPoint x="394.25" y="215" as="sourcePoint" />
            <mxPoint x="421.25" y="215" as="targetPoint" />
          </mxGeometry>
        </mxCell>
        <mxCell id="3aJ_x7FP6PWGD6nfpYZ6-161" value="Epoch 10" style="text;html=1;align=center;verticalAlign=middle;resizable=0;points=[];autosize=1;strokeColor=none;fillColor=none;" parent="1" vertex="1">
          <mxGeometry x="343.75" y="260" width="70" height="30" as="geometry" />
        </mxCell>
        <mxCell id="3aJ_x7FP6PWGD6nfpYZ6-162" value="" style="endArrow=none;html=1;rounded=0;entryX=0;entryY=0;entryDx=0;entryDy=0;exitX=1;exitY=0.5;exitDx=0;exitDy=0;" parent="1" source="3aJ_x7FP6PWGD6nfpYZ6-130" target="3aJ_x7FP6PWGD6nfpYZ6-144" edge="1">
          <mxGeometry width="50" height="50" relative="1" as="geometry">
            <mxPoint x="356.25" y="190" as="sourcePoint" />
            <mxPoint x="384.25" y="195" as="targetPoint" />
          </mxGeometry>
        </mxCell>
        <object label="" id="3aJ_x7FP6PWGD6nfpYZ6-163">
          <mxCell style="ellipse;whiteSpace=wrap;html=1;fillColor=#005AE2;strokeColor=#0600AF;fontColor=#ffffff;rotation=0;" parent="1" vertex="1">
            <mxGeometry x="338.75" y="200" width="12.5" height="12.5" as="geometry" />
          </mxCell>
        </object>
        <mxCell id="3aJ_x7FP6PWGD6nfpYZ6-164" value="" style="endArrow=none;html=1;rounded=0;exitX=1;exitY=0.5;exitDx=0;exitDy=0;entryX=0;entryY=0.5;entryDx=0;entryDy=0;" parent="1" target="3aJ_x7FP6PWGD6nfpYZ6-139" edge="1">
          <mxGeometry width="50" height="50" relative="1" as="geometry">
            <mxPoint x="348.75" y="165" as="sourcePoint" />
            <mxPoint x="385.25" y="159" as="targetPoint" />
          </mxGeometry>
        </mxCell>
        <mxCell id="3aJ_x7FP6PWGD6nfpYZ6-165" value="" style="endArrow=none;html=1;rounded=0;exitX=1;exitY=0.5;exitDx=0;exitDy=0;entryX=0;entryY=1;entryDx=0;entryDy=0;" parent="1" source="3aJ_x7FP6PWGD6nfpYZ6-61" target="3aJ_x7FP6PWGD6nfpYZ6-66" edge="1">
          <mxGeometry width="50" height="50" relative="1" as="geometry">
            <mxPoint x="265.5" y="235" as="sourcePoint" />
            <mxPoint x="292.5" y="215" as="targetPoint" />
          </mxGeometry>
        </mxCell>
        <mxCell id="3aJ_x7FP6PWGD6nfpYZ6-196" style="edgeStyle=orthogonalEdgeStyle;rounded=0;orthogonalLoop=1;jettySize=auto;html=1;strokeWidth=3;" parent="1" source="3aJ_x7FP6PWGD6nfpYZ6-166" target="3aJ_x7FP6PWGD6nfpYZ6-184" edge="1">
          <mxGeometry relative="1" as="geometry">
            <Array as="points">
              <mxPoint x="262.5" y="375.4" />
              <mxPoint x="262.5" y="375.4" />
            </Array>
          </mxGeometry>
        </mxCell>
        <mxCell id="3aJ_x7FP6PWGD6nfpYZ6-166" value="" style="rounded=1;whiteSpace=wrap;html=1;absoluteArcSize=1;arcSize=14;strokeWidth=2;fillColor=#dae8fc;strokeColor=none;" parent="1" vertex="1">
          <mxGeometry x="137.5" y="310.4" width="105" height="130" as="geometry" />
        </mxCell>
        <mxCell id="3aJ_x7FP6PWGD6nfpYZ6-167" value="" style="ellipse;whiteSpace=wrap;html=1;fillColor=#1ba1e2;strokeColor=#006EAF;fontColor=#ffffff;" parent="1" vertex="1">
          <mxGeometry x="156.25" y="327.9" width="10" height="10" as="geometry" />
        </mxCell>
        <object label="" id="3aJ_x7FP6PWGD6nfpYZ6-169">
          <mxCell style="ellipse;whiteSpace=wrap;html=1;fillColor=#6a00ff;strokeColor=#3700CC;fontColor=#ffffff;rotation=0;" parent="1" vertex="1">
            <mxGeometry x="153.75" y="367.9" width="15" height="15" as="geometry" />
          </mxCell>
        </object>
        <mxCell id="3aJ_x7FP6PWGD6nfpYZ6-170" value="" style="ellipse;whiteSpace=wrap;html=1;" parent="1" vertex="1">
          <mxGeometry x="157.5" y="392.9" width="10" height="10" as="geometry" />
        </mxCell>
        <object label="" id="3aJ_x7FP6PWGD6nfpYZ6-171">
          <mxCell style="ellipse;whiteSpace=wrap;html=1;fillColor=#005AE2;strokeColor=#0600AF;fontColor=#ffffff;rotation=0;" parent="1" vertex="1">
            <mxGeometry x="156.25" y="412.9" width="12.5" height="12.5" as="geometry" />
          </mxCell>
        </object>
        <mxCell id="3aJ_x7FP6PWGD6nfpYZ6-172" style="edgeStyle=orthogonalEdgeStyle;rounded=0;orthogonalLoop=1;jettySize=auto;html=1;exitX=0.5;exitY=1;exitDx=0;exitDy=0;" parent="1" source="3aJ_x7FP6PWGD6nfpYZ6-166" target="3aJ_x7FP6PWGD6nfpYZ6-166" edge="1">
          <mxGeometry relative="1" as="geometry" />
        </mxCell>
        <mxCell id="3aJ_x7FP6PWGD6nfpYZ6-173" value="&lt;font style=&quot;font-size: 9px;&quot;&gt;s&lt;sub&gt;1&lt;/sub&gt; = 0.3&lt;br&gt;&lt;br&gt;&lt;/font&gt;" style="text;html=1;align=center;verticalAlign=middle;resizable=0;points=[];autosize=1;strokeColor=none;fillColor=none;" parent="1" vertex="1">
          <mxGeometry x="166.25" y="317.9" width="50" height="40" as="geometry" />
        </mxCell>
        <mxCell id="3aJ_x7FP6PWGD6nfpYZ6-174" value="&lt;font style=&quot;font-size: 9px;&quot;&gt;s&lt;sub&gt;2&lt;/sub&gt; = 0.8&lt;/font&gt;" style="text;html=1;strokeColor=none;fillColor=none;align=center;verticalAlign=middle;whiteSpace=wrap;rounded=0;" parent="1" vertex="1">
          <mxGeometry x="161.25" y="337.9" width="60" height="30" as="geometry" />
        </mxCell>
        <mxCell id="3aJ_x7FP6PWGD6nfpYZ6-177" value="&lt;font style=&quot;font-size: 9px;&quot;&gt;&lt;font style=&quot;font-size: 9px;&quot;&gt;s&lt;/font&gt;&lt;font style=&quot;font-size: 9px;&quot;&gt;&lt;sub&gt;3&lt;/sub&gt;&amp;nbsp;= 1.4&lt;/font&gt;&lt;/font&gt;" style="text;html=1;strokeColor=none;fillColor=none;align=center;verticalAlign=middle;whiteSpace=wrap;rounded=0;" parent="1" vertex="1">
          <mxGeometry x="161.25" y="360.4" width="60" height="30" as="geometry" />
        </mxCell>
        <mxCell id="3aJ_x7FP6PWGD6nfpYZ6-178" value="&lt;font style=&quot;font-size: 9px;&quot;&gt;&lt;font style=&quot;font-size: 9px;&quot;&gt;s&lt;/font&gt;&lt;font style=&quot;font-size: 9px;&quot;&gt;&lt;sub&gt;4&lt;/sub&gt;&lt;/font&gt;&lt;font style=&quot;font-size: 9px;&quot;&gt;&amp;nbsp;= 0&lt;/font&gt;&lt;/font&gt;" style="text;html=1;strokeColor=none;fillColor=none;align=center;verticalAlign=middle;whiteSpace=wrap;rounded=0;" parent="1" vertex="1">
          <mxGeometry x="160" y="382.9" width="60" height="30" as="geometry" />
        </mxCell>
        <mxCell id="3aJ_x7FP6PWGD6nfpYZ6-179" value="&lt;font style=&quot;&quot;&gt;&lt;font style=&quot;font-size: 9px;&quot;&gt;s&lt;/font&gt;&lt;font style=&quot;font-size: 7.5px;&quot;&gt;&lt;sub&gt;5&lt;/sub&gt;&lt;/font&gt;&lt;font style=&quot;font-size: 9px;&quot;&gt;&amp;nbsp;= 0.8&lt;/font&gt;&lt;/font&gt;" style="text;html=1;strokeColor=none;fillColor=none;align=center;verticalAlign=middle;whiteSpace=wrap;rounded=0;" parent="1" vertex="1">
          <mxGeometry x="162.5" y="404.15" width="60" height="30" as="geometry" />
        </mxCell>
        <object label="" id="3aJ_x7FP6PWGD6nfpYZ6-182">
          <mxCell style="ellipse;whiteSpace=wrap;html=1;fillColor=#005AE2;strokeColor=#0600AF;fontColor=#ffffff;rotation=0;" parent="1" vertex="1">
            <mxGeometry x="153.75" y="347.9" width="12.5" height="12.5" as="geometry" />
          </mxCell>
        </object>
        <object label="" id="3aJ_x7FP6PWGD6nfpYZ6-183">
          <mxCell style="ellipse;whiteSpace=wrap;html=1;fillColor=#005AE2;strokeColor=#0600AF;fontColor=#ffffff;rotation=0;" parent="1" vertex="1">
            <mxGeometry x="337.5" y="160" width="12.5" height="12.5" as="geometry" />
          </mxCell>
        </object>
        <mxCell id="3aJ_x7FP6PWGD6nfpYZ6-184" value="" style="rounded=1;whiteSpace=wrap;html=1;absoluteArcSize=1;arcSize=14;strokeWidth=2;fillColor=#dae8fc;strokeColor=none;" parent="1" vertex="1">
          <mxGeometry x="302.5" y="310" width="60" height="130" as="geometry" />
        </mxCell>
        <object label="" id="3aJ_x7FP6PWGD6nfpYZ6-186">
          <mxCell style="ellipse;whiteSpace=wrap;html=1;fillColor=#6a00ff;strokeColor=#3700CC;fontColor=#ffffff;rotation=0;" parent="1" vertex="1">
            <mxGeometry x="318.75" y="367.9" width="15" height="15" as="geometry" />
          </mxCell>
        </object>
        <object label="" id="3aJ_x7FP6PWGD6nfpYZ6-188">
          <mxCell style="ellipse;whiteSpace=wrap;html=1;fillColor=#005AE2;strokeColor=#0600AF;fontColor=#ffffff;rotation=0;" parent="1" vertex="1">
            <mxGeometry x="320" y="412.5" width="12.5" height="12.5" as="geometry" />
          </mxCell>
        </object>
        <mxCell id="3aJ_x7FP6PWGD6nfpYZ6-189" style="edgeStyle=orthogonalEdgeStyle;rounded=0;orthogonalLoop=1;jettySize=auto;html=1;exitX=0.5;exitY=1;exitDx=0;exitDy=0;" parent="1" source="3aJ_x7FP6PWGD6nfpYZ6-184" target="3aJ_x7FP6PWGD6nfpYZ6-184" edge="1">
          <mxGeometry relative="1" as="geometry" />
        </mxCell>
        <mxCell id="3aJ_x7FP6PWGD6nfpYZ6-191" value="&lt;font style=&quot;font-size: 9px;&quot;&gt;s&lt;sub&gt;2&lt;/sub&gt;&amp;nbsp;&lt;/font&gt;" style="text;html=1;strokeColor=none;fillColor=none;align=center;verticalAlign=middle;whiteSpace=wrap;rounded=0;" parent="1" vertex="1">
          <mxGeometry x="326.25" y="337.5" width="36.25" height="30" as="geometry" />
        </mxCell>
        <mxCell id="3aJ_x7FP6PWGD6nfpYZ6-192" value="&lt;font style=&quot;font-size: 9px;&quot;&gt;&lt;font style=&quot;font-size: 9px;&quot;&gt;s&lt;/font&gt;&lt;font style=&quot;font-size: 9px;&quot;&gt;&lt;sub&gt;3&lt;/sub&gt;&amp;nbsp;&lt;/font&gt;&lt;/font&gt;" style="text;html=1;strokeColor=none;fillColor=none;align=center;verticalAlign=middle;whiteSpace=wrap;rounded=0;" parent="1" vertex="1">
          <mxGeometry x="326.25" y="360" width="36.25" height="30" as="geometry" />
        </mxCell>
        <mxCell id="3aJ_x7FP6PWGD6nfpYZ6-194" value="&lt;font style=&quot;font-size: 9px;&quot;&gt;&lt;font style=&quot;font-size: 9px;&quot;&gt;s&lt;/font&gt;&lt;font style=&quot;font-size: 9px;&quot;&gt;&lt;sub&gt;5&lt;/sub&gt;&lt;/font&gt;&lt;/font&gt;" style="text;html=1;strokeColor=none;fillColor=none;align=center;verticalAlign=middle;whiteSpace=wrap;rounded=0;" parent="1" vertex="1">
          <mxGeometry x="327.5" y="403.75" width="35" height="30" as="geometry" />
        </mxCell>
        <object label="" id="3aJ_x7FP6PWGD6nfpYZ6-195">
          <mxCell style="ellipse;whiteSpace=wrap;html=1;fillColor=#005AE2;strokeColor=#0600AF;fontColor=#ffffff;rotation=0;" parent="1" vertex="1">
            <mxGeometry x="320" y="346.65" width="12.5" height="12.5" as="geometry" />
          </mxCell>
        </object>
        <mxCell id="3aJ_x7FP6PWGD6nfpYZ6-198" value="&lt;b&gt;&lt;font style=&quot;font-size: 13px;&quot;&gt;QuickSelection&lt;/font&gt;&lt;/b&gt;" style="text;html=1;align=center;verticalAlign=middle;resizable=0;points=[];autosize=1;strokeColor=none;fillColor=none;" parent="1" vertex="1">
          <mxGeometry x="197.5" y="80" width="120" height="30" as="geometry" />
        </mxCell>
        <mxCell id="3aJ_x7FP6PWGD6nfpYZ6-203" value="" style="rounded=0;whiteSpace=wrap;html=1;fillColor=#EDF5FF;" parent="1" vertex="1">
          <mxGeometry x="57.5" y="460" width="390" height="50" as="geometry" />
        </mxCell>
        <mxCell id="3aJ_x7FP6PWGD6nfpYZ6-335" value="&lt;b&gt;&lt;font style=&quot;font-size: 13px;&quot;&gt;Autoencoder-Based Feature Selection (AEFS)&lt;/font&gt;&lt;/b&gt;" style="text;html=1;align=center;verticalAlign=middle;resizable=0;points=[];autosize=1;strokeColor=none;fillColor=none;" parent="1" vertex="1">
          <mxGeometry x="97.5" y="460" width="310" height="30" as="geometry" />
        </mxCell>
        <mxCell id="3aJ_x7FP6PWGD6nfpYZ6-336" value="" style="rounded=0;whiteSpace=wrap;html=1;fillColor=#EDF5FF;" parent="1" vertex="1">
          <mxGeometry x="57.5" y="520" width="390" height="50" as="geometry" />
        </mxCell>
        <mxCell id="3aJ_x7FP6PWGD6nfpYZ6-337" value="&lt;b&gt;&lt;font style=&quot;font-size: 13px;&quot;&gt;Convolutional Autoencoder (CAE)&lt;/font&gt;&lt;/b&gt;" style="text;html=1;align=center;verticalAlign=middle;resizable=0;points=[];autosize=1;strokeColor=none;fillColor=none;" parent="1" vertex="1">
          <mxGeometry x="137.5" y="520" width="230" height="30" as="geometry" />
        </mxCell>
        <mxCell id="3aJ_x7FP6PWGD6nfpYZ6-338" value="&lt;b&gt;&lt;font style=&quot;font-size: 15px;&quot;&gt;Feature Selection using Autoencoders&lt;/font&gt;&lt;/b&gt;" style="text;html=1;align=center;verticalAlign=middle;resizable=0;points=[];autosize=1;strokeColor=none;fillColor=none;" parent="1" vertex="1">
          <mxGeometry x="100" y="40" width="300" height="30" as="geometry" />
        </mxCell>
        <mxCell id="3aJ_x7FP6PWGD6nfpYZ6-339" value="&lt;b&gt;&lt;font style=&quot;font-size: 15px;&quot;&gt;Classification&lt;br&gt;with the selected features of the DNN&lt;/font&gt;&lt;/b&gt;" style="text;html=1;align=center;verticalAlign=middle;resizable=0;points=[];autosize=1;strokeColor=none;fillColor=none;" parent="1" vertex="1">
          <mxGeometry x="598.5" y="142.9" width="290" height="50" as="geometry" />
        </mxCell>
        <mxCell id="E-J0n9S15oYXZed2iLMT-1" value="" style="shape=image;verticalLabelPosition=bottom;labelBackgroundColor=default;verticalAlign=top;aspect=fixed;imageAspect=0;image=data:image/png,iVBORw0KGgoAAAANSUhEUgAABeMAAACVCAYAAADbouHSAAAAAXNSR0IArs4c6QAAAARnQU1BAACxjwv8YQUAAAAJcEhZcwAADsMAAA7DAcdvqGQAAK+lSURBVHhe7d0JtH1ZWR36g6SPMTEmJmIaE8UOkaKrhrYApZEegQJBQEUhGJsghnIoLxJR43jDjhpBfCAwChEo+gIDCAVVUEUhUBSoiIhNbNFETTR2ad/jt1Pz/xYn59zm/7/n3n3OnXOMb+x99tn9mmt+3/r22mvf7P/9OBZFURRFsbX4H4uPvfqfL27x5T960++LF//3+16/eNrtP/mm30VRrMV//+ji5U+6ZPGoF95404ID4pPvt/i/Xvv/LJ5xr3+w+As3LSqKoiiKoiiKoij2xifdNC2KoiiKoihOG/7iLRePfM6rF1f98BMXdzzQ86vPWNzxCf/34sp3v7iJ+KIoiqIoiqIoikOiPeOLoiiKLUd7xhfFueN/Lf78Yz+3eNc7rl1cc/37Fh/+4LWLV1z90Y8v/+TFZ198n8Vdb3OrxXlffJvFF9/hosVFt/6MxV+52f/eqiiKoiiKoiiKojg4mowviqIoiqIoiqIoiqIoiqIoig2jw9QURVEURVEURVEURVEURVEUxYbRZHxRFEVRFEVRFEVRFEVRFEVRbBhNxhdFURRFURRFURRFURRFURTFhtFkfFEURVEURVEURVEURVEURVFsGE3GF0VRFEVRFEVRFEVRFEVRFMWG0WR8URRFURRFURRFURRFURRFUWwYTcYXRVEURVEURVEURVEURVEUxYbRZHxRFEVRFEVRFEVRFEVRFEVRbBhNxhdFURRFURRFURRFURRFURTFhtFkfFEURVEURVEURVEURVEURVFsGDf7fz+Om+b3xc1udrOb5oqiKIqiKIqiKIqiKIqiKIqiOGiKvT3ji6IoiqIoiqIoiqIoiqIoiuIs8d//+3+/aW5vNBlfFEVRFEVRFEVRFEVRFEVRFBtGk/FFURRFURRFURRFURRFURRFsWE0GV8URVEURVEURVEURVEURVEUG0Y/4HpK8Emf9EmLv/yX//Li0Y9+9OLzPu/zFn/1r/7Vxf/6X//rwB8X2DT+0l/6S4v/8T/+x+KNb3zj4md+5mcWv/3bv33TP8W2QBl++qd/+uIpT3nK4q/8lb+yuPnNbz5x7KRBt/D/j//4jxdvfetbF+9617sWf/7nf37Tv8W2QDni1f3vf//FHe5wh8Vf+2t/bTYahuvGhvuv//W/Lp71rGct/tt/+2+TnhXbhb/4F//i5BsvvfTSyV/6/T//5/+86d+TQzTsT/7kTxY//dM/vXjzm9+8+LM/+7Ob/i22CV/yJV+yuNWtbrX4wi/8wsWf/umf3rT05IFfuM43XnbZZYvf+73fO/B4l8V88A/+wT9YfNEXfdHiy77sy6YynUsZRsPo1s///M8vrrjiiolrc2mDHCVcawz+wl/4C4tP+ZRPOfPbNSc2tsw9UU7ihm3Ane9850m/xGHOfS5liF/uq3O6/PLLF7/yK7+yNfe0+P/xaZ/2aYs73vGOi3vc4x6Lv/E3/sYUV88FYn269Zu/+ZuL5z3vedO5zaGdWxwOt7/97Ref//mfv7jb3e42ledcypCGgVj/da973eIDH/jArPhfHA78j3bkfmjP+KIoiqIoiqIoiqI4B0iwS6pIwnuo+8mf/MmLz/7sz17c8pa3XHzu537uNP2n//SfLv7JP/kn0/Tv/J2/M3UuyLZJ2hdFURRFsdtoMr4oiqIoiqIoiqIozgHeEpWA/7t/9+8ubnGLW0y9MF/4whcuXvrSly5e/vKXT9PnPve5i+c85zmL5z//+YtLLrlkcZvb3Gbatsn4oiiKojg9aDK+KIqiKIqiKIqiKM4Rhm4x7JPhDyTXJecNuREbf+s9rxc9NBFfFEVRFKcHTcYXRVEURVEURVEUxTlAAt43Y4wXO5qxfzM1RnwsSfuiKIqiKE4XdjoZ71XBv/7X//r0MRCvC/qw0Xnnnbe43e1ud8YuuOCCxUUXXTR9kMb4fX/7b//t6QMd+Xib+aIoiqIoiqIoiqII9GrX3vSBefPGgP+cz/mc6eOA2pdf/MVfPH0Y3DralaYS8EnMm9/FD9kWRVEURbE3djoZLxEvKPKBHCYgeshDHrJ4+MMfvnjEIx4x2WMe85jF4x//+MXXfM3XLC688MLFP/7H/3gKlnxMR2B1kK/gFkVRFEVRFEVRFKcHkuvajBly5h/9o380jRP/qEc9avHQhz50ca973WsaliYJeevoOf/nf/7niz/7sz+b5tMzvmPGF0VRFMXpwU4n4wVHerp/1md91tTr/da3vvXiQQ960JSQFyAxwdJjH/vYxROe8ITF+eefv/iH//AfTj0bJPKbjC+KoiiKoiiKoiiWsZyM14705rUOXw9+8IMXF1988ZSM16b0/17J+KIoiqIoTg92Ohmf1wD/9E//dAp4TP/4j/948Sd/8ieTZd6UZRy/jN8nQGJFURRFURRFURRFEYxjxGtDZvgZ7UvtTkl3w9CMQ9FI4EvO6y2vA9gnfVI/4VYURVEUpw075f3zel9e8dP74FM+5VMWf+/v/b1pzHi95DP8TEzP9wRCGfePmRck6enwqZ/6qZNlyJvP/uzPnsy8HhCf+ZmfOdnf+lt/a9qmKFYBL32DIBzDPZzyLYNb3vKWE5+8xeEVV2Y57uJmX1stVgEvaBUuMW/00KFP//RPnzTvsGY7nPv7f//vT4aDtM74pzi6bJbH/MZfWojXjG6Wu0VRFEVR7CLE89qWf/Nv/s2pzZk3q8XuYn6WZLzEvQ5fv//7v7/42Mc+tvit3/qtxR/+4R9OCfug48cXRVEUxenAzj2Kl/hJ8kdiXDJIQkmCSKLJq4KCJv+ZJvGeJKkEviDKfBJbSU7d4ha3mIa6Mfb8bW5zm2n6uZ/7uVOySiIq+y+KVRCYS5jiXjiGlzgUPn3hF37h4vM+7/MWn//5nz8tl9xsj5liL+AU3cKnJOI9zPGgkPYdxmxj2wztJcmOmz58bbqf4S8tpJXMufRhUlEURVEUuwjxfDpu6fQlIS/O167UvmSS8EnG6z3/O7/zO4tf+7VfW/zyL//y4vd+7/emXvTQRHxRFEVRnB7c7OOO/8Cef+4JFYFPEpeCnfvc5z6LO9/5zovHPe5x0yuDElYSTeuu46UvfeniXe961+Kd73znFEh92qd92mQ+6iqYkuh60pOeNCW/7ENQ9fM///OLP/qjP5oSYa985SsX733vexdvf/vbb9rjfOC+uP5HP/rRU7LX9SU4nAPcP695vvGNb1z8zM/8zOK3f/u3b/pnd+Ce6znj4Q5+en31qU996vTh4Dve8Y7T9esto5cMfvn/l37plxZf9VVfdWZcyTlDGUq+PuUpT5kaJ+ojjp003Ev8NxTVW9/61qmOj72QthmuywMddRs/7nCHO0wPB291q1tNmneY+m3dJPWVH81TnhdccMFNa+wP9VZPL/dY2Wtk/uAP/uD02rbeYOcC5ei87n//+0/X6WHqXDQM19Vp9/xZz3rWdL1zr6/F/4k8LL300kunuuD3ufL2KBANk7D56Z/+6cWb3/zmyScU24cv+ZIvmfTZg0s+fi7AL1znGy+77LJJu2lasV3wUP2LvuiLFl/2ZV82lelcyjAaRre0m6644oozw7dsO8RI3mzVVvxP/+k/nelYY6x41ydOca3ugTr2X/7Lf1l80zd90+LGG2+cNICJHbYlLtWudn3iMOU5lzLEL/faOV1++eWLX/mVX5lisWK7IO+iTXyPe9xjesilbswFYn319Dd/8zcXz3ve86Zzm0M7tzgcfGBbp8e73e1uU3nOpQxpGIj1X/e61y0+8IEPzIr/xeHA/2hH7oed63I7BgUql8BHMMokRyzLOssBhEBpRIIo+7AtUyncXPtTgRNAZb6Nl2IdcAk/8GS0JHvCIfyKWX8ugW4xP+AGnixzKpp0WFve1m+6N2rmskUjwbrjfkydn3WKoiiKoih2CWlnjnF7YqIgveQz1UDX8YH5nSRMURRFURSnBzvl/SXTYyC4EfiMU8mjEQmgkiRNMLVs/k+AlYS+qf0KqphXE427nGEeDNOgN/3yeRWnA8pbkK0HLzOE0Tjs0Wd8xmdMy/PULEnNPPhhywF9cboQ7UqjTc/wvAod03s9fNKjhA7hlWG2Dmt6BTPHSc/gZc0ckYR81nG+OI/rerQ4F+dFC/XgN2/f1cL5YvRXSRzgHi7ghHLFM77OdwHCvZSzoY4McXQUhjM4jlepCzm3oiiKojgJjH6IXxQ/iXcSf/GZIDYSx+vpqEe8NzRZOjmM8VNRFMUmkHh+bKOJ37Ufx++GrTPrLQ9rKj5n5uU10v6MBjZOL4qDYaeGqREQERnnKdh5+MMfvrjnPe+5eMITnjAlOomQdUxdtmWGVDCVaPixH/uxaXiFa6+9dvpNfAiMsbvtl9Dk9XW/bef1QoGWfdqXVxT/w3/4D1Ng5hW56667bhq+RuBlGwn/kwi8cu0dpmazwL3UE45P4tQY2u61ZJXXV716pzxwQcLJOszv3/3d3138wR/8wbS9Vy2NJ/nP/tk/m3oZuz9zhjJUZzpMzdEhyXEPcVwDXfH65hhUnX/++VNQZZnEpXUMh3Q2D3LsM/fLlA7aVzi9DnTEOjjs3mp0Rh/f8573TP87H7+f//znLz7ykY9M6x4G9t9hao4e7utYvsqeua/usXsucHdNfueDvvEhfCSe2Ec0jw6YP1f86q/+6jQsy0te8pKJP3xYtHAT99d1uK4OU1NsCh2mptgkJEY6TM1m4Vr4Bv6PH3riE5+4uOiii6bY7D//5/88xWH8oIfT/rfsmmuumeqX3677Oc95zhTfm7fcvubgaw6CDlNTbBIdpuZokdjcvaQ/pmIQ+Qjtxb18hLqtXtle3G8e7Cd6RQt/4zd+Y/Ef/+N/nKbuh1zGDTfcMO3bPpzDnLS+w9QUxwH+R/3YDzvXMz6iAaYShExCwdQ6AWFQCTluUw2jzKsImXczGVHJMSJukhMSFQRNECzxetvb3nb64KGkt2BsXL/YbSjncMwU5wTlEpoSpt6a8HDnC77gC6YGk6QV7gB+ZNuiANqRBGG0hs7kQ6vhk4YRPhm3NL2J8e2wZjsm+Y+zjncQTmYd54rP6UnhAZRzE/gxwY9AMAFHMT8oyxhNUqa4h4MpW2Pj4pqHifngNE1jPnLuY76m52r2je/OA2c8fIo/LYqiKIqTwOiHxDTiJ7GXNl86RYB2psSVh1uSVTFtzLQv/T/3hF5RFNsLWiV+FkvLS3jgIX7XuUYsv59ZL3G5JL6pNqd2nXm5L+0CnXNYRoUoimJ/7FRGRNATA0LAiE8a88sQAGUbT/ligqM8+Rv3az/ZLyNukhWmkhWCMslXwZhkVoZkyPbF7iPlnOnoACW18IKjYjjjfxh5xbKsON3Ao3ACj2gK3iRB75VAnEryXCNQr17rnY3ZNhZuHhQ0lh5mX8vnZ97/5fW8MPom86PBqEfRsRifl1dTo20C/aMw+8Pn8H+VDy+KoiiK48ToH8VJ4qXEZXykWA2so52ZTl16OSYBr305tkGLoiiOGtGXaBGkk03ajPuZ9RLfs7TpYtoB9kf70nZsO68oDoadatkSmSTS8zvCsy7QIUijeKSxbyqYYpbHrL8uIeC4giw96vWiN6/ng2M7r8wXu4twjuGAwDtvWMTCB/zIwx4wTcIp/FvHteJ0AIdwJhwyXbaRW2nkAT6dq50Nsp2pcxnP2zzOF/NByjq6FT826tdhzDZHwcFs7zyCLC+KoiiKkwIfx19C2nvxm2Kc/JeYPh0UJOtNxfdNVhVFcRygR6vi9U0ZLWy8XhQHw86MGS/YMRyC4Rv0qPujP/qjxV3ucpdpuJgv/dIv/QRRcB1Jhv7ET/zENM67/6+++urFRz/60cms40mfp4FeP5SI9/TvMY95zJkkvcS88Zq9kiOhn2SGfUnu/87v/M40NrIxXiUoLL/yyiunIC7BmtcVjSeYwG1TcH+cU8eMP1rgQPjgGi6++OKJg+ZxyBsSeGne/dd71JsTgAO4hWOeKEtUfvjDH178+3//76f/cMb4a9/1Xd81zVs2Z7jmjhl/cDgv98jYiLgBhpzJB3M06vKwkBZZ37yPQ7ueXJdXo/VcMG9/puykQVtw9g//8A+nczVvLHnfQFAGXtM+DOwDrzpm/NHCEDN8mLoLXkc1vBDu5SE0fio/y2gWfpp373HT9QPe8S00beSgsgtsE4NVXLU++7mf+7nFm970psX3fd/3TfdTmeOQ++weHzVck/PvmPGbgWvAJ34SZ1JvlC0+uN98/+///u9vJAZwHx3jvve97zSchPmUM21lvv0jbjPGMzjfxG9HgY4Zvzdwwkeh9b5zPnyimMoQWOCeiYt+6Zd+6UwdeN/73jctn0O8cdLomPGbRTSMhohHXNeDHvSg6Z7zpbTCOnhMT1yvscv/5b/8l9P1pv0n1tdO3UbOdsz4YpOQw+mY8YeDeEaOSo4B+AGxuvNVL2iV2B7Mi/G1HWnUfjFutNv+zINrznU7hjyWNrap+yNO/f7v//5pGX2w3Rxi6aBjxhfHAf5H+2I/7Ey3WxVdkpMA+ciEMa4E9BGmVVD5BPU+ovOLv/iLU+NjbBy5iYREwtxHWT/2sY9NAVRMg02iKcEVJABToTgRY2hdcMEFiwsvvHBK3EticDSStM5XQzDiVmwXlJvyZklY4Z5vBghS2e1ud7tpfDXmP2WOU4Jw0zFph4+CSM7MAyIm8VTsJvCHTgiKJBuYsffoxN3vfvcpSLjrXe86PVS0THCKW5LxGS/eNhKfNIfg299c9CTX5/zGVx3VlWI+oEl4JOll3Ee6Ff7h3p3udKeJe/yYqQCWn8XbjI87vroq0AcB+LpGev7bax3AodHCb1ZsH5QbfykuMl4pMx8tM6/BRys2gRxfo5RP1lkD3+mrDzCmA4fzwDVWvTpeKCN+InGysvINCprEJAKVET9Ih/CG76smFMcBPKMLtIvP1LlJW1N7L+2AxGJ8m7ahuN7Do5gksbbmXr6vKIrioBAz8Ze0SGwulk+MwySfxTfalGIdD9PE7zrh2GY/s57OMLG055jf4jbJfceV63AOYq345frnoliPnUrGC4YIBkFghGldoy5JAEl2PaEk5fNEL//rUSKIkhT13x/8wR9MvZZ/9Vd/dbJf+7VfmxKqkql5qpbGm/PRw06PQ72g9JrQs8c55eklazJ+u6HskoyXENU4zAcNmWBdo1HjnnPCUUE43pjiWLiDc56A+k8S3tTT0Qbsuwv8EcTQLSbxIEhKAJUPYeIRE+Sk57ztJCzoDP7hIf2Zk544H8nZmHO1rJgP+CHcywMeuoV3/BafRc8E2PiHnzQO7yTx2fiwRVBOB2Gdblk+2n7AZ5yZG7eLwyNlmQc54jTzafCZ91AHjzYBx6eTaTTGV9NcOov3eC5uy7lavzg+uO/KHw9oE71RVmJopqyUEa7EbzYZXxwncA3/PAjiM/lBnKUX/F/iMf5NMl5cr52pQ5c3pn/3d3936ohzEP9XFEWxH7St5JbE5ow2aS8mdhfr8J/ievP+T0eaxPLrLJ1ttOHkrFjac8w8X+24ie20TxM70cv656JYj53KighuJNMlOSXRBUD7vRYjcEqiSAAlmBrht+VMwE94BF0xvyNMy9tLskq2Op+ck+SqaX475zm9ulMcHAJp5TtyLmUdW369iHMKX0z9Hp0U/uBZOMeK3QR9UP+XeYNPlpv3n980wkM/liTmKgtGTiUQ2pQdBuM5FvNAuEXLGO4xWObXQcqPhtG1mN8jXyyLP00PwvAo64xwTOcYO+h5FPNDyo6uxUbti+aFf0cNmktPx+M6Fl4F5dbJgx6JnZjyGuMoZbWKL2MZFsUmQSNwMhrGb4Z//uPD4gfj59iybyuKojgKjHrERh+ZvFP8pDgonQDPBYnnRoOxrVoUxf7Y6jHjnY+exi5B4GMsYa/ieH3QMCCmntB5OmidmO0S0H/Lt3zLNPYXkdLTPcODQBIJEgfmJVD1nEqQJZn64Ac/eDqOQEtvKk8PPRFMIp5AEsKI04/92I+dEUT/v//9759eW7S+df2n8XHUcM7Ot2PGnz3GAFv5mddTVLl7Io0nD3/4w6f7iyvur20sN88Z4qVrc62W6f2cXoF4ct111y0++MEPTlzAD29uvOhFL/qEYH+uUIZ6qXXM+NVwDvRKTyr3xnkxnNG7GPBBT0DmHK3HcCh11e91WNY5PKMptC7ALf+BsZkzBrfzWwf78384T0vswwPJJFZXwXY5Hv461ld91Vct3vnOd058PwzsA686ZvzRwricegfzk+BVVj1o3OtwCdx/8+557rspDrnWrOse4K7/koTgb8D/NBAf3S//OS6/Gf6FZ473C7/wC4u3ve1ti2c/+9kTf5S5XoV5a+iokXPtmPFHh5Ql0Ar313dQcn/xJXXFMt8J8Abihz70oWkZruhNik8HgWPFHNvx8FsdDbe+5mu+ZuIdjhtq0H2lTXTYsIXGIH/FK14x7Y9fcw64exTomPF7AwcMh6V8lLkhHumR1+uBfhhWUpxEB5TLy172sqkco0vOm+1VZv4LR8TsuGAecAU3g/B3xKp9W89yfPY2rd98AY3UrjiO+yl2cL86ZvzRIefuXGkYjn7P93zP1GsUT9Rnsa83Fq0T/6QO0TdtvK/92q+drn1b4oK9cNrGjFf+4QCNVP7KW7tN+Tsm3+F/67kfyp1BdMm2/vcbR+h/+EAfnOtc7uVJQg/rjhm/HuGi4ZjpEdAgb/zhJA7xn/Jf/reu2FkP+bQfl885HF13Lf4b9dr+cD/7C5wbbsvlyAXwg7axHh8Lfsub5K1ax1Q3WNoSjiUOzHnBOH+u6JjxJws88TZFNJPlDWtlLG5n1hnL3HrrgD/iHesoU/dQ7GV7pu2Y+eMCTR9jyXXY2mR8Ck9iSOVVoI997GOnIEEyVMNKglRl19BPAWRdUwX11V/91VOFV3CcoWVpIOUYMWJiX/lN5Iw1KpBHApXaa/0ClDjV3F4VnUkupNI7zk/+5E9OjWvrGwZHg0IC9qjhmgUQTcafPZQ341CIo/lLLrlkSl5xipZ5MIMjKp/fruP666+fBEKAiJe+QaC8Xe/DHvawM0NB4J4ki/UTtOMkQbb9XJzFOjQZvzfcH/x46EMfOtVF94fd5z73ORPI444gR/1M4B4LxvkRluNMAhr8xCkc8nq0srAOnUnZeBhoyC2NRue3Dta1jfN+3OMeN52n/XslkbNc5TCjt47nt/PC/6//+q+fyuCwiSj7wKsm448WklxeZcVN99i4zMaadK/d29xf/7nfri3Xp0wlLvHMvP/xjQ9zL8INDQTb20ZiQkNGfdTQ8nBGwz7HUw9w0VRjmh5qWPtPmfteC77i1VGDbqt7TcYfDZy3uuE+4oZ7Sute/epXT+Xtt+VZ1zLJeOWuEaLM+VAfU1W/wsW94HjuFbN/jT6aY980y3L6kQTsT/3UT03Huvbaa6eYUbJX0I6nYP2jrMtNxq9HOOCDmJIxylJs5AG2e6b8nZMy0sinQ35L7NId5YRP/IxYeq+6a1+OR2scS+yCH5bhDd0yD5mOWMVF6zmmekqn3FPneeONN555eLBpNBl/tMh5xxfgCx/xghe8YNIWXMEdvoy2gTblr//6ry/e8573TNvwhz/yIz8y8XUvTm4LTlsyng4x+iCu4TuMu+1D5MpdHTMcKY44B2VMj5IIokvWwXf78RtH+LZoAr9HK3aBH+eKJuP3Rrgo50WLcM736Qw9o02Ga2IZiU36xWzjXpofOWneMvOWMb9HWMc1yl2En46jHej4Y/237ZiMVw/A+fLj/rcPeRNtDsvUUffUvbStcxB/vPKVrzyjmbYz7zzG450tmow/OShL16ndGc3ET7ELPihfvpV5gKRsmPVsy5ZhG/dJ7IdrfK4O1jfccMMZzrzjHe+YuHScZY2zrnE/rO8KuQVQIAIhwZGL1UtBUJSxSI2HpfE+wjYKPYWqMaTwBPcKcnSECk+hWUYc3NR8zFVjjSOVXJc8ltQyJqD9gPNxXs6PESzCqEEh0aGHvYDZuQr6BXHWQ6JinsCHWCoz52esWR83FJwREjzk9DgqXBN06W0XEyCaauxzVBxBEDHBI1OC7HjF9oPe4IVGjLqPN6YckoeKHugIQmmWdWnIqFX7GdCPaA+zLe2SmIjRr+iYRrHk3tVXXz05qnUmGWYqYSUIzT7wUxC3Cqkr/qedzPxxOsLicMAjHOKLln1YOGX5yDk84PvwwrdX6NrP/uzPTn4Rvz760Y9O//OX1pGUwqW3vOUt01Sv5/je5UDJuagPehzy7cxv51BsD+iAsjXFG/FZxlvWIKN/enL5LanB/M/ypuFBEd1JLCf2ykfVNfA1whwHpzRYxYB4SweZpAi+2ofj0s/i+IAfYmINMfFxGvwBTRBj4Q3OsHDGt3nyfR7xv/VMV5n/GJ/LJ+MFfjC98TXS89HYw5jtxIIeIuho4fwcp7H9diI6kGRVprQj/NG2G32SZLCHxXyhzg70xD7sq9heJOYRD9EmCVAd8miG5CLzwft8JNNyfsd63noV82v/m9Kp+CBm3/FZRbEf8IXPiw/kbyQutSf5HYnN+Dk+lE9NW9KUXo22rq2ZZSBW0uYzpYPRs/w/wn90coyj0n5gzo/fVX/UETGaemGZJLlrc07juRS7AZygdfig8wXjQ8V88iDaA7hAP+kpXRVXmXoQbNmyWe5/MZiHeHJy6sEY880ZW5uMT+V0gwVDGmwJiIjHKCyBwhckRUzMEwjL2X7BUkRlNAkm+5FQlegSgHmipyeqqWONcE4x50ggOWQ9B12LZJ1rSOIjYlScPJSLRqFySkNOYigPUZQpHniym4T6mAS1XNIpHDNd5puyVuYx+yx2A8pWeaZ+m0avogf7lTe+JLHN8InG4BbTE8eDQklPphFIiyyTQGfWoU0snKR/tHCVRRszdZ74Hs7vpU/Wp7Wj2c8y74uTQzRLrywmOa5XX0zvAjbOS14yHMMjDxVjtC5lbb+00HK+0X94w19LyAq+aGq4j0sjn/AHB/nY7NNvy4v5Q1nSOnGNhIN4x/zo30azjD8Vy6URaTvbWMb43HBlFfDLPrKdjg44JuDPQyV84p/xE6fUgWigaTVqHljWgyDLw5vwC1+YGC0P8MYHeavM/zgSfoQjeDT6uoNY1g/nw7+R+8x66/hbzAvKCTe00fJxQlM8Eb8pb4ivMpWoisakU02xvVBflXW0gUUrGH4knvdfppbH+CC+K0anxEFioOiQ3/IZaWPSDEZDbJNjsOJ0YfR3DCdxQkyUzpx4Ybn/R/8ilqFJYvDkqNKhNJY2Y2L70fKf9mPakjTNPoHmOcYYM9FF55Xz4/fwPDqK3/5L/VE/sm62G+sYc13F9gAHw0O8VK50juYxXAgf/KZ90TycsA1O4ZeYXK4i7Ur8S54tZlnyIrbDmegqTR3rxnhuc8DW94x3o1OYKi8BGAVhhMJUiEkQmBKTsfG1bttlOLZCFXylAYcMRI6wSVyYSm5knwgVy/GQTnDnKaFrEbTHiSOS65kTYU4zODoci5AorySSlCUe4BVnJ/mECxKfCciJCL4pU7bsNE0tGwMuVuwWoh0p+2jCsv6M8+C39TgayaMYfklymkq80x69kb19oVeW5OkYdI0BlQaj/YaPyxauMlw0HRsifruOdXC+48MC87SvmA9wAH/olV7u+PKRj3xkMm9+ZZ4Zq5np8Zc3ffKAJ4E+rcNLPLVv5Z5kPH9IQ/V60QNGLx4+MDxKnQj3ccV+cDvmdzm0HVCWdCIJ0iTYU8axaCDQGY3M8aG3bfAkycy9NAeXxu3FVJZF02yL7ziLl2lU+s95xYqTQzihnocXI0bOMJzAkZjG19jQy/xoWS6WE8eNHFH+ObbpYQ3oHB5qgOa8wmXHKLYD9EJZ6snsbYy8gaGNFs6Ej0nGp5NW2pmJs4rthDLml5Yf6kYvwoGUMQ7QkPxn27Fdb0oHaE8e7piysX1JL/gx69KRHNe0Pur0ITEyTtEePMpDHsvCifghPIwPEzen7ZcON9qH3tTPNG/srzL/pQ2pnSkWp3c4n2MFzgPnk1hluKwDjrcS6affzj3XY33X41piqW8x6xbbgXBRmY18SL4zb77iA8tbsInxrY9TfCcTp2s/5q1+hodszG1YR1yvDaqOJMajp3iW85kbl7Z2zHgFxSFdeeWVZyqsG66wBU6QS3PeREMhGn+WcPitsJ75zGdOhSl4OhuM9yTOU+Fr7Hlt6F73utc0rpfzdUznOd7yiBiSvP3tb59ek37pS186kdF/RJN4nu35BYjnfnXM+LOHV8AkkB75yEeeSSp6vUpwrtw5u9e//vWT4zKvzMwb98u6eIkj9uO35PwTn/jE6RVGry4SHB8rNAaz7SUIJMjwwfzo7OYIZejJd8eMXw11zmtXxhQfE0oSkuqm3+vqo2uIY8p3J5g6I0nq2mz/7ne/e0rEq0OOh2eu1TQYj5H5dcdVhs7N/zRMgPT85z9/cpzKGO+TdBj34XxxlmM07p/z9Buvf/zHf3wK7MwfBvbpmB0z/mgRHzZOM78X9uLOMhdwBwc1KL/hG75h+laGIdvcszRqs254bRvD3bzhDW9Y/Jt/82+mdZU/Pvt/E/fXMdWbjhl/NFC2huTziqn7KTg2fepTnzrNs3X113JlbOxt4zO73pQ7PyvRtapskjDzyqr7JsD/uq/7uulYfqubfKrGKK4Z11ljlI4eBzpm/HooH/XvK77iK6ahHvBHQ01M7fVlnFjmi21WcWgdr5Zhe7YXVv1/0P3zgfyxemvedj7K72HQJu6vhm7HjD86iG9w0QdbtS9dg3MWA0VTlKu67NrERL5DYeg/Y0pb3zp0a+7XelCctjHjtWv02qRFkpASSg984AMnU95ng9yzTMXuchThiRyCdjDuSC7JBYzfnDOc2lzi36OGe62t1DHj/zdwQCwqfnYsflH75xWveMXETT6TWc6s4xxpv22dox7uP/RDPzTNqx8Sl/hlHTqGb+bxbx2Uhf061jd/8zdP3z8zFIg6kfjO8a2Dn9p62qbumW2e9rSnTQ+WrBtdZMtQZw3v+/SnP33SVefkmvhRxzqKmLxjxm8WypzhA76JS8Qkj3rUo6YOMrgmDvZ/oFyZ7fhU5u1+fLG+8tcZDFetg8PKzjbWMbwN3+Q/DzE95FTGtsVDZe6+2gZXTTftl3FZ3d0PW/2YyQ1UgZjCGCvTups7Vv51QnAYOE7MvlQkRDDNfJYr/BHj+VsPci0IsnxNxckjZZYyD8KllPNolmf9rLcfxn0Xu4ORHwSaWRZOhB/Llv/oRLYbbeTbqD8xWhKL5qzi8V7IuqNl+V7I9eVccj3FPJCyDCfif/azVXyKZZ/Zb9Y3bxo+ZN0R4blp1gvG+WI7kDIfbbnMl7Fc7uFCbC+Ec8vHG7ezbxyjl+b322cxX6Rsl025HsSsuwr2G55mfrR1y1mQfVuGk7Fie5AyHctvuQzDtzH2sqxlvRtQlsuWMo4dFuN+wq/4q8RLY7wloSSxEyu3Th9G35L56NMyVnEzfMuUXsX8hpFzo+HjOs5n2xH4ibMs+7AsXM85Zz/jfpePEyu2B8oXZ6JVLDwyb6pMRx4mL5Jcxro8x8jb0cZ9jb9h5BysqjMnia1u2bqZqeRjRd8LKfxU9qOEQh8JFNI4L3DMZYSU47xpbG6EOc1QFkwZRVSyLOUUERhFI+V+UIeSfRW7iWUO5PfIpVUWRL/YyLUY7fG0ORpkejZat26bdee1DvaT8x2vtdh9KO/l8h99m0B9FY+ynuXZbplDxfyRsuUrR9sP4UO4Ei7E9oL/rZ9j8dXjdqZ4FO0sp7YfKd9Vtg6r1h0tGOdHrFsOy/sZuR8uF9sD5ZXEUmwsR/qxyvIfjSm2H6nTKffl38vY67/A/3Rh5Bafleloo4YkHkqbM79jy1xctmI7MXIqGrSfT0mZj23EVYZHq7C8fTg38mich/CajRwOr8PjINe1bON/xfYgZaaco0fmR40LB7LuaOFctM10L+4y/2dd29pPzsWx5oytihDcZDfbq+rMazoZIoEpDOucFLxK4lUIr596jcIrFIZj8LrOBz/4wcWNN944rYMUyIGEIRvk4wZetWBeifMKXP4vThajOMQhERRP/rzuouy9upZx10y9Wjg6nP1g/zg8WrEbwAOvm95www3T0AjMkEQ4YygqwwLkewP0g9ESOuJVLcMqeO32ve9975ntzRvKw2vfzHq25+zwMk7vbIF/Seybsugu83svfXLN6oUhJTJ+6rmcTzF/jD7Na/382IUXXjgNx2X4BK/344718AoSgOGGVxNx2bAhhg8xjBwe8ZvpZZEgq5gf4icZPymu8bqo8UK93m/IEf+tQ2KjaJjXSmkjHfQaP00cA2sahW+4ZL/0ydA0hqrBPce0To5p//ZHK30fAd/476LYBHDPK9Tqgdf8TffymcW8QDeUV9qdsVHDDKVAR+gTbRG7ZQiq6FmxvVhu2ytr/shvptzTrj8b0AhDs/CTMb7rcz7ncyYzFMh55503DcEQu/vd7z4NsWEIJb8TXzHb2J4flFNgGXveEBGMn8zwJvgc/1nMF3RkNHxbtkBZsjH2EU8xfBbzMEOI0Crx1n4JS9tax7EzLJepupEhP8AxccxQVre+9a0nTprHNTyjpzkn+wLbG4JGzkTMb6qeMXVuHKO+mCfCOTB8kiGx73nPe55p//k9fqRVviPfMBCPf+hDH1pce+21i3e84x2Ld77zndOQwvIchvgz1S7UJpQzMewSDeZvabCp/Yjp5UkMwYQ7I1/wcrSc6xxw8+/8OG6a3xfGVz9JJBEvmI09/vGPnwJcxrlIDllvhBse8VDgCsdvFdu4fuvGHj0s7DeNR8JBXOLAjXMkuWCMvZDAOZh3vqbOz3LznCnSIhOCneuYUfbrOISRgyaIcxI14ux+SGKrnMpkbnDfCIzx3Z2re8rhaGi5l5Kgr33tayfRMN4ZweBUcMH6aZApV785PwIl8PK9A3yUcHX9/gfOTrL1XAK944IylGQz1l84PYdzVk5M3STSRDxBw3HDcTkgTodjMQak8qcZ6jquJGltytngkPPGJ+PBX3HFFdPYaXjhQZ8xlT34wTnXZv+0xLESYIVPh4F7RidwVnnir/J9zGMeMyXUaK5l/rPuCL8d13XQWNeVa6OFqROHgX06lm8uSLDNScNw3fW4ZoHE2d7zbYcyik9zDyREBeLGiNegFJDTPOMH4pJ1baMcTfk5GmjMXf4yD5rwH59zjzd1b2kYXhlv3DX4PScNU5/FMOr7SWnYfkiZMo0v5S8gV+b8p8SAD3hZj42wTXQLF+iisjdGPL+YjwALvHP9yisPCm3nGxzGojQ+Jb+aDzg5lrLkB171qldNHSRwjb5q7InXjgPGPs99cL5zgXvv/rivYhg+5Lg1zDkoT3Eqjqh/Yiw+6GzHZrbPc8XZ7sN2ypjfcz9dmzqhkYnbtOyooZGLX+qB48/FDzkXhl+Sl2KguWrYCLqic5Txwd1bbVDLlGO0LrG+KR0R143foVCv5uBHjgoSvfRLHDanMlQW0TD6rk12FHXMPtVjdZiv8JsuuQeW8UfqnJghnIBwfi/kf9pgn9qH2ppM2yAfO+Q3JLO0P9ltb3vbxQUXXDAluhiOWofv4+/sxz7N25d9i7lw2LzzFL/n4ZJr4hvnALkcD+99/8U5bkInzxbuG35pw7z//e+fzm3TdRtHHJfRc1Nce8QjHjHpkPnkvpjzsZ6pdZ2juuCbdHIKfI9YSm7Kb7EWc117XYt9qgf8srG48VJZ2bdlzPkA7nkApAzDTXx2ntYLHM/1ieu0d7UPaSn99G0k+3avtSXZUXGBdqkX4oz9rvs4ET1wn/kP+b858X8v4Jrzdy99K4o++f6Pee0+uuV+yx3QIrF9HmC7Tt/0fNOb3jTFn0zHRTquDShecD/E7NbNdnhDkxkuu2/WUabiRu1O9w+/fXvK8tQh85u+t894xjM+ge/rsHU94xPMEgCmQN1w0+VKvgwkWbajRJ7sERQC4smMRJknPcwHWji7VPyIUM4ZQTUckYcRsDjU4uShrOIElQlTliq5gEzZS4gqc0Y4BOeHqez2jw/MPCt2A3gg+LnuuusW11xzzWSe/ubBjSSbhNP4tJfTkWCXhGd4Jdmb7c1zWJLzSS7ZjkPCy+jN2QLnw3X6yuhtTKC8TnPpm2vmJOMw1RHnNpfApzh6jLqlJ5Yg3Ie4Lr744inJLTjHnXAL4g9TRzRy8tYH/lvO8Nm0/Jk3lG38pca/hIIgXOPNvOX+XwXlG7/KNMDoogYaMz9qmn2lMWqfuCUB4aGdTg3LxxOI01W666EGreW/i2IV1vF03fJl4J5klwRYeqbu1U4p5gdlOLY7zY/lL7mlzUdXmHnLgN6wYnvBD6VzjLKVyFTO2vix5bj2oPoA+CUxKAHNXzFxUnIBklg6OXmoHXvwgx+8eMhDHnLGfBhcL3kmUS9xP+5PItTDgyT6+Ul5E4bT8Z/FPIFbdER8FE1hWW66zD+8SuzjP8nKGH0S9zDzia3XwfbqgdiL2U5spk2nbiQRCo7J1+GtJCw+msc1MT//F645d7C9eiUJrx2rTawtwCxX786lLVscD1Kucpk6VTzgAQ+YOsZoA+IA7dGxgom9aaeyVuZGD3nLW96yeOMb3zh1yLrqqqs+oae8HIeY3bp6wKc9QJfHXIk8ifged8Y6MdYH0zlhqzJ9aYxHPExVZMvZKjEKMUwJQBJKkkibdj6O5zgJ4OLwYkQJIXLOroXYSOqzCN94TcXJQVlp9Ic7yi8Beqb+S4Iplf4wsA3e5Al3G227g2iQhjm+xPAmQbHfmV+2aIh1wjPTTToV2kNzR0vgl//3gmt2nsuaV+wm8IHP4rtAcJ6AP2ZZAnDrj3rH8GTkevS02A6MMRkuKG9GOzJ/ENCJ0fCErdIPPIoljsqxzC8jnMMt003GgcXxQ3mGN+ZXWf7fz1ZtGxvXWca4bbgWH7hq/WKeoGM0JXFPbCxDZZq2Hp+lnJV5sZtInU59Poo6PXLroBbwc3IG8iIxsdY4zfz4ezQxW+KyYv7At8REzO91HMQVZSsGU87M/MihwyDHHuuAeT5vxMjVWBCfmDZs4v60demodRwnfraYN3CMvwQcG7WGPiUWxx9lq4xT5uO8aThwUIwcSV1Yrg/j8lX/nyRmze5U9iSe0uPJ6zHMa5jLQjDeXMRIowwxPMHz5MQTlQzp4L9RII4SSEnw8nqNp4d5iq4XrKc6SJrj51pdZ55au745EeY0g5jo4Ys7OOTpnGF1vJLqSdzZDr8R4IGnw+lJzPBmU/wsjh/KMo27aJOnwjilR4DXtnAqPeEz/Ay9oBueAmf77G9ToDv0yBNur/TpWWOeTh1Uk5yrXg15JdLUNRe7gwRBOIEbejzoDW+IGj2y+Owx0OKvEzThL41LbzPT0egp3a0Gbg+Us15Ryt2r++aVf16Hpyl76YeyTlAfrUuDMzZuj0t4h1ejJX5cpVf2S3+Z+fJrt6BMk3RIL8C8ykxTWH6Ls7QF4n/53PSuyrcrLOOnrZe3z9IbkI2NTMAnx06STA8w2yV2PJdESLF5JDHElxlqwVvL0Z2Yso1+4JDeeenh5xV6fq3YTai7yl/dV7/Z2bb7jgL4yLd6C43pfSpe17teHMbEZN4UkzdhcijpeZ98ivVsI863n2I+wLlY4iPJzuSX+BTLglGraJcYLEPG4AE+eFORGXaK1h00+ekccJ4fTfuOj92vbWe7gGZmOJroJv9oys/q6UxfXWuuu5gX8CrtPzE33cCtvJFqZA/r+A8P8ZVvzFtFyjr5WPPiqsRN8a0HRTTQMb0BpN3Bh1sO+GN/o82JU7NPxmu4uaGmbq5XnY27fvvb3376oImbn4R8EgKBm61AiQYSaNxLmAqyJVDN+29TBeL49p+A3/EJj8Bews28/+LEXQMxdJ2MM3TdSVwUJwuBF7FIAw1/DKNgmBBDKnzgAx+Yyli5w2F5ZX0OzTEIlinezEkwinODsowuMU6HHtCjjIuGUxl2xm//WUeiQJCSACW2KX7QHdpLcxPUmz/oA0Ln5vryCpkHCXjN2ZbTu4MEY4wPk4Q1bqlXFDXwBPuS8PyZIRri03CA8YF4gSejWUZPxwfWxfyhI4FgmF4oewl5y2hJDNZpiLKmHdFIv8WCSayzEQn28YrRJ2a9zC8j2pug3/GK3YFyTaJcoiIaIyk+WnRHPCd+85o082F147ozHw8zbFaS877T4uG4+Iw2JREyahQ+OTZfZx0NTwl+vtyx6gPnDe1KvkpygUnI05gx+RD9EM/hkNgsnXPwg+8qdhOJbVP/5RcsG+v0cdRvx2B8qRgrwz/oPMP/+kZPku75mKahIpg8ymgZSkReRaKWDy/mBRyL0Z08VJYn4FOSewCciFaJhTxQTFwey8MY3/Whc+K0gwDncF4SPsOEpOPMXghfge+VA+NP+US6ydIRTZJWHRuvOdsW8wB/GBNnyxPQEXpimEgPBP0nLsdHHRgk3eUyWMo85Y5LOKTcDxuX27/8KR4bnivtjhHZb+L/w+x/07jZx8l9YHavazxtCpyKmykxTXA4k/ve976Lr/u6r5vExc1083Ne46VYxkkKiIkE4RBgf/M3f/PkQImWdY6rcjsWUXz0ox89nTuCapQa9+1Od7rTdB3EVFDvnAmnp4XPe97zFi95yUumYP5c4NgqhOMbS87x5iRuKrIKYqwoichzvd45QplKVElQuVacfOITn3jmwxaE6rnPfe70cTmcBXzw1HAbHJEyJIBPecpTpsYMjs9B7FL36MFb3/rWqYG9X9BQLCa9ELx9/dd//aQX0S1jv+Gy38uczG/3m856YGUMS9qG8+cC5YhX97///SdnTz/nUi/cF/7IdT7rWc+a6u25Xu82QJnEBysLCXdjBH7lV37lJyTg6d4ylJv7ZDxAeu9+8X0eRr3oRS+a7udxl20eiF966aUT//0eGzgnhWiYOiU56MNW7tUccf7550+BuI82Ad9297vffbqfwbpydZ38IN/IB7pGSdIf/uEfnq49/iQNNfvhc+gR0zg0nq7jPeEJT5jWBevZt7K0/0suuWQai9JxjhvG9qWr4tmTOP464Jf7wzdedtllU7LaPT5ORE989IvfEFPotaeBJUGkHPfShJSxRKhkOShvXNILzzVaJ3zAJ5rtw/viLPOWiRU8QAZtEMlYCYto1P3ud78pjnZO7pFeYJJXfGLuoeSsaxHHv/jFL1685jWvmZIWm4Zzca7GaXW9x12G6+B+Ox/3z0ONK664YrpPe5XnSUGMjnfqKd8uYeXD9eKPcEziwH907bu/+7snPaHNpwF3vvOdJ/0ShynPuZQhfqm/zunyyy+fEj5ijKOG3ARu8HX8Dk48+clPPvPQJvcjU/+vwnjfVq2z1//L99z/646zH+gabaKR4jbjM+Oze3gS0LvVGPlpa9DluUCdp1vJz8RnHCecA9+orSHG5nckQSU/xUOruDFC/RBz83m0jI976UtfOnUs9BHN/eDY8hZ0UVnJz9EEv9WJ5eMHfJE66nzltXRi1OlMffIAk8+VrD0O6NDrQdXd7na3qTyPuwzXwf0B8e7rXve6Kf6dE/8DnMK9lLV57SaxEQ1JR2kxEIgndWrwEWHxmO3pi1jrKOB4uPf4xz9+Oi5eihu1Q8TZYkJxkbLehE9YB8fiE/bDrLtcqxyMoyAYpi5MhTZFUESILQOpI1puBjNvGTHw+2yd12HhOM4n5+H4LBUPch2ulbn2dddWHD+UYcoxhkuj7cWnlGV4vap8s//sb+RHURwnor10lnFi0dzDYL96UWwvcIE/xov45HBFwB9/HSxzhw+UzBBIxeKji+2E2EW5K39cUP5juZuPL122EdZjdMj+Rhv3N8aGLPFikOMFq45VbDeUp1jJlHaIsUdN0SBk4+91yxlNSuxlf8vrZD42apbt6Fr+sy9Wzm0PaA7dSsyzrGGgvNOOw7eUv9/mG7vvNuJHYgfBuJ75aNZ+dpD1ID7zIMZXjvFauB6/zY8W80TKnN9Z5YNW8SJxVPJLKXflHfP/QWEf9slGXo0Yz4NFGyHnzeJzXUOxHVDW0Y/YyCf8GPmg/MPXxFCj3zxXOB4/nXbA6LMd23HCwzli1tGCiqvwPGXRC1IBjpV1v5uKHJ7AeNrmqW+G/Mh2x1koIUEsznXE8josgZ7rHhsIxclguXwOA2KgHD2F9hTRE3+/l8XosPstiqMCraG1ed1Vr2ZcjeHsYZ1n+bw7UJZ8El+UoEpPTK8n6iVqqmfO6K/xhd+N6anqFVW9sPhmU7108h0VPRgSRBXbB7ygFXigp6D4LUi5CpTHwHkM6DXu8Cwcsy+9VDNMlnk6FV3hT/WC8WoqM28ZhHM5Tqz82h0oy+gJHWF612Xsd1Ovw1sWyzd/mB7sNAn3wg+JqPAriVnr6MWlx5pe0bbN/r0BltetvXLPDFliuWPTNI3FYjtAe8Q6NMz42zQoba9oijLNUEd63uHI2YKe8ZeOycRdtJPRM2boEb6Wxjkf2wCehqvF8SL3fq/7779wJgkqUxpCJ7wJ6E2RDF0boy/io5j1cS1DbEWr4kvp1DJyXDZiXB5znmK1JEz3uqbiZKG8lDefp4c+H8bvJdfF+KnwbdmUrdhcbCZWEq/TF2N960nsbUZvfom1Mq487aGH3gBjeh0zvfFtawQLGhY4dh7ySM46H3w3LI3RD5xzhnrTs946fQA0X0QfkotU1tp8+Q6FeX6LfjA+kU5F1+gZjlqm3NkqzToonI/j8Y18NDNvWbiI646X75GF/3PErIep0fhS2TXAVFYfnvAqzEMe8pCJEApSoQfjpQicODiB8rvf/e7pP6JlCJCxwXcuZDgMkJgZJkYQ5fwI4AMf+MDFRRddNBEnTtX5EUlC69Whn/iJn5jE1TVzyNY5LKEcTwXqMDXnhv3qwF73kyPLa1HWI1Ze6SFmklgeHBmm5tWvfvU0D4KtDlNzblBm+N9havaHIEsDUOClPPHVsGC0yj3EQUOO0N1VdSEcta4gSzLCq6bn2lgFx8OrDlNzclDuCeD5McanCIL85zc98zog/rgvuOA/8wJ0+i44EyApv6uuumoKzN0zvyW9BG7WPW44f76xw9ScPQwBw8cZrki9FxxnCA91lSn7zLu/yj11WR13303VKQkI43hbz2/a/a/+1b86k5C4973vPfHNsAH2m4dCXtu2P9tY1z20D/zio97znvdM53fc6DA166GM1L+DDFOT83WOXufWRqC5zPAUGv74EeP/47Psw7wp3mkYuu7s2z5oud946zz4G7C+OCedhIDPzINq2zie++cc1VMPGpl9bhodpubcYagrw2QYRlRZatyrr7ig/N3Tl73sZdO1uK7Xv/71U6wj8RCOwUGvjT5KsOsAYf94hU/2xfBKEh4P7ZMP0LYNxwLbHgc6TM2nTnXsggsuOFNOT3rSk6blfFfgvviPTjHnIq7Ae5p19dVXT7pAS9RbU+u7DhygK35Hg/hE/+GDYTYSX1lHTGbffh+kPMIV29I7bU4dFu3HUBLOzTAsJwHxZIepWY9wRKwdn8Nf8pH8JRgTXg4tmmEb65o6X+etnoDlcktiIzzAU7xUf2id7ZmclN847niOwReKY+IDo2GWid0g/vR7v/d7Jz9tHx4cOBbDb8dkxxUTdZiaw0GZ0xcapbxo0dOf/vSJX37jkLiWjonhtPP4Q0MR0TLXk3Hi3W88xCfcOIhejbCtYxqWBu8c2/n43sUjHvGI6fiOR8+0LfHNMcX9OOb3ccHxRp+wDrPuZu0C3FRBCuMk/EZWpjBWIQWrUmuc6QVDWAiDglfprHMSlS+ilvlluC7EyjW6B8iuErh2JCxODim/dbYXIhiSExyWAN/vZR7bD26Gp0VxXKAzdHZ80jzOJ+laHTqdUO58Et0SYAnMPCTPR6BM9aKhcXhkPevH15oKkDxs9ZCRb5aYl1hglmkUnIRvLo4GOMG3pefU2KsU+LQ0vDQy0iiMSVpYnxYlIWEMeg0nHQn0wknSAXBN7ywNUVzMMSG+VCA+mmPUt+4GlC89iZaw9DjVINQTT/LXco1BlnlT29Ek7YVwEDfDD1zBGeswyQPbOIb9O45xb/PxV+OimvpPQ9qxJR6OswFYnBvojhidL9PrkwYta1jG2Na2zJsV+S92UGjjRTeZOEunBxYdHd8+s45toLHY/IELdCqJJ1ogSUQjPBSWsIpO+VA0y0csmc4Jkr90DucYTcK5+FI6dRjgc0zbNHGdPEMSbMU8ET7F54mb+TO/8YTl4bT1oke0gilv5Ry9kUTX6dUDNg9BdBDVQ17cJaaS9DeVaPVQULxlntFI29IsGpbzc2w+lXkQzm/yi/juYaJELR5brtcyDcXpYp6gEzSBNtAJZS35rt3nTQrzHsz4zzrKXdyTN3/ES9p4ylwbz39nk4gP8JiPjn9k/KUH2+GifTuO43lwnbowR8w6GZ8gIwIS5Pe4LBhvtHkOiuNj51LwR4VV57wOq67zMNsX80LKkqBxhqZjgD9iudyL4jiAcwnOMw1XBev7BejLvF3H72I7wX+OwT1IjArAmHmBWHgzWnhhO75YA5JfTkI2jcsmrbYbY9BOM5T9iDEGi17YJvP5Hf2xj2WOWSf7GY+37pjFboNuSKLTEFO9ojTuY5IBSbSvMpqjrRCjcQGe+U2zYtGrJPCTdIiNy8zPoe1RHBz0hYZETxL3WB4o07QtceZcyte24/bRQOfAzDuPaJzfOZdsV35tD5QV3tCHDH1FJxILxawz6s6oUTgQw4WRm4dFto/ZZzFv4FD8EO4kng5XYNSP8CTwm67FxFYeQupEI5FpPnoz6qD9mY56JCbzO7wZjxNOAb7jOs47b+fsXKOho98t5onRz3igMxoOhG/WU6bKmeFqHhyGq+fqs8LvkcfOIeeBd9HLuXNr1oqbAHgsPDc1BbhfQUZskiBQQKNInBRyDuvOZbw+9yBkGq+92D4ou5RpynUUCHxYZUVxXMBPvFzW3NH2wsjZOMpid4AfOJEAa9nSgIyu4QI/nEDdb/54Obka/8z47GJ7kaQBmI4+DnBgOXjGAcE8PuBCOGBdnIseRZMcI/tNY85/4d+oU/YRbsUsK3YLynS0YPn3UWDk7ahlLDzOf/ichmGxHaAt0ZVRz0YkvmHxbWcL2rXKnzKJtlXLc07OldHJYt4IT9joj0b9OIhFY0ajSfYPOcayrQPuLFsxf4x+ZdkXhSP4Nea/Ri6M5U1DaApLkj+2SoNoVrQxMVd4Y//4mHMZz8k5OpeRr8X8oWyV8Rhv4wGuhC84FG7hJt6N5e53+HeuZe98nEeOndjfOYBjOIdwz7HnjFmPGW9sTeN+Gr/P66FepzEelleV3eTlU09QAiq78cevvfbaadx1UFh5Bf4Ql30kQDznbLxjU789gfzyL//yaewtTyJz7s6NUBnH8u1vf/s0Pqx5y4zl5rUeleIwcDyVoWPGnxy83uV1HmN5qkscnDGvcNrrXl6j+YEf+IHpGwGeHINy9iR5LuW0F5Rhx4zfbhhHz+tmtFfZKc+73/3uk3YAHirXYOSle5yPBxkXTn2mt9/+7d8+3e/DatYylCNedcz4zSEBjLJ0b73yx+96Vd+18VleS/QKq3n3nqYpi/ACV5iy8rqsV6y9mkofrG8YB6+o8mlA62lctMI658qVs4W4gW/smPEHg7jF8DE4YV49pxcZT1idCKdME8i/4hWvmMrbvFesaYbXqi2zrbFO8cq9VwaGohH/+O261THaoqfVwx72sImPxi/VC9p5MK+w2r+hCl/5yldOx2Z4/OIXv3h6rVs9PW50zPj1wBH17yBjxlsXX5yzYR7cS7+Zc8cp64qX8cLr0ThkWT6OqD65bv+71uzfPnAlx1qGbRw/hqPMfLYPt/x2jpat299RQiypPnbM+IPBeRmmAe/olPN76EMfOvHP9y/oheX8nXWVpbJ99rOfPfHG+b/jHe+Yhogw9Mgyct00ybrm+Rbj0RvuAW/EWTTO6/V4YlliLrAP/zsP/xufHp/FtPysNpMhAN73vvdN2+Kuc7PuJtAx4//PMeN9W8lwRu5/7kfKW1kwPkusRKte+MIXLt70pjdNw4zQOfuJhjDzOAnKPRY+4U7mmRjNeVkHcg6u33Kx/e1ud7szcRuzPeA0LXSOzkM7ybd8fuRHfmT6/7ihHnTM+P2R8lOWfGSGcwaaInYPb8zTNKBFhpYx5BWdcf7Zlyk+8JvybubBMeiNdfHNkCB4RX9S59wL3Dal8b6rkbafdeTj8hssC0+PGx0z/nBQ3uJyQxiJo9g3fuM3TjplXpzBBxpyCN/kWQy9dc0115yJ3XEDh8zj2WHK3vr26/6Y0tFv/dZvnYZGpZP+x0e8VgfkIHwv9Md//MfPHE+cqJyPs6zpr3u0H2b9WIpgEGXBeAJyYuOm7oUUsArGuWj0szT2TqryA8LGFFJEKuRwbYhrinQIR0Q5edP8V2wnUq5xkICPLIkCTi02BxEuTg8EVhp9Ant6S3dGPUqgsA40l85qlApW8/Cz2B5En5R5+IALEvMCMmNHSiZKlkqA+p4Av6zRxDQsA8GXxJjxAiXgJQw0PnFDMoFZZ/SD5cv2gDbQCIlSY7mb4ggeQILnEcpXIlTZexCDF4J2jQ5jb0s0SZZKoovbBO+OI6Bl+CUuzLcsHB9HHRMPxUzhIL8qznIcmsSM8UynTjIOLI4GNIrRJskpxnfhIY2iT5KGxr7VhpB80KDEG3zRiMMXvEpMtoqzy0jMhsu0C8eW47Y8/Im2lW/zBP7QF74OH2iHeRa9OUhjei84RvSL2Tc/ip95kIivkkOSC/iKq+M48XwwbWX+t43OahLi9iX5Zt95iFzMB9EIvkySjfFB9IE2+E+uQvJTMouJm/gtJl7iuyS7Mk44X8ln5lsVHsjwox/60IfOTJnlElMeTjreiGrS9iNlKHmujBPnSIbfcMMNUwJSZxidYMRV/sOpsVNn9kGngA+Uf+Mn6QqjO3yoZKepfBRttI31w+MkXLX9jBfOwkecH2P9YnugrMXXyt53AnQuFTsxfpNPU/bKXXyPi+L3PNSRFxAbnUu5JweBb3w2fjqPfNtFOyAxV9qe0Uzm2HPVvFkn4xWwm0sEBCIZlD+CsQw3ebzREQZkYBzgSRdEAvQY0ozn7dqQLVMEVwGYpz37NRKKeUO5pmxZyt0UFzyk0ZDDXeb3SXO2OD3QkKMz+QgK/Y0exVYhHE2jYnTG5e92IfpkGj7ggl4HpnpeSmhJEviwE47wy/w1kwhImQu+BWICofEjZIIkyVZG78YAvXzZHgiIlb+AWJCOG5Lj+ADxc4GyVcbKn/moPk7oweiDdRLzGov0Q/DOxHAJvpOU1xDER8fOgyDHxNUk0XI8cZbj0CMNBfN0qjzbDdCpaFMe0OBj9EkiEzeTqE8PUo1I+sbwKlyN9u2F8DiGYzg1xm40LVauzRvKP0n4zLPojem5AJ/sI/uzb1qJnx5ihqeWJdGRh0vavukYEd3DZwl4bzl72GQb/M/+o3/FPJC2nWQUf5YHdol76IflkphMDM33JUYSR48+jPGZTAeH+E7zy2a5+EuC3/GWUW3aXoxlhz9ibTxh4m280LnBwxhTcRUTe+FZ+DDuJ/E/LRRf0ZyYdqHEvKlYi95k/fA4HMdb3MsHZnEwftHxYsV2gE8RY+ehMA5o74mf4i+VPZ2hV6aJ33HNdIy7z6bscS18wz2+0HnkfHASvxh9dfw8HDCdM+dmndlN73GmUW+qsq+7mWODDRSYZXPCeI4sgX8MRrK6XqRy/aZzJVKxP5Qdh0UolOvI5ZED4UFRHDdwc9Rdtpfm0K9RZ2maII7TToK22B4oa2UuqDLldwRR6c3F/I6O+d/8yJEESmAqWAsfGH7MzS8XZwdlLy7BiRje8G2AF6v0Y/Rz0Q9csUzQHw0Ze93E8Mn+o085XvzqMh/tM40FZv9Zt9gN8FnL7YXwkWZpDEa/xvkYvbNN4mz7Kk4P6EV8mmksWKVhB4Vt7XcvLsbfZv29juc/HLVN9mPeMpoWKzYHPiV+K76LX7Es/2cdSFzMnyUO4ovy/7ki+8++4ztj6SRRnE6MMVUMJ/CP4SIe4yxEg/azEba3n5FzLHXB/8X2gg/joxJX8TnLHFD+yhy/8O0oNcexlmM784n5mHWcQzpZmA/35q5/s0rGEwVPN9IzwNMOvQEUqp5PKribCyHBOPW0zxM4TwE9EU7vqjnA+QnuvJrtNWmmh6CnRyE2MiF8gDx6O+g1oQeEnhAIdlQOvDheKE881jMLvxnRIhQafwn+4xCL04ckLzk0U3yhAXk1bDS9qBidzKuE1rfdQZHgyRPlHC+9r5jfY4C2DPpKZ/V+oGmmhiTxWiLTG4Omrdq2OH6MGqTXHe6cd95501iS97vf/Rb3uc99pqnxho3Nb3xrYyoav9NYgV6Jx70EOSwBEh/Gl/HD6QlvyvR+5psZztim2D4ob2VPd+LDlufpB/1aBdvzd+m1bLgFcY3fTJyDo3p2GV/UmI+mxtb9yZ/8yembMsaypZP0adQ8cZFt7d9xaE7iLnyTrDL1W29UXDbmr7c8xJlgW9YYa/6IT1HW2gg4x5eJqXAib03gCM3Sgxi/DANypzvdadK6BzzgAZPWGZuYztFB/xkuBMfsu9h9qO/Km35EQxjgwGF5YFv7wUmxFV/7wAc+cBqL3jcuzNM7b3HQMfx1fLGStoBepdqw4ie9W83nbSL/SbYnXrMtrosT9VrEdxpc7m4O7r/e62N7XjnFlFtM73WxsG+98F2+92JMdss9SDkK0ELngx95I1UvaQ97LDfl/8Y4PLw+G34X2wUxj9g8QxgZ4sj3JQxfY2xv37zAR/mos4Wex4bG+amf+qlpnHDHGh8Kjtwr5g+xFN/Ed8W3iKO8wSVmNlwRTUnbj87wU4bMMjQSPtGjg4IGid34L+1SbQnHGuM23yoRrz3kIQ+Z2qnWsQ1fqF1C5/DOOcgDy03gHUt+ba64+Xd+HDfN74tnPvOZN80dPRSEAEbDTOELLjSW0mATqAg63HTzgZscRyIRFNPgN1aVeaSYC5DXuXGUCGycQEFZGn+uJQ8cApVC0KbByInbfkzaHwT2675ljF+B4pzEUdmrLF5rIuoq9q6ByGjk+SAxcROkC5rx2vULzK677rqJt9uYrHINhFHiDtdweg4cw33mntICwyDMtecQfWPhBH4kGZ8EeYwemKbBJ/FAF9QjOrMf3BPlRV/sQ1kZB5zTu/DCC6fz8J9zse4yLNMY4fAkXumZQM8YlYIxDxv9b4iwo+CB4+EVfyCZPCcNw3X33f0X2KYc5gbljDP4xMcqf2XN1yYJZQxbCXofKPPBL5wwLzDiq9x7fHPNykSQn56pAjONQUl35f7hD394CtCvv/76M69b8334Ocf7o87h1V3ucpeJa37PScPcYw1/Qe9JaJj7gUM0An9wAUeMXSxuo0H0Cq+W4xjnHyj/vFrqmnCJ1gj2XRee8IN4JIYTF/gt0BZkC8Ilohg9sB9aaT/Ocbxf4iUfvsdNvy3H5QwRYRlzzDxkgk3xUx0SC+Ta5wLXjevuv0a6en3cddQ5qH/iVI09ZYln9IZurYJtlLuyi/9keIpTuIgb7jm+plGpgUfXmJjYMnzIcT1UnmucsBfyAMK1uDdz0VnnwtxTD9uWkzUnBdyJluCNc9IuwwMcgZw7U0f4d8nVxOkeONMZPg9wOPET7vK3PnZ3/vnnT76Wj6VbYrgcN77G8cVN+GfqXklq4Hd6wY/7Nu9//5niuv0kEbEJuB76pT7NqY6kfJyThOO6oVnOFcpKfOBY2qrKXlmKbfgRbdgMKeMcxMTG737LW94yxUMsMdJR3T/XSbOdD1/Hx9q3cxPDS2rRVXo4IvcMlxk+aSfxuxK2JwHc9nCfn3Y+myjDswW9cF+VnXHYndum6tlRwnnigvgRN/OQhnbhI17gCV94WOCQ+objr371q6f4FIdoEP8zx/tDu1wrnVeeczlH9xLEhnyAe3gS/E+eQVzPn8nNagtefPHFk/b7T9m6d85VfdBhRtvfA0kdsGjfQXIRQFNpaPK/2gfKyHEdT8yvQ5hOE9qstIym8Xc0wn3jL3XekY/wIBQP6Vg4eBJl/IxnPGO6tv0wq+4/bqYCFkiyBCqCEOIsuEaKEbnBjLgQGWKDwEl4zwXOMQkJ5lwROI4TocdKpwCREgkJhsbC2FgstgvKE4c5AOLC8BqnT0IkivlB/WdxcgI/AVIS76tMEJXEg/UPC9swx4zW0l2NevN76Q19FeDRMo5X48PDjvSIpsVzDcZOI2gQPuEN36KcJW0kVPUK1fNAIjpTQY9Eq3UkYE3pFs3CGfsLf8zjCl+GC3yd5ABOZMovawDgdrGdUM7hj0B49GcCaAkiOrIOuDL2pJccta39CL7pHz2RwNDYlfQS4L/97W+fph5Y05PoFD5LjOBeeGneOtHR9BBkEhYCfok2STfHpHUQPjfG2i5ojOFBLNxIEl97QgIR38TRHjrSNW9GaODRPw8gJUkl53FTYqp+63RAfVfv6UgewkYDTPfTAzxZxRX6Y1tc5F/jWxndyYMmfBXD4bHjaxPyl5ILzLxYi/nPPq1rG1prH9HitJv3O+fi7MFH8SNpz4tvxDYsZaYzCrNMQkjCk0/z0VVTy5XlUQD3nI9YXN4jsRczb9lJPFwt5gH8EJenXSZRrnOD5LkHLmIsCUw8OVt4aCgJq6e9zjc6TYxJ7lX6WMwX/As/wqfwLekdL8Y3FUPTQWUsVqJlEvAeIEiE07c8nD4I7Ivvk89IBwrtguQ+mQQ83+mBgKlz4Tv5QOcbjuu8g8+0Ge/Y3LVvdsl4QZAGFUvDKFhVmZPoYXFGCoAwIMKckvHLGBt9pquCJ8us1wbi9mIst8ybMvyNkBESgrSK58VuQJnTtRjnIxHE8TAOTsLAa2AsCYQ4v9GyTKMuyS3rc1pJOviPQ3MMpvGXhh+TqPB/9uUcLA9G7gYjP5OMT4NEsguPi3kC55KM12hn+LCcXFfupvGtgXmaJQDz8Jh2aXAKgDQ4TQVkSbxrCPLLxfYivipxiMBXgC4QNhU4403WY+uQ/6N9TCJJoC9hakqPGG5mnm5Fw6JjmSYZD8u+0/nitnONVpraFu/DfecT7HX+xTwRnYqtWjbaCHqGP0no83/8YPwoXja5eTqwjiP7gc7QkPhPusLHiuHwiP6MyYDE/WIl03Rk4D8lESRzxVPpFW8an8qWH2jnnO33bM6/OBzcX201MZAyZGKdlNdoyUVYJ2Wz6fLBP740w0nkwQ9uFqcX8WF4wNclhlqOo84Gtrcf/pLe8aEj3+o/twvKa9mvpQzpF18jb5UHxMzyvTTG9jHr4Qid0o4Ib5KL8DsPAvhSJjazbfxc9De+1Lmk4412p+Xbgtkps4ZRnnIQhr0KFsbgQwFwiHpVCWbm1jN+GSMxg+V55h7EltcvtgdjeWYqoCYihANXxwC72C2kzOkao3VM0olDYpLpXsvSazPjKXtVU4Nu2ZJ493/M+oZfMBSCqWWS9Pad5KvkV4yz4/iyT+tJru2F6C14NVpDMo1E83PW3NMOvFO+EpyCnSSaBNLhpmkMUtYp9+XeEJLwekLoCWPqt4S8NyQ0RgVHxXZj1C5coRkSlRr5GnSC9dG3sb1A96KBacDZV5LmTFBumSndSkAei54J0O1rFZyHWDJ6Gc0U4EcDE2sWu4NoVbRrHfyvDaHNgUeMPvKDfCnjP/FlP04Xpxfxl9FBukLTxHHiMBwaOcmHjokMfpK/zKv1kvLasGIqU+Z/iXpTHSDGRMO477SJi81hLMOYvEPKK/Fwfh93XIx/fKk2BP5JyPOZ9XMF0Kr0Pk4clY4JZ4s8gBQXps15kFiwmCeUW3wa3Yhvg/gZ7f9Y3ryxzV4Y96sdOnYqTCdCcToO+U+OwnqmOGa7+Dq5sxh91dbM20HmLd8W3OzjF3Rgr73JSqVwBMSXXHLJlEhyrNvf/vZTMsnr8atO0zI3XePQ+sbm8YEUr4HNHc5XEuRf/It/sXj4wx8+NWg1BFyL5eD60lNa4OVhg48WeA3ksI7d/dXofPSjHz0FiI41p6BN2Uvw+ECbV/j0ttwFKGfioRyNb+WDYd/6rd863X9CIegmHnpOELOXvexl0wdQtrE3qTLUAHnKU54y8dh149hJQxngP3H2zQWv0QmejxvOQx0UsIQXgh8f9RI8g1fm0yteHbe++2rdg8A12o5zVAZ6U2nceQ0xjtKrhGnIeW2aHgjcbcMpCqJM12mDbe3HuT/72c+eNNd9dV047d5uIgHrnrkmHxY17irHPBcNUz55Sv+sZz1rukdzfLCmrI259+QnP3kqQzqjocb/xO+sgnvs/rsmZWs75YwzT3jCEyaOmbdPWse2EThNmy+99NKp7vk9h2uJhrnH6rKPwB1X4z5Jc6bOaeDzUzTLsmiBc4SD1Mesuwp5xdQr1OoVvhlfV51yLsrH94vo1KiLOW6m8T1+q5uB37jrHDRIf/RHf3QaU/51r3vd9Nv/edi0CfgosuFxxANz8vOpu+7NZZddNiUIx/t2HFAmyvcrvuIrJp3i+zTM+CftgpTtYbCOa+O+ltcRk+Ggc/EdFPXtRS960YnEDYeFBq2hdnzoTJkedxmug3vsfOiWITuuuOKK6X6eTZkeJWhIGv3iC2XvA3G+oeJDq8s8UUdog9hH3E5ntDkNyafd4vrU8bvf/e6Lr//6r5+u0ToeOoZn9MX3VNR/moZf2j2+1YDz2rWSu4Ht1APxhf+/+Zu/efoAMQ0BH7rGU0N5uccSwO985zunst/E/TVEgGOLw1zvSZdh4Nrda+d0+eWXT8NxbErH5wx137BIX/3VXz3lDfAnPaDxTXmNZeaeiS2sKw4Uz4vrf+RHfuSmNY4XfLtvj/mwtvOZU1KNXqjTOpw873nPm84tscbcoX4od/cXP2iI+yvGMh64hCidCTeiV8HImeX/1DW644Ei3TEMzgtf+MIz+mD9Od0n+UXD1YkzotFzgDIC9VFMyrecBP/dG7GEuIs/MkQpvecTQRm/9rWvne4bn8iXvfSlL53aJ6viJOWv7rg+GsTXfsu3fMv0IIhPs8wxtFH9tp5ttC3CO9uHd46r45f7BDhMt77v+75vFnFFwP+4hv0wu57xClUhM/P73VAFlkJTmCmoXUGu33Qu5CrOHqvKE2djxW6DAyHOnCsb5xknMv7HaGEQ3oymYWedJJCW98nG/Y6W9WPR3XWIziYJZp5xNizOtpgnRt7gIsvv5f9HGzHqlHllvsyBatnuAh9oDaMV4VD+OwjCq2UD+xw1LLo0mmM7LozbQrhnumxZHs5Gy6pZ88JyubF1y/ezdRjXGfmDV/Gl4Z/f4zpFMQI36Fb0EF/oFO5Ev5Y1iq+UdIh5+BujS9GkcDT+dZWPte+cg+NHG4vTCeUfPxr+7ccJfIpPTE6l2C1EJwA/Ek8xv/NfNGcZWb7qv+jeGLPleONxi+3CqrIeMZbtXuVseTiyHF/FwsFVZlvTwDydGuP45Vh+v3OfE2bZAtmrwgfLhaKgtunGHwbjtRbbjWWOhucJfnaVw6cVKdvRWbD8Xg566RiHFIcVg3U6YP1ls42p/S1rY84py7IOc4y99MZ/2X+Crexv1fUU84NyThmGJ3uV+Soo41iCIZZEQbFbCD9MGQ6FP9GNo8Kq/Y18YzmPvZB17G9V4E+/THMNxbyQ8ls2ZcXoVizlG1O2o76FU+ssx8uUZd/ZNtyrjytWIfwIN3Bm5OCIcCxcDq/GOHHkmPksz3/L/7Nw07Q4vQi38G7UwL0wbmPqd7FbiE7E9gIORL9ilsVW8cOyGESL6jO3DynHlPVYrsHok1jKOeWeNuFoHjyP7cTs3xTHlmP0cG+VLo3nleXb6vtmddZuorGBjBlkmIaMY7UObr4x4mNek1Boc8YoSCHtuKzYLUSUIOJkSogiSNsqHsX+oF90LOOgGb/Rq15ewTz//POn+Yzxzuif1wZHp4UzewF/YulhZbgFr4EZfsQr/l7/inkd8Ta3uc3ivPPOm3TW/87Ra9qObfuAxo7OknM0JIlXEQ1347Vsr3XTXa8jJrlVzBMCGmXk9XqvJDPJK8vHsl4HehbtSo8+QzkwXMc5/9Wn7Q7CiwTFox2kkX9Y0C56lI/PMdpo/G5Ty/fimPMJz70R5BXbG2+8cRr25n3ve99k119//TSMwzXXXDPpmCFZwHapC8XJgSZ5/dirx8y8+D7LlKkyM5SHodgMe2KYD690m/JPGTbEOsZszvaMrxrfFlPmAV7hF19oKCZmPhrnN91LY7I43aAVNMswfWKpxFNiL7Fb/GR0FNdopyEqfWfF8DKGRPKhz/B71Wv2+Gt5khSj7uKm8Z8NK2CIQefSdsXpRdqdSYal3bkK1sU1cTxOiu8NN+J3sRtQxvwV38WH0StD1RhWll4Yn9sQRtp+uECflL/vUxgiEC/Mp91Ao+jQKg2yL8PdpC3rWDkmDq6L24p5gY8RJyUG43+U+Qh+Do/kDswnTqI3fBBu5bsppvIOF1xwwTQcL/M/ntgWd/g3Q88YijvfHuMXxXDxj4nV8FTel1aJ9XyfQ1y47De3BTf/zo/jpvl9YZzOTUEFJQTGilRIxiVVUARCIDMizoMQCL4F2gJzY0ETDQU0V4wOUeLCtRp7zzwCszEZFrFDQBXhJS95yeL3f//3J7E8DNwz+771rW89VRwOek6k5Shcq/FiNa4I/i5AebvXys+4lO6/Mk95c24EKA+SBOaCIUK4bVCGHK5Es2tz7XPgGO4z9ce4doKKw9afs4XGke9ecECmt7vd7abxSHFAMt69MnZdPtRqfU6JQ8Mb2udeOv+94F4z69omiYMEXfbLITqOseDwUFKegxQ8cYacp2PbLokG5edeZYqrr3rVqxbvf//7pzEBjQ8nWKO/7q//rTcGaUeFaBjfINibk4a5965ZPX/HO94xTTdxD84VgiVlrcxpD1/iN77gCt1JfVnm3PhbOeCIZcapldBSHvbj2unZnPzLQeGaXIdvKeQa56RhykfgyUccl4aBe6BcnQMOPfjBDz5zTu6Te6YOHAXsSyKLv8yHnMSCScgzDzdXHTP3iA6lEeF+Pfe5z53GVTYms2T81Vdfvbj22munmFEMKegPZ12n6abK3XVoBGuEzMnPu3euGa/cJ/fjuDUsfOKvJA6cQ3yRmEl5anBpgElgKltlZ/xxD1auu+666aGL5WJIvl57wLz9mDJ6xV8lGR8uOT5YN4l3XNLGMMZ3/Klyc2+Osw4eFOoOfnnw7nrm4oecC3PPNKw/9KEPzeL+KfckqXAPH8RINEZ8NML5RyPEPpIV5m1HF3GDPxVfiVO07XCLRVNcM14bXxdfP/jBD55JyIuj8rDIfkfgnOX2IY60f4l/v3HZMZyDsncNdM6x/H/UoMv0Sxw2pzqQ8nFO7qt6u3wfTwPwlp/R7lD/8VNsRkPjM1MfGW55oOkBtdgCH9NWOgmoi/y+NpF8yJzK0P3DL/GzdpBz20QdO0ooY/fRPcUD8ZTvPohz3WO/84FM10c/JETFSHiBE3JrdFKSnh/GqZjrjwbaDw2iSdqI2qP8pm3ds7n4I9rlXHX22JROng2UFaiTykCS+ST4nzyk8uKvlS2e6MTnHN0vZeseMuUrRhKbOV/f+pR89/0UenTb2952+o6K71kYp18OBPdwxfb2r/PEe9/73kl/XLf2KS5azjfSLxzl65QZ/+ke8Z3iQB1rdMSYk0/yLdPEsHvhaFpPRwCFSwQUSnrGC2zc+FVABMbZKjAFtSqAmTPmUvmLzQCnw+v85rBMVU7zpn4Xuwn6Rcc4HaYBJQE/9ozXaE6SKU4NNzhDTmc/IccvhkfW57AEP4IuDzPX9YxndJYzlIiPQ7Q9RGM5Y1PaKkAQmHG6HKakh+QI50d/BWBzcoTFJ0JZKiMJKYGxoNrvgzYoomd4JhBjeIozpgx3i91BNABH1G3TaMJBOHNYJOGZnvGm0UdGR/Fvnd90bs5TEE+TxIgSUxLMEmhMEl5Dc1XPeNuz4mSAU8ouvdhjEpiMZilTvaU02DT+JEWUqzcelDPfJHmgkeZ/bYRsn2SnY9A+tlze+CWpzRez+EX+3DzdO0gDq9h94A5eiKHEUkxCHk/4wvjJAL/pDH4mjsJTfMZN/MbNUVvN464HQ+HtyFmxnuNrO0syOX7bFacXY5yGgyzt0FXAL0lWPBTf08z2jN8dhA9pFybG8kBNpwdJ+vSMB/rEx3ogI7mpk6R5bQZth2jUqEE0cLlnvONYHqsmbQ+09fmblDf/w+8EypKfwSO5A1OxUmIj//FHHkx7KO2j8vIdPhwsGe9hEK7wl+kd73jpGZ+HgXn70dR5JL9As3S0EANK1qdn/LbG7rNJxgdp8CGC+TEgWYUxKbANiU1EyTW5vlzjaMXuQHmO4rBKKDhJ3DWts9otxKElESAJ4DfL/KgJ64AXB7FRR87FViHHkJQQ0AmuorvFdkD5KS9lyJRfHvrkAVAabinvWGA+PMFdARoeC84Z/72OQ8V2Q9njj/o/WjRg5MthbMSoQfiFTzhGS03HBsFBMR5n3XGL+WBMYtKk+Jt1Nv6/bn75dzSQLWseJFYzjR/ns/lxv/N/UUSj4gPTfg1wKnwOp1n4F/97UIwaWRTLCD9oVOaX+TJqnSn+4SKNxNHD8LGYN8IFPiztUHoVTpjigDhOuUebVvnPGI7wmRAeBdFDxxntIDm9Yh5QtgwnwovE+Zb7jVPKVHmbjjFSeDbO+z9tRfywv+Rww7vwy7xlOY9YuGY+vhRXTe1rWzG7ZPxhoFJ7auMJLlPAYwA0JyAQ8/Qnlp6oSIRUiBSyF7sB5TmWL3EZHZegnVDhsV4xo4MstgvKVU8AdVtvdPXba12e/sY8AY7TiMWZMXyI+Y0bnvbqga63iqfDcWwxnMn2Cb6PEvY3Gq31RFpvQ8d33GI7gCvKz9BCTM8DPYP1RDB+rZ56XvdTvnrGjLoUw1dcFwzRM71g9F7WY1lPZj0k4svG4KnYftAX+uP1Y8MAZCz2jNW9ynBKzyo97vR20fNFDxeGW4nbRo0ZkaB7NJxax6vwMkG6GMsbQV6VNfyEeTptvWJeSPlnKBo9nuiU3nm4hHd6EtOqcAqf6BReJtlAv+gYfUvvPtvbNmaYFK/g46f1bRuNG30aDvHlXru+1a1uNZnehHqBpTFZnTudCF9xQdyHF2K+DDUINFOchIN4y9eax/Fwdjl5vwzc0nPV2xr0zL5pXICz9FR8KC5TH5Z1tNhd4Ae/mKRUDEfSzljOLaTNwPAHZ7whhkO4ibPFboB/kkz3Zjb/Zcqn4Ud0Qq93PZD507QN+GDL0vs4Gsb8hzP0K3Fc/Kbj0SrxluPpGW2ehqV3vmM3Bpsv+CRlqmxTxtqO2oVp/9MdZUhb6I/2nzfvDb0r3tYzPm/d84nKPPvir/BJHCauE4vhnSFx7D+94MfkPK7SKtrkf3qFn+k57/y21e9tbU1ww1lIoVAENhGDOQJpJS6Mh8kk5wRw6aXDYY4BVrHdIFREKk+UlTHBGkGYiAqB4wwJTbGdUN4cjrptvMZ8eDAfaDXEgjo/Bsz4kGCY4xuNM+RcBEKCH0lTgZJly68L2j4NuqN2RtHaPAXnLBOgOYdydnuAK3ylBBROCYYkVI3TZ+gO42pLFuS1P+viG51K4iA+Noko/BZs53VEPi4NQessNwKL7QUNoDm4kg+g+mbAVVddtXjrW9/6f5jlvqGAX4aKkbjHNzEbn6fRH05FY6I3EB9KM1n86F6NOP/hnvX4Xo0BYyxneDBjV2oUtiE4T/AxdEfDjL/TSPOwB+eiUXiU5LrGHC7hJY0ypV0ZP9T/OJftDWVjrNH8NqwNf5aEQvxpeIhD/HY+PGbKt+MVnkXritOHaBY9kYQX53korTOGZBTgszjJUEp0EN/wN6/d4yy+rWu7JuGhI4ekhofdGQInkJxQByTQdNzQLo6GFrsPHOHv8IJejQlPbQxm3nqB9kLaDXww/uQBJv3F2WI3IIbywFAcxIdJlorTxe9BfG6+YcF38r+GLrLcQ+0M92fqQbg4joZpI9AgXALHo1PirQsvvHDymebpF61MJ9S2DeYLZalM5Rr4KFNtfw9hYsqPJQ6SgDf8zD3ucY+Ja37zhfkmAR0SZ4n76Q0eicEMGSmuE+vRIPFY8mG4grt0jS+1vf9sz9fhJ0snsrQhtg03+/hJH/isRyE/akQsnve8500FKZBJEOK/8TQtRxT29Kc//cy8YEeBEJW5IaR97GMfe+YpNWf5wAc+cBIrRA5cq2s0TSMVKTlHHz+QLDnsU2v30TEe/ehHTxXEsedE2iQl3/jGN06NLMmgbYd7jsc+dqS8PBm+//3vP3FAsASSGZyehiNIcGg4ahBuG5Sh8b+e8pSnTIEhjuPYSSM6ImiQICL+gs+jhnp9pzvdaeoJwPkIUAQ9eiFwTKug/glokkQfk1HuoYCH4YU6KwFw73vfe3J+rsm1cXLqtnnrOA9lca512/bOy71yLBpLg770S790Cs6Om6Ouzz1Rh4w9xznPRcNw3f1xT571rGft2bieG9Jbxf3Eo3ve855TwhLHBNQ4J3B3fa7T+nQt9Rs/Xa9yUMfe8IY3LF784hdPXHEPcOiw/uqkoO6oQ5deeul0L/x2/ieNaJhA1NjYb37zm7fmnvIJkpf44n6qw0972tPOJApwC88SbFvPtbLA9Y/Yq86P61oPBzUiLLd/vOSjNCo1Mo4bPmiV3mIncfx1cL+j95dddtkUR6vzuwjXqn4z2vfd3/3d0zdctEFwJr42GsfcG5xl3//9379429veNiX2bc/Xq5vWO2noDGB8Vm0F1zmXMoyG0S2N7iuuuGLi2kn7b2WsR7s4ijYpSx/ZF8tpn43nFw3h75797GdPsZs67EOI3g7TE9D14Q/T2QovvMXxjd/4jdN82nSSW37vd/3uGd0U9zg2zXzEIx4x8ZWuAp8ggYaTrkeixENQZb+J+yvhQr/EYa73pMswcK/UQed0+eWXT/dYWe06lLkHhjTLtT/gAQ+YyuhhD3vYmTjUvWHKiuGue2WZxNYLXvCCSffn4JOSyJULkoybU3vYvaZbck3yVc5tDrq/F8RWeiy/7nWvm+J3eoIXyp6muSa5Fw+9aQkfJyehx/JYt2kPDaJtj3nMYxb3ve99p844NFPSVWc0OhqOMcdQB/Hy8Y9//BSLuWcemEuqajOcBLTN5WSMX64851KG7hfwDcpLmcyB//wbzX/oQx965hxxAFfwZz8ofw+gJc5pDE58y7d8y5R4d//tAycTr/BvNODJT37ytK3l4aqyEsd/27d925QvnHOc6jrVt/0wu65BbrTCdfLm3fyD4jDrHjeIEgIhHWIx80gUEYh4jUD63A/TOV9j8X9CeXJeRMZ0WfCVbzh/WL4X84KyJryp4xwOJxpHoexxIPU8dV1CQCMwDTgmeGLj/LhsXG57QRLDoTjKo0bOeRWPi+1F+DdyK/wy9V/WMR39ED6E87hu6neCqnLldIMe0aWRW6u4lvjGuqY0DMdiZ4txH6MVpxfKPzyMhXOxEfF58eV+j9rGLCu2F6M2jNqT/1ZBmaf8Rx6s4oJ90Dj6ZnqY9m2OM7Yb+VfLAueMw4kFzRenC/SILkWbWBBejtzEGRxMmyG/i90DraAZidFNLUu5A91IbGaaWD+gVZaFL1mHmY+mZV1cG4+XtsHI0ZGPxbyhzHFkjNv9Dn/2g/VwZdweb1jmR75Fr6Jl4Yv9RLesvyuaNZtkvJtMHDw18+TE6zF65qx7SquyM0/5PA1mCnNOBRPy6W3j6a7ehF5hzJAVnjQ5/3VkRj5PHL02pieqJ7HErAK2HcBPYqH8lb0eVPhgecApCbDzuqrfxXZAOaq7en7G9ErzJoQeS+q4V4uVP6Te0rnonfLOa/ReXfYas54JeXXL2z56kXkdiw7QRcusm2Ef8uVxPZRppifqR4VcYxyggEtvAr0s9J7WGwe3/e8/fF+nZ8U8kSCd/uAOrhnCxlA2DP+YXjKW692AtzjMBFI4Tt9M+WJ1wdshegZaXpxeiFn0gGJ5PdWr0BlzXg91r6jSPMOH0DRc0zNLj1JvydHKgwI3NfzETo6l5419Og6jn/47zD6L3UL8L+0bDXdMww3r8YHxg4nd0hiMZXmxfVDG0Qw+kI0JK/9pi41Q3kksSF5ZR0897VdG6+wj64qLxEnae3mzzLJVvLFMLMVvMm1H23ijWc9E3y7gY/GRtjo3bQjH95o+zdOecF3F6QDO4IleyRkiCTcD/49cww2xHs4wfMGlYjegrOXDkndiYvP4MJqhzL1Bk++RMbE9/dKOXNVjPX7RlNZok+btbdtbNibeIdxzbLqFo9oHdJPOFdsBZeptGvmGfPdELC2Gz1R7ERfkK+U1xN3e0GIZisZ6+f4PX5t4iyVfljYl/sYH+u1/6+MYn7tLPu7m3/lx3DS/L575zGfeNHf0UFkFtZI7REDSSeVlGvQjrKvgFMSv/dqvnUnGmycGGlpzgGANiSTkXINXr/75P//nU0DFvN4jeUeUXNMIvzlLxJagkwRB8KuvvnpynsvB4X6wP0Q2ri8xJIJzIrKyV6Ya3xrPrnHb4ZrwUvISD7zCasgSFidEkCRSXTdh8sAlrw9uG1wv4fRqEa6pu3PgGO4zwYF7LYAg6OcK1+c6vU4luDDcgiEIDDslUa1+S8qr97QgSN1NI8rrzuq1V94NR8Nx+W0qQcV5SUzRN+ePM5JKkvYS8uqKgIpzxCvmmOeKUZOUrevN1DALXvNL8oLu0jH/2e6w+nQQRMPUn4x3OBcNc93qrOtWbqbbUoeda5LxuER/M9YyXcrYkfyQqUCJ38JpZe83fZMwwAH+2368+h/ez3HouFXAb7wy7ACu+T0nDVPf1HVxwVFo2HHAeeKEJBGdYPRMoB6jZ7TO+PMCev97jdl12lYHBmXhHuxVHv7HY8kw9wnvaOa//bf/dkr001g8tn/rnUTZuhb+QlyoPOeC3FvlpTzcn22MQw4C1+U6aZ9rvutd7zqViXtgOa6NyYv4vsQ1Gp/iCBylf0nezkErJF5ciw8VO/e5lKFzyf2V8OFfzM8BOS+cp1PqqBhDO02M5h7qBWg9Zcz4RVyQ9DK1LW2TlLIeP6IccExbzvXyj3glTsafVXXMvvhT21pXG8L8U5/61MV55503mXNzXNtaX3LDA3Pxo/avNoQHn5viow4n9Mt5zKUMIeXjnDzsVZbu/y4jXDM0Fb6Ku8Tnykib0/+juT94w7e6P+GL+6VtMYekvHoiF6TzohhyTmWovuGXGIMfiA+ZE/iqJL0zdIzOn4bdcm+ds/iIJmlXipNoBx1h2gC0bNmnmU9ZOIZ7oPOsIbKiY9qe9M5vx8JN9wz3aKbzcV72n4eIJwHa5b5ooyvPuZSh+wRiQ0lvMcYc+O98aIU8JF8jJ8nXid/VA8Pp8Gl4ZYpP4vnXvOY1U5vYkMym8ha2kdewntjJvvGFX1Qm6jwto2NiM/7Qf9bFF20CvtM+xRJz8kHLeMYznjHVlf0wqy6MCiNjCmlAEQg3fBXiWCQAVG42x57xAjhEEiA7V85Fj1mBsoDPMuutggqI/AgrCWLKUUb0ivlD401AnSfTCegD5RmHxIHNqXFe7I1okJ4oMcGvRCVT1zVY1P+sD+pvghrlLSDizNIrXoKdo+KwBDlJTOkhSgMsEzQLmqwnwMkDHY6JozoqOOcEUqYCKw+XNAgl411nNMx/9HednhXzBA4KcvhaGiTACp8kRvGT4dzYMx7weEww0DkPngXb7Rlf4Acfp9HGxDMSAHnzAq/oXt4EkjCnfxIDGiK0T3BPKw/aWBKY86npha9hGX0de8bPoYFTnAyUPZ7gJqNnzDI2ciO+Lw/nwDS/WXx7sZ1Q9jSDDzTNwxWxWnixDLG8NqeHMdahb+IvRl/sJ8ARPlIsaMrW8cYy++Y3mW3EWOIuveL1kJegx0nniKuOleNLrGpP0MuDamax3cAZPNHe0A7BF7wMlnmGF2K9+GR8wfnyZTegvJU/HsTwY+xgop2oTakDoCkTK9GP9IxfzjXRGstMrSORL0bTVrC9bWkSPeJXaZRzif/UHshDAtqmzVhsB5SrmFrb0IM85S5HIV7PW/qS9JZbR3vRMjkNnWBM5SvE/OJ/8T2e8J2Jx5Ivw138yHx8p/+tR6vwa5f0anZZk1R05kYf5mbPrWCcT64lluCdRaj2gv9zH+Z2fcXe2K9si91B6maCDkFGAh/LApzIMmY+msfJcEycHmeTBiGn47/x/9GSUGD2sxxAHSUSWEXDYNQ5x97k8YujR3xLyg7PwifzKdtY1g8XMs18rChg5BbDoWX9omss83iXdU0Pg2U+QvQz5pyK043o2Khl8c2r9Gudpq1bXmwPogem0ZtwYh0fRv7YJtPMB7Ydt9+PL+N+R8PNxJbh6TJfx/WLYi+MXDmsjy22AynbaNKy9qT8Mz/G+as4kXUh2477h+hdjrX8G7JtsT1QXngxxutiacsyHXngt3XycDv5jDHuz/qrLBh98LLtEmaXjE+AIegYg4x1GBtYbJWAnBRCXBYC7nW+yyQzFXjpJeG1jeVe1cX8QVTwIDaKDERocJ61fLcHcRqp44zzSZ0eHU3qtbJOYyoNK/U6dZxZflAcN19yvctOlZaZH6+/2H7g6eh/GM7GN4ereJFpgrDwonwo1gGHlmOckWem++lhtDVaGI2Nni7vl4W/xelGeBNfHFvFufjyYNS8YrsRHkQXTBOjmfq9jMT0fFw4MG6fbbJvfjDbsGU+jbCu/fKjLPPZDsYYMueZc111vsVuAzfSDsEXv/fCyNPyZfeAA+FDdGTUG2VOO8RD8Xv046CI9iSmGvfhv2VOObZzyDmNWlZsH5TvGGMvm7fG8CLrMpqzDvGR4Sr+pu0Ynlgn/GJ77W/bMJsx48FNNnyL1xFUVEM+GH/Ka1erYH2vvRgLy/ho4HUG29zmNreZ5omD17A2Acc3rpkx2rw2eMEFF0zjGz30oQ9dXHTRRYt73/veiwc/+MGLr/iKr1jc7373W3zpl37pdH1IGjLZR0jqlR+vebzxjW88M3TFVVddtXjb2942vfLhVSBDCCyL6kFg/47XMeOPD+63cckuvvjiiSMZwsR8yv3Nb37z9IqPV3i89sU8QdxGuCavFu3qmPH2wblkHDzXaliOSy+9dHG7291ucYc73GF6lThjnlnfU2FcTtmq35dffvlUr42nZmx40wwvo+zX1W/307GNR49LxrozLv1jH/vYSVvufOc7T2Os4df4iuq5IPcupozps9cMGT4bruYe97jH4pJLLpnOxyuRXlVzr9yHs7nXq+D4eNUx448PrgOHDffBvNrsoUuGGjGcCC4qa9wAZcL3qguW2d6QJNsA54tXHTP++KCeuJYE4O473pmniTRWPKVc3IMRfht7lLYayovGG4rmrW996+Kyyy6btNXQN2Ir/9kns/+TKteOGT8vuGY8M+yboZJcuzaDMZhxLvF5DAx5ZOxUr/jTvujiHLRCfcGvjhl/cIwaZF5spzzFbnwXPoh1+APXgBPanuIdY9uKy7Tr/Of+m7cvftLwDa4XxIYs3zhzTPzBs/hP+9JOu8997jO1YzMWuPjOus5P29B4ueJHvBVzuJ846bzFkTRuU+iY8fOBaxbvP+QhD1k84AEPmOJxQ+HSAMujSdbL/cGhtIP85hvF7Lg+B5+kDnTM+LMH/dEmNEa82AkntBsNcSW+omuGO6Uhyj3fiaJTrms/uF46I/YSd9kexPq4ZahpGqQMo2vuG92jZYY5zTcL5LROAh0z/tzgfol7DE2UGFzbBJ9wSy7PkKZ4kvX3gnoud3T/+99/yqWY19bnd90TfDLsDV8n/sIfeVF8xbm5YivHjAcFNto6hLDjmFgJdBhHZNlRJaWWkeMTPY6DeQhAfDhCTkSjS7AWszxBF2FKYBcQMmMyCfAJFFMRCSRD9jmJRrE/OD7cyNhXfo8gMBq9GoMcpKCo5TtfqK/qLVOW6rPkN8dujGyJassCTpRTVc6p3xpMHgow82nIW2+vwM6x6caoeYIbx6c7kqK+nbFJzWP4rLHqOK6Z1hnLlAls6C9E54rtBT7SJNyNVgm8+CaB1/LDYfzgE/ESDyQmNsXHYjeAO4LpaB8+0UOcY/i3F8RE1qejOEpj8dJ3dmishqF17N9xWH1sEeBCvlWFM6Zi7XLk9CAalEY93ZGAT/tLg3+ZD3ycNp+kvLiP3xMTSioAHct43PbHD2YcXFPriRVtM8ZK5v2f8b/z4C7rOA/7lACTUNVexFfLEm+aFqcH4i4cxBPtgU3mPop5I+00HNA+0zZM4jkaQ+fESvlmgJiJRtGOg0JcltyFKf2xLwl2U8uCnBOtxFFG48a2crF9wJnkNhge8UV8Jj74Dw4SS+EH38jn4SzfiiMBzqb9af8eAuzXNtgmzDoZn9/roPA4oAQ3+ZArU+ktT2C0CTi+/XN6SUAInPQa8DSH5YvmMYEXQbRtpoEGJQILADUOkJohH4FjGpXFdkDZCqDxQwITR/we+a3MI2aSCYdxhsXxI2UaU585DYGOAEM5W5Z1OZAkixL8SGJqQDHzCYKsZ/29NM8x6Rrdizk2ByYI9/uoNc91jIbHMcfmOPPwUfBHf7Ou8y22F+Ev7gp88FigvfyAeITee3iIB7jqd1GsA73Ds1gSSjiHb+b30sToKx3FUTGUQF2PVPoqnoq2xooiwIflB4xi7b04V+wWRg0CeiLJlF5/5sOHxDYeNKdThLhP3CXe4e/8T7dsx2iZeElbIJZE/JiMT8zk/zzQ1pblS8f2oqSEc5OQZ5Ig2g/On36y8vf0AC9wMA+INtEOKLYH+CD21ibVNjTFDcsZbRAr0QzxEqN5y7H8Otg+MZq4y3TcF7N81CDHTX6O4WuT8duLcAhvGA7wdXkggw9jstz6Ix+Wwb/hBP3C1+UHirZ1jOyfz8PXvfa5TZhdMl4gIjhRSROggIq8CmPQoaAEKUjA0jjbBBwTERwPAR0vgVcs50G00lgciZP5XJtrFrDl4QJiImNeY0yQV2wPBMcRLDzweyxDHM/vcb6YJ5RfHM/ohDKfpE+gTFOv0xhL/Y4tP5RbB1qHS8sas9fxV8Gx9rO9QLeiXY45amDMufpvWfOK7Qe+4jXLg6cRyhsP6d0uBUvF8eKgvMFDsRF9lYCI1gLttWw/TStON8KTcMfvvcC/Ja7nk/fzucV2gV/Dh8RqyxpiXvnjAZiPv8MH2mUfYzsOp5jl8ZvWY7a1HRNPjZZk13h8emefiSGd336cLXYb0SQc2q8dgEs4NBo/WuwOcIBuRD/wIlD+NEi50w7m97lwQLsg2rZuX/gZXuJr/WYxAmfxld/D15Ef0azwVZyW/PAuYFZX4sbrmWLsKmMrm/cURLCiYFTkBD9BAhRTPTSNr2eMrPPPP38ab8+4tXqoGz7B2PIHNesbVsaYRcZhNoafcaEf+chHLh71qEdN48Czhz3sYdNYbcaJN168Y+oNr5eo4+rVgDBJYIxwXZJYehjqfaGnrHGQjLfEMl4UIR2DPFbMHzgpUM7Y3vgpuE+AvdyQw+2W7Xyh/ur5feGFFy7udre7TWN40hpPcPWSUrYaRMo9Zar3kqES3vWud03jnBnf09A0XoXPK8YCF45F48qbNd6gMd4rHaJnjmcsSPZlX/Zl07cojAfIjNVumwTTzPHX8cjyBGemjm+cyBtvvHEa/9Br+no7Zx97BUv+5xRdd3o64DrtffSjH714xCMesbjvfe/7CY1F57lLDnTXgU/KTBmGo8oa5/S40XMPf4viqEAr6CmtxTP6So9GjPpGr+iWmMkYkubFVEC/6leLs8HIGfPjbzG+9sC97nWvxZ3udKdpGIDl+L7YXuh5J04Ts33gAx+Yxr8dOz6Y0qToEr1K7CZu4zPFfr5X8e53v3sy36/w/S/Td77znVPPPtrExHtiSt//ETeJ6wz7p/3pP28eeqsyvU7Fbcac11707RbtRG3l4vSC/iQJmpwDhKPRMD5RLkVbxPcxrr/++um7ZTi1nF8pthPKXMwu/5S3a8Y4Sj6JXhiBwRuEtITmaROeLbLvvXCQdYrTA3wIJ+gWPypPJn/q7R6+1hj0YnocNaVTOCt/gq9jXLbNmE1WJE7CK6ICHwGG+QQYnEee9o4FmHmOxzANAhiD/wuUJbIEMhp1EuPjcDEHsSTkJfTtV6Jd4v3Lv/zLz1gSZD46IGnmmMgkIDP1ahCSxXK+zDVLxgvaXKfrFQC6dgmyfFgjyfjxqWIxf+Ck5BXuCaY12CQukwiViGcJgJo0mDfUXwlI+iIJr76bF+SkB9VyMl6Aw4lo1El2+8iWRLwHjRyKOp9kPBuHfdHgpzs+viMBnyS8DwJrrDEPAMdkPM45/l4YG5TOwcNPgTlzbs4ZXMN+fJQ4k4R3D5x/khQeUj7oQQ+akhX+d36u0/05yDkW8wBOKTtlqKzpmbLGU+aVQuXa8iyOCngmEM/DHgH6XvwSP9EtMRMzbxnQsMZMxVEh/lD7QHtAAvWCCy6Y2h60stgNSJRr7OukkAd8idnFTmwEvUrsJgYS54ijJOHFfszHgX18TiJeAlSbjzZp24n3xJQS8eImcZ2PLeb7Y9qikvAeCGgzihvpnPPSTpSM939xeiGuThtgOcbOfPIscgnaItokEvEeOGmTNBm/G1DeYnb5J4l4RqMC5ezhno4MtEOCk+adSzK+uYvisMDTaBPNEuvLk/F3cip0ygNnvg5HTZM3oVf88K7wbnY94wUwxMGNJg7pgbAfrEN4JD7zwVTzElWSZApZEuGgRrj0AJRs0CiU0Bdk6QWjR6xg6S53ucvUC1SyTFJO0t462c7UseMgTcdr8ds1C/AEZEnMCwIZ0mVcpARtxfZAWUssCNJxiEP0OwF9yl3Zgmkd2nyhDtMGjSONJE9vmQSlRLSyZRpi6S0suFGnPWDUcFKv9UYYvwMRHnA8SUTRD8fSyHcMCW5foGfe0mEe/PkyvfUccwzER+BhLP9b1zlq3DmfaE40F/yfROsqyzrO2T1wDrjufGmjJIXzdLw0Asrx7UK4koc9THkL9Jlyt074AH7jgm1M/S6KgwJn6CkdFJCbH/m1DG+a0dME6fRWLAXRnaI4SvDP4gA+WO9lbY/q3O5AXERTxEQ6U+RNm8RNynr0e9ErMb7xbi23vWR+OjpIfEp6fvCDH5wsOsVsp+NY4iZxnTanfWnDsuiYfUu8ix2dV9qJ55JIK7YbuIEXIy/DzRH5j1/EbW/tpm2Cr/WVuwFlLE4XP8l90Sa5qCD5JjrioaCyF0dpg54L8Gq0otgL9Caag5PajGIp8RWf6qGRDsn8HH9pytfhrCm+7grPZhc9Khg3l5hIWBIMN51YKAABx7qbH+fjf/tRmArWU5blXu8HMcl8AZFEqmAIQcZj5DgIM1oIlv+QLMk2ZGISYHkimR4OlrleDrPYHYQn4QzgUbhUbA8kigQ4gpski0ZN0NuA81CvTfU8oFu0TP3XmKMpMU+BNcL0gvIwLz3iLac/tIeGcVKCK9NlzfE7x1/mmv8l18ev5tMaQbgnzuN5cnY0SUIrT56T3KK/TAOQli0fk+V3pu6LhqsEfRqV5l1Dub8dwFecT/KdhfseAgn0rRMod0E9PuEVvvhdFAdFHvikAbkqGZ+Yir6lt2gSVBlOoig2Bf4vHBz9YbF7oD3anWmnMfNiOvqTmMd62m5+iwvFboY49XZjTIyXN609xBH3mbeubbIvfBIv2r8pPfPWdOI2cZxOHJAEa3F6oLz5yBgfyW+u40H4JBbjH5N4ZaOGhX/F9kN50o+Ur/kAV8TyacuK5XFIe+1sQYfSXrCfsV1QFMugVfIBedis4yEuRsPwF2/5Prbsb3cNs0zGRzQ4DEFHEteSQhzJcmH4zRQiQUhApGAFOQIeCa/0mD+ICZTGVwQl5yXICA2RifCMx3fuo41CKHBiElzphZox/4wNb4x8iTGNSdeR/WXfxXYi5TeW4xgwjfPFvKGs8oBPTyZTb79YztRX9Vfd1ttE40mvJYlJWsboBk1h6Vnvdffb3va2U+93PaJoj+V0iO5wVAIniSk9kcOjkVOZj2ZkmgCcdjoPDwJpjVdUjbHsPPPqFxsbnLTJNMl5yVVGx+x/FXIvaKOAzP3y0MHr28z8quRaMU8oQ409QTv+meI8/jMPqK2T8sQ5iVF8UQ/wra/PF4eBh3X0Ds80EvFuWS8ST4mtPGhMhw2xovn2Ei02ifjYJDn8LnYHiWMCPi3fMjMUlnkJAmWfWChtQtt5SK0zhbgubzSK7/wezTJvVWtj8qf2kYRYEqV0TgznuIbMYXTO8Zd1sdh9pMzTOSJtA7mJdaBPeJSH1qZ8ZJJc6SxU7A7in6IjyasBncIZ8RXdkRT1W+x1toh22QeLjhXFMmgYvsip6nzI5DrkVJJXxV+aJec7PkBcl3vYdtzs4yJ94CjyuB2/IEUi3VSvTk9OJKuM1czxrDr1nKP/jvt8I3gIg1CZj/n/sssuO9OINM3HgcxbP3bUQHxJFR9WdE8l9ZD6EMW/URBv9+SNb3zj9EqnxOC2g3Mzrrcyl1hwv/OULwmH7/3e753GkjS25LbDNUkcP+UpTznTU2MOwhnhF4C+9a1vnT6mqgwOCw/3nvCEJyy+53u+5xMSRNEaAe2VV1457V8iW6CDxxpOktq21yvKPnJ/2Jd8yZdM+3OOB8VYb8d6bD5GIyWoJEUl36M7P/ADPzBNaZLElfP2G2isXuweXtqn5KuHAgm07JOGpLc+uPbci0zBPu3/ZS972TTPHOslL3nJdH+cz2Fg3+6b73PwCerPeO0nCeXofrq+Zz3rWWfu9bbDA5Q80Jb0FLS7//e85z2nRDzk/isfAdOb3/zmxctf/vKpjuUtMD5uG4DffOOll146+Uu/N+GPDwv3Vh0UlP70T//0dI93NeHMZ6rfvjuhPtFRPUzTuFPndWpwP+gBH0pzt8WH0nvXI5ZVX+YC9xPX1Vsxi4e3NG2XkXolccqfAD9997vfffHt3/7t07z/Rx9jGz2U87aYeviCF7xgii3mUJ6uxfA5vmXl3OdShrnX7pek9hVXXDFxbQ7+ey84Z/GZjgTONbH7C1/4wile4i/4f/pkah3XOkK9kgRNvGKfuLUuYYVH/K313CPtX9/fsZwmgn2e1L0zVCv9otPKcy5l6H65x87p8ssvn+rpYePMuSP1yBCQ+e3hzzd8wzcs7nvf+05cTXmEiziUt13FEDj0Td/0TdOyOd4fseUd73jHKRZQT8L5OUAddz91nnze8543nRvOzQXK2z172tOeNn3XUPyEB7RG/O78dc6SdxBH0iXtPENnpUPW2cAQzjhJp2gTvZSrSzvROeCemFrc9h3f8R3Tx6zFbicBw0trj/vui/KcSxmq2+Beve51r5tyhHPi/1EAB/Hi6U9/+lTXzeMF/nzxF3/x9Nu3M3VUfsMb3jBpGk75voVlOj1uC+ira9sPsx4PJQGORrHCSYEl0Ml0hAo/OqJN24jxfJ2n8zXPiM8qy7WZJpgrdgPreBLgb4LzYjugrDiFYLnslOloytf6GsREmXH8o3G0llvHuuHEXjZiPB79oD30JHq0SnNitGfUnOhX1lveztQ21hM0sPH4I/xn3+Py5XWKeQMf8xAl/PU7HDQdyz6ci0/DxZFfRbEfRs3EtVFvg2hLrLpSHCfCP/oWX1jsLpQvf7bO8CAcWNYiPpKm8aGjJeZjyzHdeLyxHRnDvXLudGNsU5jHsb2AL7Rq1Kz6zd2FsqUTypqZD+hNYvtwKG3Ps0X2ZxpbhnMaOVf+nW7g3egPR87gBo2iV7Fd1qxZe/MEMangpiwBDDtp5LxMI2rLyTZP6WPWi0X4ECxWcdpuKENOL8Gy8kyZLpctfluPyCTITpA0WjEfKLPlhlOgfJWfctRbKtO8Rsoks8eytc2oB3vtfx3G7WgizfFU3ZsAelL5TZeimeEkW8ev7C/6a7vob5yn/caJrrOsN1rOtzg8UmZjgB0eHRVGfti/40gIsFUB0eiT4wuVccu5OAhGvo2/8Sy2DNyKbpZjxXED7+jd2IgsD3cXy9oEyl6bToxlmvjGvP/wIzHUqFfjfPylKR5lH4mbsl+/HXdsWxSnE+GgWGw5LtsLIxdZsduIztCW6MyI8CgxlvnDILmLkYNpk8SWgYOx/C5OJ8K/0UZ+sNFXMr93lTOz9uiCHMMceHXG61T5uKBX3zP+8XEXzjJRJL28TuhVH+dm+AXDrBgWwth+vqDvtXL2nve8Z3oFyOtNuSbbjkmMXSXaaQAxkYCVfGVe/TKNY/I/RGCUu1fIDO3i1WJDQhj+I4lcxsllu2LeUE6GIzIOWj7EangPr11ddNFF02uXXsPyarMyNxwMU8b4kYDoMOVNLzTWknQ3JI1XwK+//vpJb7zWdeONN06vdhnn1HAhY+MxDcZAo4+WRWNprrHvfd/CUDte+7Wf7MtyekbLaFrMb8vpnXVifjt2de7sgCd0wWvJMfw5qsY57jmGwNqUPhmmxlBFhi76rM/6rEmjBN3KkHll0GuvzDcFcMfwDX7zb3hWFOuAu3m4ZN4DS74Tt/HPQ8xlTaRhHjbilySW+Kkojgs0j3/76Ec/OvlHPKxP213QF5oz6o523g033LB473vfO7X3cEGMI0YSA/GB6ZQgzuKnE9MzfEn7FZ/4zsRL4iv7N3SEdqTv+2Q/SUoUpxf8pFjMt6V82848f7kuDsQXcRie4aVhj/Co2E3QFO24fG/RVLnHR4nt5Sby3ScmzqJLBwGeidG0Xw1Hkw9wZphTJnZb5iP9Ys13nU4kv4EXTL4E9wyflKFv+Tnc4Gvlf+USGP8o37qrujXrMeMVkAqtsBSMim6MJ2NTabjBAx7wgDNP42CT5+hWERHHMI8UAi+ih1iCJoG5sY4InXOWkOAAE3RJVJjG0ovCfNZhRw3nJxDsmPGbg3ssqc5J4QjndsEFF0xjowmUXB+uCIT8L+ElkDeOn+tVHoJ6D3Q4LDAlQv6bO5Thro8Z/7jHPW4aE5wuRQfAvGsV+KjvnIZjugem1jN1XwRA1mdgv9EvyPJ1GOssDcIdDkz9NsZcGon2g3M45HptxwRmmbc9yz6VIT11nuCc7RdyzsYExHH/0WbzbHSS1nNO9O9FL3rRGa0xdX+ieYeBfTqv0zxmfBKUPnYD7jn9EGjzN+cKZUq3lDnOGLPTQyRjT6o/rlNyXj3HE9do7Em6piz4s3e84x3TOH/Ox//M8m0ATeYbO2b88cB1ud90x/Xh0SMf+cjFxRdfvHjUox411W2cs451cYxdffXVU33z34tf/OIzSattQMeMnw9Srw47Zvzll18+PfDW2YZP0g7QYJyDVnTM+KMHnaFRkOv4gi/4gsk/+J0PsEou8JMSpDpkiP/5P+v4zzRQ9127fegwIRGvg4N1cAmnbEvvTLUVon+2i50EOmb8yQFfcJFGmyZm19FHByC/x/LAJzE3/4hDHiTBj/7oj05x4xw1XruiY8afPcRL9N89NI8f8mkPetCDJn6IIz08xAn1Q/vtJ3/yJ6f8gzHK94N98DE66Uii2t/5558/5ZYcE//wVFsi/tM90lZ1//hM7aTrrrtu6jR2EuiY8ccLOhT/hz94SaN1QjUvdtLmMq/Oa0fix/Of//yJL3gjd+a+bFNcqn6pC/th1j3jVRCOQ/JIEju9NSV4OBEWjAW9KYzHyNQ5IgdzfgQ6vUZNfQFfcowRPsk6ydVck8ANsRJ0zSWoKc4OKh3hiBEdXCGw4QzRYcqcExR46E3tCbNEm+2Ikm0ZZNtivlBGnEjedFCeGmSf+7mfu7jNbW4zBct6FwuKlLnGG8MZ28YOA+vjUZK/tMXDHI07iQK6Q4P0ak8Pdw0VusXB22bUHPvRSIy+0lvJXkbbmH3YH/M7T61jNG40AVj2YV3Hrs6dHQTVtAHPmGA3/DkKKBf7SkCY3jP54j2d8kBAYATW56PT44qZ16OB8W/KuyjWAd/wKZzj8/COb8Rx8yO/cW6Mu8RPc2sMF9sBXGL4ExOb7ccnmsfX8YX8modI9lPsJnBC3MTER3RH+85DBb3WJbYkfiXUxUXiHomDcAo3Es8zPjttAlP70671ZqOYyj7sPx+x054Um9G68LN8O73AGbGYdgYzn8TnKuAL/tCpGB6VQ7sJ5UqnxOLJl/FZljM8STsiHXz8Tly/H+iWuEw7Vuccbdq0ayXnmfhtjNsgehj9Kv9OL3AD/3DPg2o85BuTCxXj0yk5iOR9+V+6tYuYdTKeYBAHgQtTUHlyErNcgkLBrrPDYtU+YjkX5lwkTnMumU8iNma7YveRgIeIxPweHU4cUCyJ1KwfIRqt2B5wFBpMaThJeJtXjv5LALxshwFdjCU5O+oNndwEcjzHiOYt2/J/ftvGtsW5IzwKv8Kxo9IJXLRPWjQ+tHG8HNOxwtn4xHDQND555GlRrAM+8Xux6CSs00f8SmILvxpjFWeLaB59i9bh4SreBTiXtkn92+lC2oL8XWxV/DPO84ujRpm3bHm90bJvlu3HfRSnF7SJVsVo1l4xIN7QKFoVK5d2G8qYbsT4qgB/xFhpQyS+5/cOAtsnZ5G2Ah5me1xc5iO+ideiac7noMn/YvuBMwwvEuMn5meJ+fEWNxJbAZ7sumbNOoJUOAQiFV0vOz3K9fzUU2CcppemHgnWMdUzz7YHRUhCnExtq3eD3pxMDxi9IPRw1+M0r0bH9Dx1XOdpO1PnjYDFdkLlJwQCGQ7N095xvG89n72uquczO++8887M6wntf6KSYIgz8kSZCbg9EbQfPRsMw+TpoOMk0ZBti+0Ah6HcxgAIf1KG51KWdIQ26Wme3uZ6YuXVQuPD+033NoE40/S2YHRRby49BB172fxPV6uBRwPcokH0Qo8UmuGVeG9feEXUmxf0KT0N9DrImzfrTI93r9lnDFKvn3qF88ILL5z26Q2PBPaOT8eUZ3ylHqJ8r/I2xT//hS8t+2Id6CE+xwcy3OUf14Ge0J68haNXqTixOH1IXIUzdC499Ghj+JSee+mBxXAuSU49SumeoYN838XUMGBNFBR7IYksptdpNEkvPr5Qj/Z8L8zwIEyMFrP83e9+9zTcUYanTFtTT9Y8DM8D8eL0gsZpS2gz8o00S3wXo2f+Xwc+E0/zVkeGSCp2E8qWJomP6IkpfcID4NvSs51v9Par+F87wvBTchp+a0v4X3xmXnvA0C4xflPbwdQ6eDgiHDOVcKWJcmfe2k6urDgdCOfwKTk0ejbmu/g8vNCO5Ef1jAftSfwJf3cRN//Oj+Om+X3xzGc+86a540Ea/QpAY8tUgSgwCXeBDzEx9VsCnACxjM2ext5BoMBT6GA/giKJ/gRaRMRviXdTCXlBlISUKSIhkeCJw2NzCKTcBwkVCWKVgeOOUM4BKqry9XDFfU4lPGm4Zwly8MjrV5yPhp15jkvyylRSzP3l0DgylrEjx0DJtSZhq1wIVIadkGDFIWWTxiAOzqms1sH5ChKNGee+pf6eNNxjRkO8Sqyupo4fBsrLQ5Z73vOeU0N+HVx3eKOcTVOWOZeDIvfPNuoH7dNwozE0Tl0xBr7XpWmS//BHwvyokXN3Pc5DICWwp7uOl2HEMs18EvLnCsd2X9UvSRbnMZd6ocxdI/9hrDvTo7jmZdBuyfHb3va2kwYxy9wPCSSvLDuu+yTQ0VDjI/03PkQczZh9MetJSOG58SBpGx2zf9eIx0xZuEa+zXc+cA8XlblEBA6eTR07abg2vLrLXe4y3UO/56RhGtR8hFhjG+/vMnAKn/HWgyW+EP9wDv8C1w647bqvuuqqKebjGzXwxGd0aBug4Zq6qDznAvcY191f47iKXTehYUcJ54xD+ELnxGSS7e4tPrnPfout+OIxcRU/7bdxY8Vu+Riih5r45/8R4aHEKs3TaLRffnAuHW9co+t2Dc53LmXoXBh+iQvEKtusYfgzthfFl+pMOoHRI/4wHcbwxdAzhrShWYagMe9/nbz8T9ttHz2zT/unE3PhF3iAr46JC+ZUhvgVDdM2F5cqo20HHdLmoGP0ivl+lbpuWf6jRXg5wj0Rq+swo52AV/iEf8mrzA3iAPGotrN215zK0P3FL/kh+SDnNpd6GThH8b/zUt7KH4f4Ob4PJ9JOwBvtCOua50P5QNzK/5L12hna9v4Tw4jT+BixG99raj3bjXAs9wjnXvva154Z0ksHMm0G9/EkQLtck3yO8pxLGbpf4H7xE9pSu6Bh6jFuiffdd1x5yEMeMi3DVdctppdX5QNdu3lT/ykfnJ17TLqMZzzjGWfyP3th1h9wPQge/vCHn0kQqFwCbwlBQZEEKTGXWNjvMl2bAIpzEvRwbundmQ9M2Oeb3vSmqeKGFIIny+cO4qwy9AOuBwdOOC/3Ci+SrNJrVG8V//vQl4SVhp91OCLbLCP3ebkORVgs55Quv/zyxb/7d/9ucp62wS1vXczR4S/DdWsE7voHXL/ru75r0hlQJmOZLpdvcNiyy/qZ2i/nrHHng6jmGc5dccUVk07tOtwDvDrNH3ClNYLgr/zKr5z8lWOkp2cekvjoj2AXx9VJgXISS+7hyC0mGHJf+Qf7sH9+c1UA4X67tnCPPj3xiU+cjmc+9UwDYA7lcli4fnrfD7geD/DTB/klQgXpeHO7291u4qvpyCH3AN/x+hu/8RunhhwOSmJJXm3iAeQm0A+4Hh2cM1174AMfOCUUkmjgq+kifuGUxp1Y3bo4pdHn+vDHdvok8Sl0lMZZjw4E9jniOc95zuLtb3/71LNZeyOdgeYQ70iK8BP9gGuxKfQDrscLGkOntDPFJeK117zmNWfiNn7RtS/rlHKxTEKPXtmGn6Rv2kH8zxwTfWLWfsD17IELOIMbzo1fE3P42L37yU/ihvUC+Qfxpfidz5B3EGviiPW1ty655JJpG7+19eU7HGNEtMAUt9wvddB+733ve0+5HfvEWcfZRDvpIOgHXI8X9CsdVvERL77t275tquv4pAyuvvrqxdve9raJN+n07Pt32wzcd337YWsHOowgCJiJBOEZpzHOCjikvQysm/2t2tf4O+s5h1HQit0BZ8JRcByCO1MCabo8H1PxbENMGIGPc1oF3Al/BEgECh8ty7SYD5SHcoJV5aOsV9leiAaNZr8MH5h5iYXoD4se0a2DiH2x/cAlmkJjYgI1+hQ9Wtal/TTLsnG5fQmMaFk0LAgP4yuZYNyyTNUPHC6KgwC/8Cx8Nr+smSOfzNO7cC5aWZw+4Am+JD6Lno3ze/2O2T4W7dvLb8dHj9OiKIpNgBZF60aL71xuZ9KjUZuYdoTYLFbN2m0oe+UsVhrLPOUePiW+5/P4vvjEZT+5/Nu64jXbJ27LvsBxHNN54N7YbtBuzX/F6UB4kljNdNQtU5wIR9KWPC3Y6pqg8PR2MeyEnqFef/Hqo57VpnqteBr8+te//sD2hje8YeqdbepVaOP5ffjDH57MK4Z6vzBPERlyFbsJQuAVpnvd615TLyNTvfjSO5XpqUA4EuzgA6cWG3slSZp5PdcrqQynPHm+5pprFm95y1smrlpmHT39vIKvR9cYZBUnB+Wgznvd0xNbZn50KGcDvGD4otcAnfH6o54J3srBjyuvvHLSJ2/m0DY8yWvOgqRy5PSC/uh1kFdJ9Tw4//zzFxdddNHiggsumHoYexvK8D6rTC94OqdHpbfLBMr4xHCLFuG5nkA4j5fXXXfdNByP3lV6mOr1kiALj4vioEgDcbQR9DW+1JRW8ov8I+7h3Vx6/xabhzhLzyo987xNQbP0+su3epjf0Tw9eGminpZ68pqK4y6++OKp5+Vd73rXM3GcxEWSF4EkA11LXIZ72gDRPBqJf/XBRVFsAnyixOWoT0lk5r/Rb2qH8pOGe02CNf6SjnmTxzrVrN1FOJCYCQ/GROhy7gqv+EA95/V4NwoAv5nv4Ml7eIuWaW9ImvLFqyBm4yO1UbVX02blM/Owm18t/04PdJwRsyUe810CCffoFi7QK2/xaGuKtcRWpwVbO0yNc2HGrct5Kew4KWKQXqN6kB4EEQdmHxGwjF9un17xyjrg/20QFdfj/nSYmoMDb+5zn/ssHvvYx04Oyv3DJ68/597hWJ7g+R1exiy3H/efuHhtUgLeuvZnLElBErPM/x4wpXHnONuSbHUfdnmYGmWtAa8OpUxdI46Y+n3YcrK+xj3YhyS8h4tMwsFQDAxPrIsXfuc47q/gWnC1DRw5FyhHvDrtw9QIZB7zmMdMQbXr9+qfZFKGWBj5gJOCbPfK/VuGdeIzGajH0bSMy42P7r39Ztzb6JJXC8cH0/yh+W3kYxokHabmeIBnew1Tg8/uv2t1/eoV3tNgftJyv9U7tg3oMDXnBjokzpCEN6+OPvWpT50+1KrO4oxluOWaXAPeuC71iC6FL1kX3yQY6DjYLj5dGeFlhrlxzOc+97lTPfQKtWPad2K2k0aHqSk2jQ5Tc7wQ2+lsIUGaduhLX/rSaZ7Ouf/qV2I818/kLsR+kluvetWrpjpH161H09yrOda/DlNzblC+8V8gppX8fMELXjC1XfHGMtyIz+Mn+H/mevg9/PHbfljybYzfZJaHf2Cqzum4o21gv9oDlv3QD/3QxLsc6yT512Fqjhe06773ve+UT/NABx/4EFx0zfIzL3vZyxYveclLpmvHE+1KyflthutUT/bD1vaMV4FVHskCySlTCQPjDElcmQr4JLeuvfbaA5le8HrTC7LN33DDDdMTPb0Cmf0TJ6RBFratSYdif3BSGjYCT2PD62kqQSD55cMlTAOQU+OANNRwkqNRAdmYkCOoAqHx400acziXXqY+5iRpT4RwDcfKr3lA2SoTQZg3ceiB+bMNKGzDwhXG8dAvD6T0JKBf+KEnMn7kw3GjJs2pMVQcH1Lm9EeDRTJJkEOXJDe9uSMp4+GrD64JhpbNckktyXxaxgToAW55AI3nHpDiG+3CQ37yfe9735keDPSN0b/ysTgo0riLZVlAX2kjXjEcE6h7SIR7OGp5cTogLpNQ8BZQdIvGaVibSjrQQG/70Dgfm7Nc7z6aaCqJeOGFF04xnaSP5L4EVx5EJkEBYjiJCVzDOQ/PxWeW4aVpNa8oik2BP5SwSgJUW3P0maO/hCQ/E5fxkXQrlg/bVrN2E8o1HGA4IOEcLuThMYQ7eMUH8q3aE3yiXIe3yzys5kf1mPefh0PWTeJ4mX9iNnky+QztBTmPdOBxDs6p/DtdEFfl+2XhFM6FO7iAH3K5H/vYx6ZYy+/Tgq1NxgcKkKn8y6ayM6J0Npbtx33meLFit8HZCHxiedrMzFuWACmWBp35BE1gapntYvZjeSwox+YJZZRyHzkxlt1BkTIfeZP9LfNj1KVRj6JJxekALoyaNHJknfn/IBbk98jDHG/5mJlC9ao4CoRPI7LMdPn/cu70ImWf6ciNcCUWfVpn+8E+Rr2DbDcuK4qi2AT20qtlDRr1qnFagQPi9+Ql2MgZ86NZf9nG/7PNiPzO/lnaC6ZQ7p1uhCN4MPLHfGz8fVqw9cn4otgk4jgSwCwbJ8PhxMElsTomV7O9dcf/Mh2NwzpNArRtSBmmvMynzJTxYWG7cGIVH3KMoggS2CbYXdaL5Yc1eWCzn4Gp/dl/jrGKm+Nv6y+fQ1EcJcKxmDoQK/dOH+gUXUuHmbHjTDrSRNOy3vhAO29Z6KFnuqyRI5b5RhdNg/KvKIpNI5oXrVrGuCyalTgu88XpBD6wMZ4f+RAfFv93EAuyb5b/7HtVuyHrFacPeBH9YmKykQ+my5p1mriytWPGF4cDYhubqWPGHxwcl1egDeXAqQRjPcg9zH1cvp/WTcLM61leu/H6DSgTr3KlUQhpVM6lXA4DZbjLY8bbh9f0vGplHuzbq/Km7LBQzuPrgl4f9dq7VwnxJq8WOvfTDvcHr07zmPH4xwyfhSPqHE03tqYPsTq+/xP45t7sx838b5+GzPKRVudvSCRjJRsn3jXSJlxk/rddxlvcRs1aBp3nGztm/PEATw0Dt2rM+Nve9rYTr1yz11ZBvaKPxp3ES9wL77aFfx0z/tzgFXlaZyga8/zkd3zHd0z8UWcTcyxr3jI//M4y175KIy13HwxLZ8g4x6IPL3/5y6chLOmi7ebEvY4ZX2waHTP+eGGsbkNu8Y18Jh36nu/5nmlejOKao1+mrtuQgh/84AenYUUMsSWuY3zs3NEx448WztnwM+IsPt73BwzTdpe73GXyoeoLv+F7eP7bqz7jl32IyfhG22qLydvgnTHOHQ/PDLmqnWB/zJDStp2DXnTM+OOFYY4e/vCHL77pm75p4pk2pO+bpX1lCGBxlW9h+E95sE20o48T/M+YP1yH9owvijUgBByKsbk5Gd8hYOZjWSZpNY7lHbPMepyS3xyYfTJj92mME1qCwxxzLoFt8YlQLgIPga0gJBZOKOPDmu1GrghWJOQ5IxzBj11oTBRHA1phvGKJSN8XEMzgieWCmmgICJpjB0ECZvvHQ/unV+Ydx1h+pv4XvOYhYjWr2BTwKgH5aJaFd7Hi9ICmabTGonF7ad74X2x5+1XALdpKY2OjzpZ7RVFsEvRJAl5nFA8c2V4Qm2mriA3Fa9oTdCuaVZwuKHflr43pwbIHCeL6cEMiNH7tIODz0jHC9qbawtolxobXtvUwKN9YSc4jMVtR4AGNwh3m4YN2JV7hoZjrNOlVk/FFsQaEgKPRS5/z4lyWzXIOaC/LuvYjmcXxsSS1iA/hOW3is23gPAQs+QASE2yMfDgbG7ki0S9o4Zhwj7NqMr4INLJwQ2Jc8JuP3FiOnzTkXCEwsl9czIMnXDefB0U46Zg5blFsCviVJDx+JxFqebl3erGcjF+XUM9/yzZuvxeiq7Quuud3uVcUxXGAXultrCe8RLzpXuAjtVXSjhDT0a5q1umEcscHOQimo414Hj+0MU2ThzgI7A/H5C9sb9/ardolOpZp16bjYfIdeNj8RjECb2JjIj6xfpPxRVEURVHMChJH6SGlcaaRZtgEr6DGvBKXBNOYfNrLsq7XTWP2Zd/79cIqinMB3o2J0ZGTYJnkQ17JN11epzhdWMWZYBU3smwvG+G3/UL4R3PpoSkNzv9FURSbRB4ISlKlE8ReoE00avSbfi/rXHE6EH+WdgNLjD9aYv34xFUG9rW87Wj2nWMF2bYogugTw73THFd1zPhTAgRH9o4ZX2wKynCXx4wvThbKEa9O85jxeMwELY6nkWX8VmMEq3uWJag5G7if9NfQS+bzpoYeL6cB7iff2DHjjwfur7r8BV/wBRN/vXV0wQUXTL9N8VkPK5qdRIS69a//9b+e3tgwv23omPHnBvXT+PCf+ZmfOfkA9fS7v/u7F7e4xS0m/8Af0L807MIb9SVtmPTm8x/txj37TcziHtA9/NTTz9jL6pz/LKOReTtpbuiY8cWm0THjjxfGi3e/73e/+026pi591Vd91aRFfuf+R9/e9773Td+0+Kmf+qlpzHVxw4c//OHJ5uRz1qFjxh89cANX+DzjxBsvHaf4THXEdwmSoN8Prteb/Xyk6+eD1TV5G0PUuEeOg2tzvTcdM/54sTxmPO74hgWtdu9d71VXXTVplmW7AnWLTu+Hdu0oiqIoii2ARpfARYIlUw0sD5le/epXT8Gb6Ste8YrFK1/5ykOb7d797ncvfumXfmkKqjOuZFFsAviMwxpteZU5SdLAfxp6xiINLwW4c23kFZuFBwY4kSG0TDWmcQKXTMMfCQjrW45fGnzMMFwe8uSV/TR2k8yyviG58iAS7zSKb7jhhulhmO1wtSiKYtOQzJFA9cDRg0gPDyXtolcwzudhIp1iNIz+zaFjQXEyEGspf1P8MH78ddddt7j66qsX11577dQR8sorr1zZLli2V73qVYs3vOENU/L0mmuumaYeUBuexr75Zz41D4mKIohOid/FYDijw4OHWzTrtHKmyfiiKIqi2AIIVAQxCapNNbb0gpIouvHGGxfvfe97F+95z3umpNFhTY8qyU6Nt/FjrUWxKeCw5GkSqZDeQZIQeI6LHgzlY8LWb0PvdEK544lkeB7ggN546RHP/B6X003bMppmO/omOa+BaJ2sD0nq+58e+vCdBIa3hrzBUV0siuI4QJu8ufOpn/qpZ2xMvi8j+piHlfRqTm8wFCeDdGAQa4mjPGT+yEc+MnV0+Nmf/dnF+9///pXtgmXTvvC2mI5Av/iLvzhNJVNxLXGcaflWBPQqDxCZOEunCLFV4nqx1mnlTJPxRVEURVEUxbFC4C1JoEeMwFzSQE8ZjUQPmDT4fuEXfmFKKuSj2dZpr/jTC5zJAxyNfklxCYGf+7mfm3rnMYkFhkOmSRwYHsUyyQdJdcl1b11YZrusb2qfuKfXFs41sVAUxUmA9jB+L7YXkviS8BoTYEVRFCcBMZs3JsT5HtqY6mzjIWO+M3CQ4Vx2FU3GF0VRFEVRFMcKCYb04PPKqmmGBHnnO985mTc+vP3h//SOb8/40wvlrvy9Bu9Bjt5U3gi6/vrrp9fufV/Aa/cMf0wt98ZQevVZP0l3SXzbhm/Mb70EvSkkiY9zfQBUFMVJIQl5tkqLlv1hEvCjFUVRnATEbN5EFMf/1m/91jSVfJeINwSXZLzvDp5WneoHXE8JPB3vB1yLTaIfcC02CeV42j/gWmwW6anRD7gWm0I/4FpsEv2Aa7Fp9AOux4tb3vKW0wdNH/e4x02xJp32cdP0fHf/k58xfdvb3jY9dFTHfADVPZD8YttwP/oB12LT6Adcjxfq9K1vfevJd2i7ax/7kGuGFHS9b3/726fvD+xS24beHqTHf3vGF0VRFEVRFEVRFEVRzAQS7BJWOgjo9MQksSTu/Dca+E8CyG/rZL2iKIqTAP2hSzrU6fCUzk6WjVp2WtFkfFEURVEURVEURVEUxUyg164elj5YHcs3VIy9nGnM/9660oPemzF6obb3dlEUJwX6Q4cyvKC3EWgU0yve9DR/9LfJ+KIoiqIoiqIoiqIoiplA4spHDz/ykY9MH5VmvnthCAvDuvpAdT5ezXx82jAqElyG55Ts6nAqRVGcFDwYNGY8XfqN3/iNaerj+D6izyw7zR/KbzK+KIqiKIqiKIqiKIpiJvABad+K+cEf/MHFD/zADyx++Id/ePHkJz958aQnPWnxtV/7tYuv+7qvm6ax7//+71+86lWvWvz6r//6lJj/5V/+5SmZP4fv3xRFcfrgoaCP4V955ZWLV77ylYvXvOY1i5e97GWLn/iJn1j8+I//+LTMR/V34RsfZ4N+wLUoiqIoiqIoiqIoiqIoiqIozhL9gGtRFEVRFEVRFEVRFEVRFEVRzARNxhdFURRFURRFURRFURRFURTFWeLmN7/5TXN7o8n4oiiKoiiKoiiKoiiKoiiKojhLHHR49ybji6IoiqIoiqIoiqIoiqIoiuIscdBk/KE+4FoURVEURVEURVEURVEURVEUxeHRnvFFURRFURRFURRFURRFURRFsWE0GV8URVEURVEURVEURVEURVEUG0aT8UVRFEVRFEVRFEVRFEVRFEWxYTQZXxRFURRFURRFURRFURRFURQbRpPxRVEURVEURVEURVEURVEURbFhNBlfFEVRFEVRFEVRFEVRFEVRFBtGk/FFURRFURRFURRFURRFURRFsWE0GV8URVEURVEURVEURVEURVEUG0aT8UVRFEVRFEVRFEVRFEVRFEWxYTQZXxRFURRFURRFURRFURRFURQbRpPxRVEURVEURVEURVEURVEURbFhNBlfFEVRFEVRFEVRFEVRFEVRFBtGk/FFURRFURRFURRFURRFURRFsWE0GV8URVEURVEURVEURVEURVEUG0aT8UVRFEVRFEVRFEVRFEVRFEWxYTQZXxRFURRFURRFURRFURRFURQbRpPxRVEURVEURVEURVEURVEURbFRLBb/H9iHbfJU6GymAAAAAElFTkSuQmCC;clipPath=inset(3.33% 0% 13.33% 0%);rotation=0;" vertex="1" parent="1">
          <mxGeometry x="528.5" y="264.15" width="424.06" height="36.75" as="geometry" />
        </mxCell>
        <mxCell id="E-J0n9S15oYXZed2iLMT-2" value="&lt;b style=&quot;&quot;&gt;&lt;font style=&quot;font-size: 13px;&quot;&gt;1. the MNIST dataset&lt;/font&gt;&lt;/b&gt;" style="text;html=1;align=center;verticalAlign=middle;resizable=0;points=[];autosize=1;strokeColor=none;fillColor=none;" vertex="1" parent="1">
          <mxGeometry x="668.5" y="232.89999999999998" width="150" height="30" as="geometry" />
        </mxCell>
        <mxCell id="E-J0n9S15oYXZed2iLMT-3" value="&lt;b style=&quot;&quot;&gt;&lt;font style=&quot;font-size: 13px;&quot;&gt;2. the Reuters-21578 dataset&lt;/font&gt;&lt;/b&gt;" style="text;html=1;align=center;verticalAlign=middle;resizable=0;points=[];autosize=1;strokeColor=none;fillColor=none;" vertex="1" parent="1">
          <mxGeometry x="640.25" y="362.9" width="200" height="30" as="geometry" />
        </mxCell>
        <mxCell id="E-J0n9S15oYXZed2iLMT-5" value="" style="shape=image;verticalLabelPosition=bottom;labelBackgroundColor=default;verticalAlign=top;aspect=fixed;imageAspect=0;image=data:image/png,iVBORw0KGgoAAAANSUhEUgAAA+oAAAG1CAYAAABu2Q7ZAAAAAXNSR0IArs4c6QAAAARnQU1BAACxjwv8YQUAAAAJcEhZcwAADsMAAA7DAcdvqGQAANYUSURBVHhe7P3di1VHF/+LDs9l8ge0YoKteciNBETYMd3wnD4uyNUGu9ONQlpCbMK+2SGIIYg/opHWDj8JIUFC9s0haAh2QLFjB/bVA53T5wGN2WwRgjch8YUkqJxrc9tnjFFVc1bVrPm21up2tn4/YcbV86Vmvc8xRo2q2rLGEAAAAAAAAAAAADrB/8P+CwAAAAAAAAAAgA4ARR0AAAAAAAAAAOgQUNQBAAAAAAAAAIAOAUUdAAAAAAAAAADoEFDUAQAAAAAAAACADgFFHQAAAAAAAAAA6BBQ1AEAAAAAAAAAgA4BRR0AAAAAAAAAAOgQUNSHwV+LNLNlC818/8ie8HlEi4e20JZDi/yrT37+tCTsdtw4y/HY8indsH8DANaByv4AAADAhuPLUfx7C/fRn/5s/tQ++6yVjNB/A/CMMgR9zBH3IesIFPVh8NIsXV1bo6tvb7Unhoh8NMZO2j8GY+zUGq2tfUxj9m8AAAAAgGeaWI5642OWhdbo4zfkjxv06cuHaUkvAABAt4CiPgwKFlju+PlvsbZsOfQN3bNn25N/QJZmt9GWyOKr4fMRWIX575mzn+bXPctRYUTdWoTMMUOLf9nzfvz5gGUZgBDXlj7Vf81RalmN2mvQnsrasrP8tnoGAABASEKOykbDpJ8dJ1XhPxkvGWmr6IsBAJuQe/RN1qZ93Ydb+/czWVuPPZD9a5/+x55kzHkvHKeLDamvgKK+Dtw4Kx3/NF36c43WvthJt67YC60Zo4//vMQhEU0vPqS1U2OmAvBHh+TvtTV6uDhNJ8fCirb06076mq+t3VggunKY3k9VFgln7CQt3JBR9od06eASHf7QfKRM/Bfoug1/afb9IHwAgMDi3Zuu/fBfY6lpJSzkfXiY9mo7W6PrZ0RYdO3JCJCuLcs1F8aNs9vo8BXTBqUdi4BpFHIT3tLBS/QwegYAAEBMQo7K2Eqzl6+ztMOcuU5rl2f5TEh5XwwA2JRcuUU7vxCZTNp+rvuIwr1tlozupnLdSRp3xjvWmd6fXTL9BPcFPWPeU7b+e4b7lyW6+l+jaz3671X+a5pm/j0cL2so6kPnBq18wv+c+YhmX+J/X+rRDAvxwyKuAFvf/shUtAu5qD79Vs98bN54TxWIpR9WTEXzMOEsUE9dv+RjxRUz+EhxBd3yKd17+ypXyqsmLQAAD6/9fCii3klaKQhwpm19/JKxsI5L3+D4eYWfyNtyPjXF9SE9M03ljZ4Kkrfuea34ymHaxh+QnZjOAgAA60SDvhgAsLk4OEM91WnG6L3FaZanrtLKX49o5QdWxLNrVq5jWesbluuc7nVpzkhbY2+qec9g9Tyja8XhDA4U9U3Gvd/FgWsv7RywAphw0ozNGeuzUdaL7h8AgKbYaSQvX6WZP42HiuPRvVv2V8Rf90iviCumtj/jmrn0u0yicUYBRpR1uT6MhVEAAACEVPbFAIBnh3t0T7yfX9vpDVg2ZSv13hKFn8P4a4WucjjZgOkQgKK+Xvx6b12E553/EkH/FlcG83e/VIZjF8dzLr2qsLv58QCA5uioOdHCjaJXytade/n/S8U2+NJOkivOxSo7nMumXQjJuG0xZdNbAAAA9E9dXwwAeEbYSTtF36nU3RLymsW4v5+klQv3dOR9WG7vAhT1oTNGvTP8j7pS8L/WujIsCnMhvv+cq0bujiEszX5jRsB//oYOl1h24nDyhebswik6SreVZr+wc7v+tVPvAwA4TtLnqiBzm/lC1XHrCu/Bgp6axNRV8gZ9I3OcHNaN8uR/jBEsX5DE9iGfrNh27G8DYkfo1XA2Rh/LOhTM3p3D+ygAAAAQqvpiAMCmxLqzZzKZuqm7UXGruzm57uAleo/lOqMz5fLajf+IzOdh3d9PfiLPDM/tXVkDg/PnpTUuwLXpxYf2xMO1SwdpTbKXDi6sLcjvg5f4bD/4Ydkw7Pv0HE2vXfpTb/TicWmNxXdz/cx1e3Ft7foZObewlp25sWDDiMLhO7Ln5eg77gA8m7i2dGlxuth+ov7A3GuO6YPm/oUbeilqy955v93zkfctTPSM38YBAADERHKUlX1cf5v30SwfRf13ZV8MANhE2Lbs9DLX5u1V4WEm08l9ke7j6UwLZ8I+RHDPDruP2CL/44DBs4C3Ivy67OkOAFDEA2X8E1kJGAu5AQAAAAA8z+Srxg93AW64vgMAAAAAAAAAAG2w+6Zvm12i6cWvh75LFkbUAQAAAAAAAACADoERdQAAAAAAAAAAoENAUQcAAAAAAAAAADoEFHUAAAAAAAAAAKBDQFEHAAAAAAAAAAA6BBR1AAAAAAAAAACgQ0BRBwAAAAAAAAAAOkTl9mxbtmyxvwAAAAAAAAAAANAvbXZGr1TU//nnH/sLAAAAAAAAAAAA/fLCCy/YX/XA9R0AAAAAAAAAAOgQUNQBAAAAAAAAAIAOAUUdAAAAAAAAAADoEFDUAQAAAAAAAACADgFFHQAAAAAAAAAA6BBQ1AEAAAAAAAAAgA4BRR0AAAAAAAAAAOgQUNQBAAAAAABYZx5fmaUXX3wxO2avPLZXiG6eC/9+Lvj7Ms2++BndjH+vM1oO71ymQm4/pfgU+OWzdPz6pSItmhfn7JVhv3eINGofDeIv6W3azvx3Pq32CUUdAAAAAACAdUQUhF1H9tDKkyf0RI8V2nNk1/OnnJex/RAtPjlO++yfALTm9eP05LtDNGL/TDEyPkX042onjREpoKgDAAAAAACwjtz/Y5no1ISniO6jdy9O0nKgNKzSZ27E3Y1yCjoi6kbi3cjoTb53li7/rX9Eo8SP6fI7L9Jnv+gfOhpYGMXXMGdplu9zYfr3Be+P0HfF4THl7/mMPvOumXhx/F+do2Wap5683x/11ZFRfkbjJkeeznBkM0xnOp8sEqYN69s/7LmAKD727IMsrXkcTPw47+S8y/MsfO8cUxlfead75hyn138Hs5rlWZiWZD4nw5bw0ulSOM67jnC9PNsLyrvdez00X8I6GNcDE5655sLK48yU5GOALefgOcF7v+Y752lWH1xY23fQnqX7dF9+M2X3SR3vnSVaDoxpJe2zKj0DAkUdAAAAAACAdWRf77RRiDzlY+TgYjACuHzkPk3IaPtvF2iS7zUCv1G06OJdHYlfOcUKl4axjyZOLdN9q9jdZ+VzktUPo4Dwv0unaeJ1q3DcuUB3bbjEikeuSCzTng9kdP847WMlJ7vvyV26cOd8oDRmiHL345S9T7wCjul9RrE5bTwGCu+Zp9uvuPjzX1+Z+B+XdJI8kxhJX5on0rhxXKaXae67QMVMYPJpz0/yjJ9PjCh2++fptF77kkbvsHJaIBWfebpGX9rwOA4n8rKjJaKp3zg8Kb8gfI4vzdGuCkOH4+a5Hs2fWtHw775ym9/msTRH93su/ZwWG151PqeoyOfXj9Pdi5NEEocT9krVe0vrkeX1CTqdKcHyL4f9h1WJ/75Py9ZQdfPcLprbbdL95KfTNL/fGig0H2/TBcnXsnyUe169T0f52eNcv6tYZkVb7tP2xOn6VuMr7WaeVr24p+6Ttil1dZLb3eJB00LT7bMiPUMAijoAAAAAAADribjlOuXDjcp5SrviRty3T9DUtJ5hxeQB3WYl66hVFva9I8rENVplRWD0lUmaXxFF5jE9oCk6euC2UUB+WWUFUMJ6TKs/LtPkgQljDNh+iI6y8nH7gXvrJI1utz8DRujQd4t0KHHt5sp8Hh6/4fgTc594DExefNfG37zHxE2YpKlx+4QYLBphDA0Sl4kDrPDVIWnOnnH5ZJVGURKnL9C7NrxDHzSNQ1W899AOlz+p8M+uhqPXBW7S6tlJuvCOUZBHDh7l2Puk01+dz8Mg9d66euQYpVFW7rUOcr2lA0dp6o7JB6k3p3uqpnO6+S36m3n9XTXEiMHp8fVrnI9TNKH5avPxzgOvjazSZ69eo6nfGk6RSLUnRsoyyLOS+wok7ytPzzCAog4AAAAAAMC6IwqwjBaaY2V3OGI4+cqo/eUhSqD9qYjrrv05Mj5Fk6LI/L1K12gH7duxR5Wnxw9uB2GJ+65zy1V3XjfK6SubMrp64FpmREi6NotB4I79GVA8L0aEHO89TZlmpc/+bI64d1sjiLp736YHogByfvRHRby9+BXC3z4qY8nVqAGmgmT66/J5CFTke3k9chjlXusgK920Yx/t2C1lIPEOjULz+205vbiL5pY8pX/JM2Ttn+e/3Qi9GdEevUh07XqqbhZJtidBysczAJTeF1F1X2l6BgSKOgAAAAAAAOuGzGEtusPqKG0wYpggVvp8BU9G9sTFmJV5EiWC76U/Vmn1R8pGggXjku0dzs05Ql3x9Z67NPVjyqV6hBUv+zOgeF7n5K87nHZWijKmneu+O8xo/8gOZ9pYHwrhx8aVDC++nsGlOS3yuc4Q0AdN6pEYj8TdXaZiiGI++grH8boYktxIuTBp3dvzw7mXqxu+d16nZZgr6klw6ODRbLpF32i7MV4pw6EiPQOyKRR1mRfhLDhVi1t0EY37Josz6AL5AiPVc4/ixUMGI1z0ZDC07sdufWB42MVUCgvmAACGTiCHuCP1bbftMu6T0/2hW+wp/u1REl4BfwEmPkoXetqoexhdeKrqG5D1YdHh5Wsy37N7zHeymDf5+UAGK3uf9qGJb6lNZ/FcP32ujDRSOMdZ3vnVPNHuHXy1AlXo5um8zeeb380F7sEyYnmew9mzg0OxCkiuFJkRTjMnXDB5kyqzIK+UtFu8jODmC+Dlea3nj3xr8obz+rzvDjxksveru7tF50e7eciu7tiyCq7ZfB8mYkyJw3du0kwyvnxV1hhwc+8fXznvXSunLp+dS7e6keuvYdC8Hml9vXOe42W8EVRx//EakTddwk+338fJvZNn87UR0n2ILMLIbal2zYIqTHtsOjJfTXl6hkH3FXVO8LEjy8aKYyfvl30UuoZ0ErqaIgB9YSx0dYtlgOcU3cpmJZrTBgBYN4LROm573mJCDlGi9pyK5j8OQKPwRHnMFmCSw4yG+rKSKi37ySxA5d0TKGbDCkcQBeLOae6f6kat4pGoRL4WRkn50JE8EZAT83OjucohxZEvM2JnRip9d1V1H592c8AN6uLsKWBtkNFq37VcXWRlAaqS0e0csxiYLN4lz+lCYt4CdPt6e2jZLhwnCsgOUc8ypci8V13s9Z1m8bLUaN/IwS/pwp1eFrdrB75MzlGPw7t98a7KKWbxLet6bhe/q5VfrBGisBp5BftOcB1x7tEro3Qhmyts8um2dUHedYS4rN1oLF/TRb5M2u4fYH1Cz0f0ER9Fvsde+HPEddaWa3l87TWu7xLfYzTV6Htens8jdOic0ZMK4VWkS70B5Jm4DUc0rUeS1xO7l7OF4+TduvCe5+Gx78TdvK75adB83ENzr8o7inXd4erqIMqwpLvouh9ijCL1WyiWpmcIbFlj7O8C//zzj/319DDKrjQ2cV8Ri6dtADX75D1txAokqyOucKfc++Nog464KWLF4gaiv70VHMWCo/NxovOCf00+eC7v9KNs7Xf+ebEGSj4795zgGtgYpJzP06jWe3tG6tRZ8ztfhdKU1f0PUgp9WI7+ypWhEUkEF/Meecf5V/i+Hd/Si1+N5uWudUhW2ZR65ddBxl8tNKtTk3RaBKg7U1kYVfG/xvcvLxmDXLpzi9MZ5o8fdjo+hvLwHRXvIcmDa9we+APEQtHKb6N0PssTRt6V5ZmX99MirHIcNMzqdCTju93Pe0GeWaWJrCzcbwDAeqF9pqx07X0Ls/4yE1Zde5yg1aj/Tj0ftv+oL1DKw8uxfegBPx5Moc9OPe+fH1Y45oyk9xh9yf8do11lMpCGLQtDheH5+ZrONw/tM8VwkPeB+j0g8x3Q5937S96XUejDj3G/PUXX9uf9r4S92qv7jgDQB4m6DJ5NXnjhBfurns6PqJu5F24xBzs3w1tYoKvsO/FEt2xotjxBU+TD0SOyc0TuXrxtt03gj6S14Mj5YEsKvSYfJvOMWMOOiWVIPlisEJj5JuEWCME2A2Ld9lyJwNNBhI3abTEiHl85FpTjHucqxR+DXUf2ZCMiuuVI7EKkbmL5SIi6UKl11NRBsaBruOrlYt2UgjoVbn+i8a/YTmR5NwtSfK0v4YfTk9xSRuOTjw7JFiS521a/eFvZ2DMpNO/FoChx+oBo3hm9qiiLr64u6m0lkq3mCwB4epgVm/1RorxtGtfMgd0qm4Qni4gtRfEQ1OPG9lMSTuYq7SMrNC+bcIcVjiIrRJsRNF3Junb1ax+zgrK6cTdBvlXkb7UUrqTdinhrqSWWPfnc1LRZkMyFnV4lHYC2iDxlRo710O8/lHQQgsXkNhP6Ic3ducQNxViJy7fuiD+sYkBQa3nFVhJqZMis3/IBtj/BU6LpthhVyBYq9gOgW8TkH4P0iqG+4GXeb+ZAmRVrsxEXdaeypOqUpW47kaYrbtYj8bOjJSpg5iMnw1lMpomQZvPrAzsCpFt16IVqSuNr5oa58s63OAEAbCjOfVUPMViGrsF+2xzReZluHq8leN6EkfvPFKkNL6OPFbWVeGGqIYWjK5A7uUPc08M9i0OWMzfXPF8jt9FCvvnzP437e/Y9LDUmOOL38ZG5/Mp3z8Y1M5J4c1lF1qoMG4A2GHlKBz30KPH0AM81UNQ3E2WrSMbnPeWpbEuKyq0kZGQv+4h5LvDgqVK9LUZomZX5NDqfiOycGT5ywSa8N72OglEO9R2RgUjds+yzvqBZVtfkfXXbiTQePUlRsaWMuClmcfVcyvuniSDrrerakrL45kK6jOiUzb0EAKwrMg0sE6qf0NE//LnZZiQ426JHppt5XklK9Lx6rNlLRRqEl+FGfAdlOOGoB5anXMv3qnyOvTdn/CfJjXzQIaOQb6H3laycbhbr4m/bV/4e3ykSc9SzgYncKCrfs8xI4uayiqxVt/AbAAAMkc4r6kagdx8PK/D3tbfiM0C8RYejYuuOslHEwvlM2ecP3YncjV5diTGi3gmMS3lKuBBCy6wb8VbvCD23QrTfrCgcuGXzIS7WKUQ5nBQvC6kbmav1Tfosc2834TpBs3zEOh61cVNaBiDadkS9SzQ+3pYy4hLv3O3lUCGwJS22N8kNFS28UPzwq+LrthK54kZ5AABPG39rLV2xOVIo7w6wMnHj8HRqjO927pB54/6K1ykl37hyq7v7sMLh39+6BYCzuMuCWflKzqW8fjyautcQXXGb4/WLMSoXFP0WyHfPbW+WeU9Jurmcb3rKOwAAbASdV9RVWWAV8r528Gakqtpa+gxjV210LmQy71e3LbDnk1t3uA+Y/UDqiJ2MAOj58q0kMn75FiPqTx1j5W+0LYaHlHV4T2o02AhVSezc6J4o5iXCSbCdiApx6e1P6rYTaYoblfG3HdF2kI1qCSn39DA+daTek8a1R+PubojKK9GG6sOP4ythspB+BG7vAHQFcU03W2tF05MsarxsNT/b0SY8M81oOdhXmPuPd2RVZvdNt9sZveqv+OzuOWrdbYcUjriMU+z140+lqsatkN1qXRxrZJjbz7LPoIZMkafu+NubCTI4dJ9W/9gDbyYAwIbSfdd3mbeZbXkgH4Oy7QCeB+KtJ/bYbQsqtu7Q/PO2OpBFt2QkNsjXXd5WEu5jbd2sVyZopfV8aDBsmm+LkSMCz57MXV4WITTz0nVxn8wtcZUmZOTWjgqFGIVTXBFz4UQENVZCbR08RkfpAgtIxpBWvv2Jxr/Bti1FpdvB9bJk25HSLWV0brh954uyeq+s3WAWCurnPQW4DX2Z5QWHfyC/U+MkCzTKu4PtWCrCr4ivMKJGS7i9A/DU8Ny55ci+p2ULsYnx0jOiN6ZteLLuiPed1296tO2Xeh39RLZ/MffICu+BZ9YQwlHjRUFZNt+SzFhbifvGeMaAKN/1CEbd3beqiQE4MUc92L/ebi0VuLhL+Ldp/s5z6s0JAHhqdH57NgCeT2TUvGw7nmcZTvc5ouO+8LgubNR7GFnzoWpLoIaIcaG4zZHUE2zPBgAAAACwGXimtmcD4PnFWP7rtmF7pvhllWgjXLvX+T3BonCvztGenwZT0iU89aDxlXRd9LGXTz0AAAAAAADPDBhRBwAAAAAAAAAA1hmMqAMAAAAAAAAAAJsUKOoAAAAAAAAAAECHgKIOAAAAAAAAAAB0CCjqAAAAAAAAAABALbLjTr6toyz4O2u3zSzf/rc/sJgcAAAAAAAAAACwzmAxOQAAAAAAAAAAYJMCRR0AAAAAAAAAAOgQUNQBAAAAAAAAAIAOAUUdAAAAAAAAAADoEFDUAQAAAAAAAACADgFFHQAAAAAAAAAA6BBQ1AEAAAAAAAAAgA4BRR0AAAAAAAAAAOgQW9YY+xsAAAAAAAAAAABPGYyoAwAAAAAAAAAAHQKKOgAAAAAAAAAA0CGgqAMAAAAAAAAAAB0CijoAAAAAAAAAANAhoKgDAAAAAAAAAAAdAoo6AAAAAAAAAADQIaCoAwAAAAAAAAAAHQKKOgAAgO7w1yLNbNlCM98/sicMN84Wz9HPn9KWLTO0+Jf92z67JXHos3r9U7phb1fiZ84GV+nR9zN83nuHcoM+LZwzcdxyaJGimPO9W+jTn+2fNcRh6PsLYfrnTfh+Ws3h4ldyPREmh0qLh/halAcZmt9+OH5e1sUjxORr+b3p634+psrAxj+7v2384nuiuuJRHz8myq+w/rYpF6HJ/SXlV9YuvPu03vG5Qj11abD3lqW77npt/a9qh4l2a+KbOCfP2bCq+pC+0lFaNv0S11fvkHcl0t0aDaPYBv28KBCXRat01/QhDaiMWx1SX218tQwHiEcdG1NHqhkor9rg1UVJ94a8sw/6yw/Tt6b6KD+8DcvrCCjqAAAAOsfS7Dc1AioLhF/cooUzRFf/az+eL83S1bU1WuPj4eI00cFL9ND+ffXtreYeHxHqXr5KM3+ae+S4TuMJYWuJDl+oEfhYkPn81wVaoKu0klBMG5EIY+u/Z2j6ShzmI1r5YYmm3+qRS9XCjTwN5rhKsy/Zi0x4/SFdosP0fix0/PwNHX6N3//JSiHvVSgdu0WXvLx6uHiLxqO8qotHgFc+etzYS4c/9MIrXF+gk2NliosoCNs4/te9+4nGI0WnPH4irI3TrcWH2TVNX5WiFMePj4/fMJdMfhFdz649pJkfthUUh0bl4lGI/+XZrA5UlR/RdFB2a2vX+b7xQDidPjhNJ/8TPnnjPyf1fEAi3WunOLGOVuXG1LXDl3bSXrpF97I28Iju/TrN8TpJK1n85Rznz5t5PGr7kJbpuP7aYdo2VEVsK81etuH/eYlLyCsjv1w3ElHIXj5Me7161irdlXWwGWOnSvrrLrLudaR7yDeJflh5ptPYJaCoAwAA6Bgs6J05SeNVoyF/rbA6O0PvzbHQUKvUpxBF/yQrPqEiOXbKKEvf+Nb1MyJ4hkpNzKP/XiV66z167y2qV+pLSIbxUo9mDi7lxghB0n5lmmb+3a8wu5V6b03T0u/37N8GUcoW3vyYepz3nwfK4g36ZnapkFdb3/6IFgpGhAFghWz6yj0KY+XxRo9rhq+weYiCcGWBrvuK1hsf0/VCWkr46x6HHOappo98ZbApkl/EStfHlMdGlDJRjj9PehgY0uXSlPLySzHG9xHduufd99ZMpGDdoJVPFmiG6+NAVJVbo3YocfXagG37H3Fe5YYFrjdc/j1rKGnUh7Rk7BSX35Wob9gA7mUjt9HIuO+xMSzlkNsBt3QvHzndc5cSxsI0VXUwH4GeoU/P8m9bNjpSechckxHLeORS/nbpNH2wGbXP+2MxshXzZhv3WcT9tr7HG2kXNC4l73fn3DvbjKIW64iJaxh/xsZnMXuPb8gKn8njbc67uP4PzsPxT8Qgtc3Lt8Xc84bT5+e5nz/p9Nl8PevVK80jzt+XD3O94PYk8RTDmddP63v5mcwLoyS+ftm58JvlR3V8y/JDKC9HLx5nV+y5EMm7ODyilSB/c0rSNQSgqAMAAOgcPRF4KpQao9T2aOtLs/QRC4WtlSlVdkOB1LCVdr5G0chijz6WUcEvyoRhGeEmVfJUuetrNKksDKu8eSMYkvalMx+Vj1TXYkfk/7XT/i0YpUzyQwTzYMTk5xUW0VJ5NUYfV42Yt0TTdXAn+bEK0HjspZ2J94mCQGd6nmJsaDw6Zw0ih1/2hSxJXz5K3hiJ58EZ6hXiyWmLjS4BqXJpSkX5JZH7ifbu9PNG4ue1JUkH52nP/tk3FeXWtB2OvbmQGzBEmXxtJ42Jt8mv90w6Nc/DulPXh7QnYdxYd07SVfrajNae4frpPE5k5DvzcDFGjW2B4tAnalQRhcxT7NRTqUk7r6iDHN/31Xgl8f2IFWhWoj2WaEZHpuO2qsoSWS+ZPy/RrSrPDJ83PjZeVWf4Wd94V4L/fn3nr3aknN9JrKg1V7zCOnLjrOflo54lXr6yQn/1X8aDRwyKzqgUPCOeL5FxaOm1j/Ta/zx1lZ8jml58mOXb0uw96tl4T38yTtt+N/dq3bHG37r0nfx1p7nG8SVtP9wPqsfHAl1fE+OjpDH85i5xX/KRe29JfKUf7Sc/jMIs707Htyw/qtKp8eBWo9felFZWZOvb9fkbhFeWrgGBog4AAKCDjNF7ixS6QmfkSq0gQnzssjsIO/8VufoKb7xX7pZsR/iMYlYUYhpREYZxf3cjGEaZ8118hZNjuTVfD2/0SAivG6EiEIqtUqahitLKsQlG0HwlSJQE712BkFcTjwAWzLZ5926b3UvXfZff6LpxvfdHqUOaKLjl8bNuyCpk5df9tBWI4heO2KQwyqdPbblEhPd7Sktd+cn0jZf9Z42bf2iE2KlGIdeWzOhoIrfjcuEjyKeW5VZG0A7F28Iar7J4eel8dO9WMBXEUNWHMHXp6AS5l4f0cw5j1HL9BdfdD/maM1oMhDFOPZR8y+pLQ6Wjog6GxkUpl6iPfW1nVHZC1NepwaB9PWpE9n5rLHN1SQ3B/RpnjDEsi798Qw4ueZ4lC/SRbevqtWDrtxgXc+OCGM/sT0tlP5flv0wXmaZLcyacvC3Vpy+7pkabNIVvrl/upfHtLz/u/c7xXXzPhm/i6787nR9V6bTTZD603xqNh/xoQDKddekaDCjqAAAAOsnWt78uuqELOgrnKR5jJ4n6GsVuAwvDX4hVvuhmr0KoJ/SLu1xbw0FlGCoUWMXdunjHI5CVc5eZ7LqOjOQCnENHpMVNVN/PCiPnbzDy67ukq8As4T0sCDh18QgozBGOhHDvuoxsUI0XQROX8dr4vfFxfo3z6lbVyEgU/yoFu4y6cokJ45/nV235Sdhu/rOMlHlCsY8ahVThE+FzOj0KXii3yOugotx8V9TQdbQGbQPiPi9Ctqv/YvgwArEI86F3gKG0DxHq0lHACPgbS4knguAbGqQPrJo20hIZTczyRdaOeLl+JLuqDkr5VJFWtmQ6g/25zsTvF3dnV0/V/bnxdJRiHcmNa5InnlJc5j0UGELNMz6peu6oVOI9qtJXFX6GGM48w1DVe+Pw2uVHMT9jQ3pVfNPp7L9eVaWzNF0DAkUdAABARzEjRbIQlT+L7MaFw7QkLo2egN14LrLDV34D0iPWilrlxSUviI2dv53HxSzU1cblti6M3A1YhOFsdKEfOA1f62iZJ3izYPg5K2XBYmPqKmiNEtYdtrWXwBDRuZ+sBJSNWutoY8JYI+6P9SPdjMyRjBVHrSN9jIxIfiXn9Brl158Hn5Eql6bUlV+MnbsfLwSoSJplJPR7cSWfSbjvtyMuNx0tdHGUUcPG7VCmgLCI/V/xPMkFein3W/dueMp7TLoP6Q8j4DdSZDaCqA8sGLoEHVmNKTc4JNtL5RoDlpo6mPRSqqU4mpxE15doR53hoGDQa+A+b4jrSJQnfGQGPd+womsDCI9o8cPDRNmilkVj6DDoP30W10+07Rtb50fRC6mu7HzS6WxYr1pRka4B2VSKurHEDs/vfz2Rzs5ZcfQYxtyh9SRaaAMAMCSkbWk/0IcAXkVmdR9yuF3DKhUnP7F/c2oDNzOLCIL+PO56nAAfflPc3LX3SkbWjOLB8bF/m/m3sZIggkDVXOSIBmEYRXScxssUvRboKCMrR86wEbrRWlTAdwqUcVWN8+rR9+8XRnvWjzFdJ6B0JW91N8znNSrc9rbN5lMkKhFlhPM3cH1W74WSUeVKrMt1oHTLYkPjdLLCKyAul6bUl1+R8oXRzCj14dmTCVfyfqgptxbtcOvOvXTrB7s2hT0n6aTfV+jea9YlNUWhD+mPG2e5/A6W9w0biXo+eMZAlY+TMpzpR4IFLm29TrULXdF79v2onX/ONaliZJ+pq4NhfI1hsp7cQKnoNy+vJ+68vlt/1ZAZz8w3JI1ZEyRfj8Rs3dXI2MeEdUSmMHl5b7/ZeR+Tt0/1RnBu1T5aVvb3UBgsfTnGcNb4G6f0lx/6bXf9hxqEit//IlXpjK4NnMd16RqMzaOo28LZLJg5Ffk2L62tVRuNuPs9re1AAHjWURfLIc+tU/djFrbtn88yqlTY32mllj+9Oo+7xMW1DOn3/pyhq97cXV24qLIvNIqHIy1gGUHAV07CucXhR7xRGG6+YMkoZxx+/I4QoxwtqUAezeXLEOGDw7XCjLrCRnmlc8r5++a7C7eLR0tSyngGp+nyQ7r0q3O95UPnRoeLYJXHT+bmXud/vGuJ55ui+cXRHM/es42uvsUyQaUs4JeLPVVLs/Ir4owvRUOfmQtdYRDyXa7dUWXoryw3pmk75Daw90rk4i4je7+epFs1Lr9BH+KoS0d0XRem6oqcJP2/uqTbuMliW8m41bcLHVhyZSPhJtu5/X6pEhLXmQZ1MPMYkTBXaGc8R70EXf3fxV23jZN4c5q+MIt5yfn3aSb5HRTDTrbquxprWJlq8H5dREy2WdP0i3GtYt2ImjoSx19GyrP+8iDH+gvvOe0bXB9gXbb/0+N4l7tRGyXWX5W8nlbpc1iji79dpeRv8ykBhvb5YeMrHkCpZyL8/KhKp5sSo9e+2EmXZIpOgqb5W5muQWElchPwcO3SQVqT6PLHY+3Sn/Z0ZzHxXbhh/1x3vPw5uLC24N7956W1ac6vab22sMYC1drajQWbj+bI4ijnD17ikNbWuFNYmz6zwM+6MM15AEAfeG2r2DdcX1vw+jRpe1n7PKMt1lDWbvV527YBAACAzmO+g9OLz7FkGcgFAPlRzqYYUTfudQt0qaEF7ulj5qjklvv1dU3V/CEZsVujtQ/5vYELxxLt/VBG9T+mMbGEqiXVjPLL1hVl1vaqrRYAAOvAz5/mW4nIvLRfrZtgi3YLAAAAdI5sCpgc22p3NwAAGDaBom7mssjiOQPv5blR6MIW+cICpYu2DAW74ErpNgPe/Dp1lc3dndQtqIzkFgQAgI1B3BVtW23TbgEAAICuIdMb1Ahtj65PB11vMN00BPlRSucVdbcww9ebyfIWCda6H2ByBdhhYEbvywkXAAm2RpHtPEpousUDAGBI8Ifq4VtXs/lu/pyopu0WAAAAAAA8G3RcUbcrM9rFGrbpKpGyGMTmWPk9pHrFzP5psc2AuNbKgiPOouktiAQAeApE28roAlTaPh/SzA/bzCJXaLcAAAAAAM8dHVfUZRVWK5zyIXMzzV51+Wh1J5G5OJ6ru9nzN7HtwlDod5uBR7T4BUbmAHgapLaVCVbeVVLbQqHdAgC6jtkKKfMCcoc/BdBuYVS4x1/TJ76nzfNl120fq/1tYkpifr4kDZtki2AAwLPBplhMbtMRubD62wysB8E2A//ZGc1R93BbpGi83if6UFzy71G7zRUAAP1Tvq2MtuNsCx3ZyulrY5BEuwUAbEIWbuQDLbpAJssp7wfbHOVr+eSHtw2YbseVX9OtlgLluuJ5Jb5+Pdsr32znGE9JLG4zFqZBjo4PFAEAnim2cMcj2/2AZwX9uF2lma57HQDwvCAeNl/sXKf9d2XUZ4V6w96jHQAA+kb6pXH+J9xjX0art/3+kVlIrE5WkX6Tb8v27xb8Z6jm+ZLwZb2Pz//1kK6+TbR4yOxtn60+HjyTTgMAAGwkGFF/BggWmlILdMmHCwDwdNB1Noa8TaMIlSxIwhEeANB97Gh104Vq3+jRAvdu476rebRQb3vMukd7d4pibqYNLv2wko3Q61SkMx9BfgIAdAYo6s8AY6dC1yxYfwHoENm2NEMe9VahdR3CBQCAIXByzBtESO6dLYsD+/fwka3TYdYoerhI3j3x/PCq54X4+jjdWnyYyUjG/d1NI7Jb3b4Z9qZhGvhIzGsHAID1Aoo6AAAAAAAYKtn87j8v0bTMF5+LTYqJOebRej75Thh83NjLirfvmVT3vHddd8tYoI98Q8FLPZo5eJJWdHcNWYh3gXrRQEdhjjr2egYAbCBQ1AEAAAAAwPrw0ix9rSPjzaf/yHz2mWDhOUbd4W/RvX5WXX/jY7p+5iSNByPiW2nna2YXjhv/OUnTi+/BOwkA0CmgqAMAAAAAgHVDd7U4eJI+j5XvEsQtnWbfD1zdH33/OZ2kvYltK5sxduo6LVw5TN/ICLpl7M0Fok/GafyTaZr5N8bKAQDdAoo6AAAAAABYR7bS7IcLtBQo34k55m4euqzB8ecMXfWub5vdG64CX/V8kjF6b3GaTo55I/s6Ss8cnKFewgBQmKPOh2zvBgB4npFdIfK+Rhb1dh5A4g0UrpUxGNieDQAAAAAAAAAA6BAYUQcAAAAAAAAAADoEFHUAAAAAAAAAAKBDQFEHAAAAAAAAAAA6BBR1AAAAAAAAAACgQ0BRBwAAAAAAAAAAOgQUdQAAAAAAAAAAoENAUQcAAAAAAAAAADoEFHUAAAAAAAAAAKBDbFlj7O8C//zzj/0FAAAAAAAAAACAfnnhhRfsr3owog4AAAAAAAAAAHQIKOoAAAAAAAAAAECHgKIOAAAAAAAAAAB0CCjqAAAAAAAAAABAh4CiDgAAAAAAAAAAdAgo6gAAAAAAAAAAQIeAog4AAAAAAAAAAHQIKOoAAAC6w9+XafbFF2n2ymN7wnDzXPEc/fIZvfjiLF3+2/5tn30xceizev0zumlvV+JnzgVX6fGVWT7vvUO5SZ8Vzpk4vvjOZYpizve+SJ/9Yv+sIQ5D318I0z9vwvfTag4Xv5LriTA5VLr8Dl+L8iBD89sPx8/LuniEmHwtvzd93c/HVBnY+Gf3t41ffE9UVzzq48dE+RXW3zblIjS5v6T8ytqFd5/WOz5XqKcuDfbesnTXXa+t/1XtMNFuTXwT5+Q5G1ZVH9JXOkrLpl/i+uod8q5EulujYRTboJ8XBeKyaJXumj6kAZVxq0Pqq42vluEA8ahjY+pINQPlVRu8uijp3pB39kF/+WH61lQf5Ye3YXkdAUUdAABA51g+8m2NgMoC4Ve36fQpomvX7cdz+yFafPKEnvBx9+Ik0fQFumv/Xjw4Yu7xEaHu1Ws09Zu5R44V6iWErWWa+65G4GNB5vyd03SartFqQjFtRCKMkfEpmlyKw3xMqz8u0+SBCXKpOv1TngZzLNKh7fYiE16/Sxdojo7FQscv39Lcbn7/2dVC3qtQuv82XfDy6u7F29SL8qouHgFe+ejx0x6aO+GFV7h+mub3lykuoiDs4vivePcT9SJFpzx+Iqz16PbFu9k1TV+VohTHj4/jr5tLJr+IVrJrd2nqx10FxaFRuXgU4v/doawOVJUf0WRQdk+erPB9vUA4nZyepPmV8MmbK/N6PiCR7icn9tmLTKtyY+ra4fYdtIdu04OsDTymB3cmOV7ztJrFX85x/vTyeNT2IS3TsbJ7jnYNVREboUPf2fB/u8Al5JWRX64biShkr87RHq+etUp3ZR1sxr4TJf11F1n3OtI95JtEP64+02nsElDUAQAAdAwW9E7NU69qNOTvVVZnp+jdd1hoqFXqU4iiP8+KT6hI7jthlKVvfev6KRE8Q6Um5vH1a0QH3qV3D1C9Ul9CMoztEzQ1vZwbIwRJ+9IkTY33K8yO0MSBSVr+47792yBK2enecZrgvD8fKIs36dsjy4W8Gjl4lE4XjAgDsH2UJpfuUxgrj9cnuGb4CpuHKAhLp2nFV7ReP04rhbSU8PcDDjnMU00f+cpgUyS/iJWu45THRpQyUY7PJz0MDOlyaUp5+aXYx/cR3X7g3XdgKlKwbtLq2dM0xfVxIKrKrVE7lLh6bcC2/aOcV7lhgesNl/+ENZQ06kNasu8El99S1DdsAA+ykdtoZNz32BiWcvj3feKW7uUjp/udCwljYZqqOpiPQM/SZ+f4ty0bHal8x1yTEct45FL+duk0fbAZtc/7YzGyFfNmF/dZxP22vscbaRc0LiXvd+fcO9uMohbriIlrGH/Gxudy9h7fkBU+k8fbnHdx/eR/zlLvrBikdnn5djn3vOH0+Xnu5086fTZfz3n1SvOI8/fVOa4X3J4knmI48/ppfS8/k3lhlMTXLzsXfrP8qI5vWX4I5eXoxePcqj0XInkXh0e0GuRvTkm6hgAUdQAAAJ1jQgSeCqXGKLUTNLL9EB1lobC1MqXKbiiQGkZox26KRhYn6LiMCn5VJgzLCDepkqfKXV+jSWVhWOXNG8GQtC+fOlo+Ul2LHZF/ZdT+LRilTPJDBPNgxOSXVRbRUnm1j45XjZi3RNM1PUp+rAI0HntoR+J9oiDQqQlPMTY0Hp2zBpG5V30hS9KXj5I3RuI5PUUThXhy2mKjS0CqXJpSUX5J5H6iPTv8vNnB8fPakqSD83TC/tk3FeXWtB3u653ODRiiTO7eQfvE2+TOA5NOzfOw7tT1Ie1JGDfWnXm6Rl+a0dpTXD+dx4mMfGceLsaosStQHPpEjSqikHmKnXoqNWnnFXWQ43tMjVcS36OsQLMS7bFMUzoyHbdVVZbIesn8doFuV3lm+Lx+3HhVneJnfeNdCf779Z137Eg5v5NYUWuueIV15OY5z8tHPUu8fGWF/torxoNHDIrOqBQ8I54vkXFoefdRvXbmfyzyc0STF+9m+bZ85D5N2HhPnu3Rrj/MvVp3rPG3Ln3zd0bNNY4vafvhflA9Pk7TyhMxPkoaw2/uMvclR917S+Ir/Wg/+WEUZnl3Or5l+VGVTo0Htxq91pNWVmTkYH3+BuGVpWtAoKgDAADoIPvo3YsUukJn5EqtIEJ87LI7CKOvRK6+wuvvlrsl2xE+o5gVhZhGVIQhrob5SLNR5nwXX2F+f27N18MbPRLC60aoCIRiq5RpqKK0cmyCETRfCRIlwXtXIOTVxCOABbNd3r27juyhFd/lN7puXO/9UeqQJgpuefysG7IKWfl1P20FoviFIzYpjPLpU1suEeH9ntJSV34yfeNV/1nj5h8aIUbVKOTakhkdTeR2XC58BPnUstzKCNqheFtY41UWLy+djx/cDqaCGKr6EKYuHZ0g9/KQfs5hjFquv+C6+wFfc0aLgTDGqbuSb1l9aah0VNTB0Lgo5RL1sbt3RGUnRH2dGgza16NGZO+3xjJXl9QQ3K9xxhjDsvjLN2R6me5neXmajtq2rl4Ltn6LcTE3Lohxz/60VPZzWf7LdJFJuvCOCSdvS/Xpy66p0SZN4Zvrl3tpfPvLj/t/cHwvvmvDN/H1353Oj6p02mkyH9hvjcZDfjQgmc66dA0GFHUAAACdZOTgl0U3dEFH4TzFY/88UV+j2G1gYficWOWLbvYqhHpCv7jLtTUcVIahQoFV3K2LdzwCWTl3mcmu68hILsA5dERa3ET1/awwcv4GI7++S7oKzBLe3YKAUxePgMIc4UgI967LyAbVeBE0cRmvjd/rx/NrnFe3q0ZGovhXKdhl1JVLTBj/PL9qy0/CdvOfZaTME4p9RrJRahE+J2k0ld+Fcou8DirKzXdFDV1Ha9A2IO7zImS7+i+GDyMQizAfegcYSvsQoS4dBYyAv7GUeCIIvqFB+sCqaSMtkdHELF9k7YhX60eyq+qglE8VaWVLpjPYn+tM/H5xd3b1VN2fG09HKdaR3LgmeeIpxWXeQ4Eh1Dzjk6rnjkol3qMqfVXhZ4jhzDMMVb03Dq9dfhTzMzakV8U3nc7+61VVOkvTNSBQ1AEAAHQUM1IkC1H5s8hufjdHy+LS6AnYjeciO3zlNyA9Yq2oVV5c8oLY2PnbeVzMQl1tXG7rwsjdgEUYzkYX+oHT8KWOlnmCNwuG51kpCxYbU1dBa5Sw7rCtvQSGiM79ZCWgbNRaRxsTxhpxf6wf6WZkjmSsOGod6WNkRPIrOafXKL/+PPiMVLk0pa78Yuzc/XghQEXSLCOhV8SVPOW+34643HS00MVRRg0bt0OZAsIi9nXxPMkFein32w9uesp7TLoP6Q8j4DdSZDaCqA8sGLoEHVmNKTc4JNtL5RoDlpo6mPRSqqU4mpxE15doR53hoGDQa+A+b4jrSJQnfGQGPd+womsDCI/p8ok5omxRy6IxdBj0nz6L6yfa9o2t86PohVRXdj7pdDasV62oSNeAbCpF3Vhih+f3v55IZ+esOHoMY+5QE6IFMwZGLXt9CA4AAIO0Se0HhtyOMqv7M94+rVIxf9b+zakN3MwsIgj687jrcQJ8+E1xc9feLRlZM4oHx8f+bebfxkqCCAJVc5EjGoRhFNEe9coUvRboKCMrR86wEbrRWlTAdwqUcVWN8+rxlWOF0Z71Y5+uE1C6kre6G+bzGhVue7uO5FMkKhFlhPM3cH1W74WSUeVKrMt1oHTLYkM9mq/wCojLpSn15VekfGE0M0o9d2Q+4UreDzXl1qIdjuzYQ7d/tGtT2HMyskd/rNL93dYlNUWhD+mPm+e4/KbL+4aNZEQ8HzxjoMrHSdnP9CPBApe2XqfahYRLR45F7fw816SKkX2mrg6G8TWGyXpyA6Wi37y8nrjz+m79VUNmPDPfkDRmTZB8PRKzdVcjYx8T1hGZwuTlvf1m531M3j7VG8G5VftoWdnfQ2Gw9OUYw1njb5zSX37ot931H/zM+cT3v0hVOqNrA+dxXboGY/Mo6rZwNgtmTkW+zUtraxUA4NlBXSyHPLdO3Y9Z2LZ/PsuoUmF/p5Va/vTqPO4SF9cyxM35tym65s3d1YWLKrdGMoqHIy1gGUHAV07CucXhR7xRGG6+YMkoZxx+/I4Qoxwtq0AezeXLEOGDw7XCjLrCRnmlc8r5++a7C7eLR0tSyngGp+m7u3ThjnO95UPnRoeLYJXHT+bmrhD51xPPN0XzS7eHc+HtomsHWCaolAX8crGnamlWfkWc8aVo6DNzoSsMQr7LtTuqBggqy41p2g65DexZilzcZWTvzjzdrnH5DfoQR106ouu6MFVl37CBSP+vLuk2brLYVjJu9e1CB5Zc2Ui4yXZuv1+qhMR1pkEdzDxGJMxVGo3nqJegq/+7uOu2cRJvTtM5s5iXnD9GU8nvoBh2slXf1VjDylSD9+siYrLNmqZfjGsV60bU1JE4/jJSnvWX0xzrr7zntG9wfYB12V6Z4HiXu1EbJdZflbyeVulzWKOLv12l5G/zKQGG9vlh4yseQKlnIvz8qEqnmxKj174apQsyRSdB0/ytTNeAbFlj7O8C//zzj/31tBFLtJunIe4F/X04Nw4T3/sf9LFabClRmDJKp3u0ms5TrKnnX7lLizu+NZWOK+ecGjbcKo0GuU/maQj+SoYmvGyMSN1Fjr8uFiiu3OZMEA4AoCHStrhNmo933DdIGztPo7ZP89tnsFptsn3KL3l+lSbQNgEAAGwKzHdQDFfDcg/edARyAXje8uOFF16wv+rZFCPqxr3uNF1oaIF7+pg5KrnlfhiuqWZ0xVnVdIXTabJzhmS+kWf9Xpqj+z0Zyb8bWLFLtyoQC6laWM3ov2xpYazw+6ItGQAA6wZ/qLL2KW33jnUTLG2fAAAAwCZAFDGVh+XYVbu7AQDAsAkUdTOXRRbPGXgvz41CF7bIFxYoXbSlJepmYudg3v9jDx39wM4PCbb1EfIVUUW5N0SuSdu9rQrUhTb3UlB3IQDAU0TcFW2bRPsEAACwmZHpDWqEtsfzPh1U8gOj6TnIj1I6r6i7hRm+3EyWt0iw1v0AkyvAtkRXkpVVEW/S6p1RGtVFVO6zon6flv09KMu2fGDSWxUYl9vM2um52AIANgj+UN09cC2b7+bPiUL7BAAAAAB4vui4om5XZrSLNezSVSJlMYjNsfJ7SPWKmc2QhTlu04NfHtBtUcxlcYc7D+jyynyDFRANya0KxOVWFiJx57yFkgAA60i0rYwuQKXt8C5N/WinpqB9AgAAAAA8d3RcUZdVWK1wyofMzdwUi8nJXBzP1d3s+VuxdUgLRl8huvbVNSJd4ZQV993X6Frp/qE+xg0+n9tatiXDY7r8FUbsAFhPUtvKBCvvKqltodA+AQBdx8gXmReQO/wpgHYLo8I9/po+8T1tni+77q3Zk1qpPj9fkoZNskUwAODZYFMsJrfpiFxY/W0GBmVE9rhcyveFFcV9uWr/UI/SrQrc1il6/hjRB+KqLy72TGJLBgBAv5RvK6PbhWRb6MiKuF8ag2RV+wQAgI4SevDd1e2QjgWDA/laPvlhF64VRVu348qvqfwSKNcVzyvx9ZVsr3yRpYpTEovbjBW8EL1pjQAAsN5sku3ZAABgkyIeNuu27Qi2ZwMAdA3pl3pE2TaSBhmt3vXHUTPlThXxazRV5iEp/aa3Ba3iP0M1z5eEn21le5CKW4QFz6TTAAAAg/LMbc8GAACbGl1nY8heKSJUimeM/RMAALqLHa3WaXsNkMVz1ZvPczWPFuptj1n3aM8OUczNdEC3k46gU5FOHR0gfAAAGC5Q1AEAYD3JtqUZ8qi3Cq3rEC4AAAyB+f1m+p+bzlPcO1sWB/bv4SNbp8OsUXT3Inn3xPPDq54X4us9un3xbjZCPqLu724akTEkxAvzhmngIzGvHQAA1gso6gAAAAAAYKhk87t/u0CTMl/8ndikmJhjHq3nk++EwcdPe1jx9j2T6p73rutuGafpqG8o2D5BU9PztKq7a3xLc0vFhXkLc9Sx1zMAYAOBog4AAAAAANaH7YfoSx0Zbz79R+azF3alUXf42/Sgn1XXXz9OK6fmqReMiI/Qjt1mF46bK/M0efFdeCcBADoFFHUAAAAAALBu6K4W0/N0vrAlbJoR2eHmyLHA1f3xlfM0T3toR59zyPedWKHTS3P0rYygW/b1ThOd7VHv7GS2mw4AAHQFKOoAAAAAAGAdGaFDH5ym5UD5Tswxd/PQZQ2O36bomnd915E94SrwVc8n2UfvXpyk+f3eyL6O0jPTUzSRMAAU5qjzIdu7AQCeZ2RXiLyvkd0knAeQeAOFa2UMBrZnAwAAAAAAAAAA1hlszwYAAAAAAAAAAGxSoKgDAAAAAAAAAAAdAoo6AAAAAAAAAADQIaCoAwAAAAAAAAAAHQKKOgAAAAAAAAAA0CGgqAMAAAAAAAAAAB0CijoAAAAAAAAAANAhoKgDAAAAAAAAAAAdYssaY38DAAAAAAAAAADgKYMRdQAAAAAAAAAAoENAUQcAAAAAAAAAADoEFHUAAAAAAAAAAKBDQFEHAAAAAAAAAAA6BBR1AAAAAAAAAACgQ0BRBwAAAAAAAAAAOgQUdQAAAAAAAAAAoENAUQcAANAd/lqkmS1baOb7R/aE4cbZ4jn6+VPasmWGFv+yf9tntyQOfVavf0o37O1K/MzZ4Co9+n6Gz3vvUG7Qp4VzJo5bDi1SFHO+dwt9+rP9s4Y4DH1/IUz/vAnfT6s5XPxKrifC5FBp8RBfi/IgQ/PbD8fPy7p4hJh8Lb83fd3Px1QZ2Phn97eNX3xPVFc86uPHRPkV1t825SI0ub+k/MrahXef1js+V6inLg323rJ0112vrf9V7TDRbk18E+fkORtWVR/SVzpKy6Zf4vrqHfKuRLpbo2EU26CfFwXismiV7po+pAGVcatD6quNr5bhAPGoY2PqSDUD5VUbvLoo6d6Qd/ZBf/lh+tZUH+WHt2F5HQFFHQAAQOdYmv2mRkBlgfCLW7Rwhujqf+3H86VZurq2Rmt8PFycJjp4iR7av6++vdXc4yNC3ctXaeZPc48c12k8IWwt0eELNQIfCzKf/7pAC3SVVhKKaSMSYWz99wxNX4nDfEQrPyzR9Fs9cqlauJGnwRxXafYle5EJrz+kS3SY3o+Fjp+/ocOv8fs/WSnkvQqlY7fokpdXDxdv0XiUV3XxCPDKR48be+nwh154hesLdHKsTHERBWEbx/+6dz/ReKTolMdPhLVxurX4MLum6atSlOL48fHxG+aSyS+i69m1hzTzw7aC4tCoXDwK8b88m9WBqvIjmg7Kbm3tOt83Hgin0wen6eR/widv/Oekng9IpHvtFCfW0arcmLp2+NJO2ku36F7WBh7RvV+nOV4naSWLv5zj/Hkzj0dtH9IyHddfO0zbhqqIbaXZyzb8Py9xCXll5JfrRiIK2cuHaa9Xz1qlu7IONmPsVEl/3UXWvY50D/km0Q8rz3QauwQUdQAAAB2DBb0zJ2m8ajTkrxVWZ2fovTkWGmqV+hSi6J9kxSdUJMdOGWXpG9+6fkYEz1CpiXn036tEb71H771F9Up9CckwXurRzMGl3BghSNqvTNPMv/sVZrdS761pWvr9nv3bIErZwpsfU4/z/vNAWbxB38wuFfJq69sf0ULBiDAArJBNX7lHYaw83uhxzfAVNg9REK4s0HVf0XrjY7peSEsJf93jkMM81fSRrww2RfKLWOn6mPLYiFImyvHnSQ8DQ7pcmlJefinG+D6iW/e8+96aiRSsG7TyyQLNcH0ciKpya9QOJa5eG7Bt/yPOq9ywwPWGy79nDSWN+pCWjJ3i8rsS9Q0bwL1s5DYaGfc9NoalHHI74Jbu5SOne+5SwliYpqoO5iPQM/TpWf5ty0ZHKg+ZazJiGY9cyt8unaYPNqP2eX8sRrZi3mzjPou439b3eCPtgsal5P3unHtnm1HUYh0xcQ3jz9j4LGbv8Q1Z4TN5vM15F9f/wXk4/okYpLZ5+baYe95w+vw89/MnnT6br2e9eqV5xPn78mGuF9yeJJ5iOPP6aX0vP5N5YZTE1y87F36z/KiOb1l+COXl6MXj7Io9FyJ5F4dHtBLkb05JuoYAFHUAAACdoycCT4VSY5TaHm19aZY+YqGwtTKlym4okBq20s7XKBpZ7NHHMir4RZkwLCPcpEqeKnd9jSaVhWGVN28EQ9K+dOaj8pHqWuyI/L922r8Fo5RJfohgHoyY/LzCIloqr8bo46oR85Zoug7uJD9WARqPvbQz8T5REOhMz1OMDY1H56xB5PDLvpAl6ctHyRsj8Tw4Q71CPDltsdElIFUuTakovyRyP9HenX7eSPy8tiTp4Dzt2T/7pqLcmrbDsTcXcgOGKJOv7aQx8Tb59Z5Jp+Z5WHfq+pD2JIwb685Jukpfm9HaM1w/nceJjHxnHi7GqLEtUBz6RI0qopB5ip16KjVp5xV1kOP7vhqvJL4fsQLNSrTHEs3oyHTcVlVZIusl8+clulXlmeHzxsfGq+oMP+sb70rw36/v/NWOlPM7iRW15opXWEdunPW8fNSzxMtXVuiv/st48IhB0RmVgmfE8yUyDi299pFe+5+nrvJzRNOLD7N8W5q9Rz0b7+lPxmnb7+ZerTvW+FuXvpO/7jTXOL6k7Yf7QfX4WKDra2J8lDSG39wl7ks+cu8tia/0o/3kh1GY5d3p+JblR1U6NR7cavTam9LKimx9uz5/g/DK0jUgUNQBAAB0kDF6b5FCV+iMXKkVRIiPXXYHYee/Ildf4Y33yt2S7QifUcyKQkwjKsIw7u9uBMMoc76Lr3ByLLfm6+GNHgnhdSNUBEKxVco0VFFaOTbBCJqvBImS4L0rEPJq4hHAgtk2795ts3vpuu/yG103rvf+KHVIEwW3PH7WDVmFrPy6n7YCUfzCEZsURvn0qS2XiPB+T2mpKz+ZvvGy/6xx8w+NEDvVKOTakhkdTeR2XC58BPnUstzKCNqheFtY41UWLy+dj+7dCqaCGKr6EKYuHZ0g9/KQfs5hjFquv+C6+yFfc0aLgTDGqYeSb1l9aah0VNTB0Lgo5RL1sa/tjMpOiPo6NRi0r0eNyN5vjWWuLqkhuF/jjDGGZfGXb8jBJc+zZIE+sm1dvRZs/RbjYm5cEOOZ/Wmp7Oey/JfpItN0ac6Ek7el+vRl19Rok6bwzfXLvTS+/eXHvd85vovv2fBNfP13p/OjKp12msyH9luj8ZAfDUimsy5dgwFFHQAAQCfZ+vbXRTd0QUfhPMVj7CRRX6PYbWBh+Auxyhfd7FUI9YR+cZdrazioDEOFAqu4WxfveASycu4yk13XkZFcgHPoiLS4ier7WWHk/A1Gfn2XdBWYJbyHBQGnLh4BhTnCkRDuXZeRDarxImjiMl4bvzc+zq9xXt2qGhmJ4l+lYJdRVy4xYfzz/KotPwnbzX+WkTJPKPZRo5AqfCJ8TqdHwQvlFnkdVJSb74oauo7WoG1A3OdFyHb1XwwfRiAWYT70DjCU9iFCXToKGAF/YynxRBB8Q4P0gVXTRloio4lZvsjaES/Xj2RX1UEpnyrSypZMZ7A/15n4/eLu7Oqpuj83no5SrCO5cU3yxFOKy7yHAkOoecYnVc8dlUq8R1X6qsLPEMOZZxiqem8cXrv8KOZnbEivim86nf3Xq6p0lqZrQKCoAwAA6ChmpEgWovJnkd24cJiWxKXRE7Abz0V2+MpvQHrEWlGrvLjkBbGx87fzuJiFutq43NaFkbsBizCcjS70A6fhax0t8wRvFgw/Z6UsWGxMXQWtUcK6w7b2EhgiOveTlYCyUWsdbUwYa8T9sX6km5E5krHiqHWkj5ERya/knF6j/Prz4DNS5dKUuvKLsXP344UAFUmzjIR+L67kMwn3/XbE5aajhS6OMmrYuB3KFBAWsf8rnie5QC/lfuveDU95j0n3If1hBPxGisxGEPWBBUOXoCOrMeUGh2R7qVxjwFJTB5NeSrUUR5OT6PoS7agzHBQMeg3c5w1xHYnyhI/MoOcbVnRtAOERLX54mChb1LJoDB0G/afP4vqJtn1j6/woeiHVlZ1POp0N61UrKtI1IJtKUTeW2OH5/a8n0tk5K44ew5g7BADYfIgCoP1AHwJ4FZnVfcjhdg2rVJz8xP7NqQ3czCwiCPrzuOtxAnz4TXFz194rGVkzigfHx/5t5t/GSoIIAlVzkSMahGEU0XEaL1P0WqCjjKwcOcNG6EZrUQHfKVDGVTXOq0ffv18Y7Vk/xnSdgNKVvNXdMJ/XqHDb2zabT5GoRJQRzt/A9Vm9F0pGlSuxLteB0i2LDY3TyQqvgLhcmlJffkXKF0Yzo9SHZ08mXMn7oabcWrTDrTv30q0f7NoU9pykk35foXuvWZfUFIU+pD9unOXyO1jeN2wk6vngGQNVPk5OMzH9SLDApa3XqXahK3rPvh+188+5JlWM7DN1dTCMrzFM1pMbKBX95uX1xJ3Xd+uvGjLjmfmGpDFrguTrkZituxoZ+5iwjsgUJi/v7Tc772Py9qneCM6t2kfLyv4eCoOlL8cYzhp/45T+8kO/7a7/UINQ8ftfpCqd0bWB87guXYOxeRR1WzibBTOnIt/mpbW1CgDw7KAulkOeW6fuxyxs2z+fZVSpsL/TSi1/enUed4mLaxni5vznDF315u7qwkWVWyMZxcORFrCMIOArJ+Hc4vAj3igMN1+wZJQzDj9+R4hRjpZUII/m8mWI8MHhWmFGXWGjvNI55fx9892F28WjJSllPIPTdPkhXfrVud7yoXOjw0WwyuMnc3Ov8z/etcTzTdH84miOZ+/ZRlffYpmgUhbwy8WeqqVZ+RVxxpeioc/Mha4wCPku1+6oWougstyYpu2Q28DeK5GLu4zs/XqSbtW4/AZ9iKMuHdF1XZiqsm/YQKT/V5d0GzdZbCsZt/p2oQNLrmwk3GQ7t98vVULiOtOgDmYeIxLmCu2M56iXoKv/u7jrtnESb07TF2YxLzn/Ps0kv4Ni2MlWfVdjDStTDd6vi4jJNmuafjGuVawbUVNH4vjLSHnWXx7kWH/hPad9g+sDrMv2f3oc73I3aqPE+quS19MqfQ5rdPG3q5T8bT4lwNA+P2x8xQMo9UyEnx9V6XRTYvTaFzvpkkzRSdA0fyvTNSisRG4CHq5dOkhrEl3+eKxd+tOe7iwmvgs37J8bzZ+X1rgLMvl18BLHxnJjweZheJ47gbXpg9N6fnrxofn7zEI6DABAO6TdZW0o7huury14fZq0vayNnmEVyOG3XT7C5xf4/wAAAMBmwHwHRd58bgnkAoD8KGdTjKgb97oFutTQAvf0MXNUcsv9Rrqmyn6HV2nGzpUQa5KuUixW0LGTdr7GQ2NJ8qzb8dYYVVstAADWgZ8/zbcSkTb6q3UT1LYrIyCmTcuWM+WjZAAAAEDHyKaAybGtdncDAIBhEyjqZi6LLJ4z8F6eG4UubJEvLFC6aMt6IG6hnmtktoesLMyQzZsxrjXBwjvx1hjJLQgAABuDuCta10R1cc/dFNWdDwAAANgsyPQGNULb43mfDir50ZVpFF0A+VFK5xV1tzDD15vJ8hYJ1rofYHIF2OEje4mmKJx/aSf5/gnxlgNNt3gAAAwJ/lA9fOtqNt/NnxMVbGkk2/AAAAAAAIBnmo4r6nZlRrtYwzZdJVIWg9gcK7+HVK+YOSzKRtsK57OtDwAATw31vsnRBah0xOEhzfywzSxyJS7xslCQG4nwFjIDAAAAAADPJh1X1GUVViuc8iFzM81edflodSeRuTieq7vZ8zex7cJ6ICPl3ui9jsTJXHQ97+aaP6LFL0q2ggAArDupbWWClXeV1LZQtu0CAEBnMVsh5XOS7eFPAbRbGBXu8df0ie9p83zZddvHan+bmJKYny9JwybZIhgA8GywKRaT23RELqz+NgPrTrxlh3u3npe9SuW82Z90w+IEALCUbyuj24VkW+jIVk5fG4Ok29pIz79P9KFMpblH7TZFAQCAjcUsXusOs4itLm6bka/lkx/eNmC6HVd+TbdaCpTriueV+Pr1bK98s51jPCWxuM1YmAY5Oj5QBAB4ptjCHY9s9wMAAGA9EA+bL3au0/67MuqzQr1h79EOAAB9I/3SOP8T7rEvo9Xbfv/ILCSmirjsUFOi+Eq/ybdl+3cL/jNU83xJ+OJl+Pm/HtLVt4kWD5m97bPVx4Nn0mkAAICNBCPqAACw3ug6G0PeplGEShYk4QgPAOg+drS66UK1b/RogXu3cd/VPFqotz1m3aO9O0Ux30q9t6Zp6YeVbIRepyKd+WiA8AEAYLhAUQcAgPUk25ZmyKPeKrSuQ7gAADAEzFQ7d6T2zpbFgf17+MjW6TBrFD1cJO+eeH541fNCfH2cbi0+zEbIjfu7m0ZkDAkLb4a9aZgGPhLz2gEAYL2Aog4AAAAAAIZKNr/7z0s0LfPF52KTYmKOebR2Tr4TBh+6/o7vmVT3vHddd8tYoI98Q8FLPZo5eJJWdHeNb+jwlQXqRW7uhTnq2OsZALCBQFEHAAAAAADrw0uz9LWOjDef/iPz2WeChecYdYe/Rff6WXX9jY/p+pmTNB6MiG+lna+ZXThu/OckTS++B+8kAECngKIOAAAAAADWDd3V4uBJ+jxWvksQt3SafT9wdX/0/ed0kvYmtq1sxtip67SQbVNrGHtzgeiTcRr/ZJpm/o2xcgBAt4CiDgAAAAAA1pGtNPvhAi0Fyndijrmbhy5rcPw5Q1e969tm94arwFc9n2SM3lucppNj3si+jtIzB2eolzAAFOao8yHbuwEAnmdkV4i8r5HdJJwHkHgDhWtlDAa2ZwMAAAAAAAAAADoERtQBAAAAAAAAAIAOAUUdAAAAAAAAAADoEFDUAQAAAAAAAACADgFFHQAAAAAAAAAA6BBQ1AEAAAAAAAAAgA4BRR0AAAAAAAAAAOgQUNQBAAAAAAAAAIAOAUUdAAAAAAAAAADoEFvWGPu7wD///GN/AQAAAAAAAAAAoF9eeOEF+6sejKgDAAAAAAAAAAAdAoo6AAAAAAAAAADQIaCoAwAAAAAAAAAAHQKKOgAAAAAAAAAA0CGgqAMAAAAAAAAAAB0CijoAAAAAAAAAANAhoKgDAAAAAAAAAAAdAoo6AACA7vD3ZZp98UWavfLYnjDcPFc8R798Ri++OEuX/7Z/22dfTBz6rF7/jG7a25X4mXPBVXp8ZZbPe+9QbtJnhXMmji++c5mimPO9L9Jnv9g/a4jD0PcXwvTPm/D9tJrDxa/keiJMDpUuv8PXojzI0Pz2w/Hzsi4eISZfy+9NX/fzMVUGNv7Z/W3jF98T1RWP+vgxUX6F9bdNuQhN7i8pv7J24d2n9Y7PFeqpS4O9tyzddddr639VO0y0WxPfxDl5zoZV1Yf0lY7SsumXuL56h7wrke7WaBjFNujnRYG4LFqlu6YPaUBl3OqQ+mrjq2U4QDzq2Jg6Us1AedUGry5KujfknX3QX36YvjXVR/nhbVheR0BRBwAA0DmWj3xbI6CyQPjVbTp9iujadfvx3H6IFp88oSd83L04STR9ge7avxcPjph7fESoe/UaTf1m7pFjhXoJYWuZ5r6rEfhYkDl/5zSdpmu0mlBMG5EIY2R8iiaX4jAf0+qPyzR5YIJcqk7/lKfBHIt0aLu9yITX79IFmqNjsdDxy7c0t5vff3a1kPcqlO6/TRe8vLp78Tb1oryqi0eAVz56/LSH5k544RWun6b5/WWKiygIuzj+K979RL1I0SmPnwhrPbp98W52TdNXpSjF8ePj+OvmkskvopXs2l2a+nFXQXFoVC4ehfh/dyirA1XlRzQZlN2TJyt8Xy8QTienJ2l+JXzy5sq8ng9IpPvJiX32ItOq3Ji6drh9B+2h2/QgawOP6cGdSY7XPK1m8ZdznD+9PB61fUjLdKzsnqNdQ1XERujQdzb83y5wCXll5JfrRiIK2atztMerZ63SXVkHm7HvREl/3UXWvY50D/km0Y+rz3QauwQUdQAAAB2DBb1T89SrGg35e5XV2Sl69x0WGmqV+hSi6M+z4hMqkvtOGGXpW9+6fkoEz1CpiXl8/RrRgXfp3QNUr9SXkAxj+wRNTS/nxghB0r40SVPj/QqzIzRxYJKW/7hv/zaIUna6d5wmOO/PB8riTfr2yHIhr0YOHqXTBSPCAGwfpcml+xTGyuP1Ca4ZvsLmIQrC0mla8RWt14/TSiEtJfz9gEMO81TTR74y2BTJL2Kl6zjlsRGlTJTj80kPA0O6XJpSXn4p9vF9RLcfePcdmIoUrJu0evY0TXF9HIiqcmvUDiWuXhuwbf8o51VuWOB6w+U/YQ0ljfqQluw7weW3FPUNG8CDbOQ2Ghn3PTaGpRz+fZ+4pXv5yOl+50LCWJimqg7mI9Cz9Nk5/m3LRkcq3zHXZMQyHrmUv106TR9sRu3z/liMbMW82cV9FnG/re/xRtoFjUvJ+9059842o6jFOmLiGsafsfG5nL3HN2SFz+TxNuddXD/5n7PUOysGqV1evl3OPW84fX6e+/mTTp/N13NevdI84vx9dY7rBbcniacYzrx+Wt/Lz2ReGCXx9cvOhd8sP6rjW5YfQnk5evE4t2rPhUjexeERrQb5m1OSriEARR0AAEDnmBCBp0KpMUrtBI1sP0RHWShsrUypshsKpIYR2rGbopHFCTouo4JflQnDMsJNquSpctfXaFJZGFZ580YwJO3Lp46Wj1TXYkfkXxm1fwtGKZP8EME8GDH5ZZVFtFRe7aPjVSPmLdF0TY+SH6sAjcce2pF4nygIdGrCU4wNjUfnrEFk7lVfyJL05aPkjZF4Tk/RRCGenLbY6BKQKpemVJRfErmfaM8OP292cPy8tiTp4DydsH/2TUW5NW2H+3qncwOGKJO7d9A+8Ta588CkU/M8rDt1fUh7EsaNdWeertGXZrT2FNdP53EiI9+Zh4sxauwKFIc+UaOKKGSeYqeeSk3aeUUd5PgeU+OVxPcoK9CsRHss05SOTMdtVZUlsl4yv12g21WeGT6vHzdeVaf4Wd94V4L/fn3nHTtSzu8kVtSaK15hHbl5zvPyUc8SL19Zob/2ivHgEYOiMyoFz4jnS2QcWt59VK+d+R+L/BzR5MW7Wb4tH7lPEzbek2d7tOsPc6/WHWv8rUvf/J1Rc43jS9p+uB9Uj4/TtPJEjI+SxvCbu8x9yVH33pL4Sj/aT34YhVnenY5vWX5UpVPjwa1Gr/WklRUZOVifv0F4ZekaECjqAAAAOsg+evciha7QGblSK4gQH7vsDsLoK5Grr/D6u+VuyXaEzyhmRSGmERVhiKthPtJslDnfxVeY359b8/XwRo+E8LoRKgKh2CplGqoorRybYATNV4JESfDeFQh5NfEIYMFsl3fvriN7aMV3+Y2uG9d7f5Q6pImCWx4/64asQlZ+3U9bgSh+4YhNCqN8+tSWS0R4v6e01JWfTN941X/WuPmHRohRNQq5tmRGRxO5HZcLH0E+tSy3MoJ2KN4W1niVxctL5+MHt4OpIIaqPoSpS0cnyL08pJ9zGKOW6y+47n7A15zRYiCMcequ5FtWXxoqHRV1MDQuSrlEfezuHVHZCVFfpwaD9vWoEdn7rbHM1SU1BPdrnDHGsCz+8g2ZXqb7WV6epqO2ravXgq3fYlzMjQti3LM/LZX9XJb/Ml1kki68Y8LJ21J9+rJrarRJU/jm+uVeGt/+8uP+Hxzfi+/a8E18/Xen86MqnXaazAf2W6PxkB8NSKazLl2DAUUdAABAJxk5+GXRDV3QUThP8dg/T9TXKHYbWBg+J1b5opu9CqGe0C/ucm0NB5VhqFBgFXfr4h2PQFbOXWay6zoykgtwDh2RFjdRfT8rjJy/wciv75KuArOEd7cg4NTFI6AwRzgSwr3rMrJBNV4ETVzGa+P3+vH8GufV7aqRkSj+VQp2GXXlEhPGP8+v2vKTsN38Zxkp84Rin5FslFqEz0kaTeV3odwir4OKcvNdUUPX0Rq0DYj7vAjZrv6L4cMIxCLMh94BhtI+RKhLRwEj4G8sJZ4Igm9okD6watpIS2Q0McsXWTvi1fqR7Ko6KOVTRVrZkukM9uc6E79f3J1dPVX358bTUYp1JDeuSZ54SnGZ91BgCDXP+KTquaNSifeoSl9V+BliOPMMQ1XvjcNrlx/F/IwN6VXxTaez/3pVlc7SdA0IFHUAAAAdxYwUyUJU/iyym9/N0bK4NHoCduO5yA5f+Q1Ij1grapUXl7wgNnb+dh4Xs1BXG5fbujByN2ARhrPRhX7gNHypo2We4M2C4XlWyoLFxtRV0BolrDtsay+BIaJzP1kJKBu11tHGhLFG3B/rR7oZmSMZK45aR/oYGZH8Ss7pNcqvPw8+I1UuTakrvxg7dz9eCFCRNMtI6BVxJU+577cjLjcdLXRxlFHDxu1QpoCwiH1dPE9ygV7K/faDm57yHpPuQ/rDCPiNFJmNIOoDC4YuQUdWY8oNDsn2UrnGgKWmDia9lGopjiYn0fUl2lFnOCgY9Bq4zxviOhLlCR+ZQc83rOjaAMJjunxijihb1LJoDB0G/afP4vqJtn1j6/woeiHVlZ1POp0N61UrKtI1IJtKUTeW2OH5/a8n0tk5K44eQ5g7pAs2tBFEU0QLagAA1hlpc9oP9CGAV5FZ3YccbtewSsX8Wfs3pzZwM7OIIOjP467HCfDhN8XNXXu3ZGTNKB4cH/u3mX8bKwkiCFTNRY5oEIZRRHvUK1P0WqCjjKwcOcNG6EZrUQHfKVDGVTXOq8dXjhVGe9aPfbpOQOlK3upumM9rVLjt7TqST5GoRJQRzt/A9Vm9F0pGlSuxLteB0i2LDfVovsIrIC6XptSXX5HyhdHMKPXckfmEK3k/1JRbi3Y4smMP3f7Rrk1hz8nIHv2xSvd3W5fUFIU+pD9unuPymy7vGzaSEfF88IyBKh8nZTvTjwQLXNp6nWoXEi4dORa18/NckypG9pm6OhjG1xgm68kNlIp+8/J64s7ru/VXDZnxzHxD0pg1QfL1SMzWXU1l77COyBQmL+/tNzvvY/L2qd4Izq3aR8vK/h4Kg6UvxxjOGn/jlP7yQ7/trv9Qg1Dx+1+kKp3RtYHzuC5dg7F5FHVbOJsFM6ci3+altbUKAPDsoC6WQ55bp+7HLGzbP59lVKmwv9NKLX96dR53iYtrGeLm/NsUXfPm7urCRZVbIxnFw5EWsIwg4Csn4dzi8CPeKAw3X7BklDMOP35HiFGOllUgj+byZYjwweFaYUZdYaO80jnl/H3z3YXbxaMlKWU8g9P03V26cMe53vKhc6PDRbDK4ydzc1eI/OuJ55ui+aXbw7nwdtG1AywTVMoCfrnYU7U0K78izvhSNPSZudAVBiHf5dodVQMAleXGNG2H3Ab2LEUu7jKyd2eebte4/AZ9iKMuHdF1XZiqsm/YQKT/V5d0GzdZbCsZt/p2oQNLrmwk3GQ7t98vVULiOtOgDmYeIxLmKo3Gc9RL0NX/Xdx12ziJN6fpnFnMS84fo6nkd1AMO9mq72qsYWWqwft1ETHZZk3TL8a1inUjaupIHH8ZKc/6y2mO9Vfec9o3uD7AumyvTHC8y92ojRLrr0peT6v0OazRxd+uUvK3+ZQAQ/v8sPEVD6DUMxF+flSl002J0WtfjdIFmaKToGn+VqZrQLasMfZ3gX/++cf+etqIJdrN0xD3gv4+nBuHie/9D/pYLbYCsZief+UC7Tkyx82FEbcn99GXUTuZo2QRdw99t5z/6jYLsMu0LMrCB/dpF1dK15FImDJvQ3ArG5r35KscSid+jL6sb8gAgCLaBl2bi/sGsfKep1Hbp/ntsVH71udXaWLYRgAAAABgXTDfQTFcPbdyZSAXgOctP1544QX7q55NMaJu3OtO04WGFrinj5mjklvuh+eaunzkGgv1Mkov7pfWTU8snGohNaP3siVFYEXnuEzJtagBiAKe2rpArOm5C6lYShu6DgIA+oc/VFl7lHlpd6ybYF37BgAAALqMKGIqD8uxq3Z3AwCAYRMo6mYuiyyeM/BenhuFLmyRLyxQumhLP0TbW+gcHXWBzb0M1N0nIDW3KHJV4jCyrQt0IRy7qEOwZRAAYGMQd0XbpmvbNwAAANBhZHqDGqHtUTkF5DlA8gOj6TnIj1I6r6i7hRm+3EyWt0iw1v0AkyvAtqdsawBdSMRZKz0XWaVsCwgmvXWBzCsyizrIIh3Bwi0AgPWBP1R3D1zL5rv5c6Iq2zcAAAAAAHjm6LiibldmtIs17NJVImUxiM2x8ntI9YqZTfEXbsi2KBCXWVlIxFkqvYWO6ijbokHc3+dXLsPtHYD1JNpWRheg0rZ4l6Z+NFNRBmnfAAAAAABgc9JxRV1WYbXCKR8yN3NTLCYnc3E8V3ez52/F1iFtyPaJTW9RJC7tl79qMuJWtXUBo1vVzNEc3N4BGDqpbWWClXeV1LZQTds3AAA8LYw8kXkBucOfAmi3MCrc46/pE9/T5vmy67aP1f42MSUxP1+Shk2yRTAA4NlgUywmt+mIXFj9bQYGZfLiKK1quD267Zb/d1uf6PljRB+Iq72dY15B9RYNZluN4eyjCgAwlG8ro9uFZFvoyIq4XxqDZJ/tGwAAniahx95d3Q7pWLDNUb6WT35424Dpdlz5NZVXAuW64nklvp4vwjui2znGUxKL24wVvA69aY0AALDebJLt2cDGE24bBQDoE/GwWbdtR7A9GwCga0i/1CPKtpE0yGj1rj+Omil2qohfo6kyGUP6zf2U798t+M9QzfMl4efbz1Jxi7DgmXQaAABgUJ657dnABiMfKx2xtyN6AIDB0HU2hrdNo2LbKRzhAQDdx45WlyyIW0Cm33Hv1vNdzaOFettjpgzu2SGKuZn+l29FyzGUqUjZzjoAAPD0gaIOiujH8An2uARgGGTb0gx51Nu206GHCwAAQ2B+v0zXcUdq72xZHNi/h49snQ6zRtHdi+TdE88Pr3peiK97UwaZEXV/d9OIjCEhXvcnTAMfiXntAACwXkBRBwAAAAAAQyWb3/3bBZqU+eLvxCbFxBzzaD2ffCcMPn7aw4q375lU97x3XXfLOE1HfUPB9gmamjZb0dIv39Lc0mmaiNzcC3PUsdczAGADgaIOAAAAAADWh+2H6EsdGW8+/Ufms2e70DjUHf42Pehn1fXXj9PKqXnqBSPiI7Rjt9mF4+bKPE1efBfeSQCATgFFHQAAAAAArBu6q8X0PJ2Ple8SRsaniI4cC1zdH185T/O0h3b0OYd834kVOr00R9/KCLplX+800dke9c5O0tQ4xsoBAN0CijoAAAAAAFhHRujQB6dpOVC+E3PM3Tx0WYPjtym65l3fdWRPuAp81fNJ9tG7Fydpfr83sq+j9Mz0FE0kDACFOep8yPZuAIDnGdkVIu9rZDcJ5wEk3kDhWhmDge3ZAAAAAAAAAACAdQbbswEAAAAAAAAAAJsUKOoAAAAAAAAAAECHgKIOAAAAAAAAAAB0CCjqAAAAAAAAAABAh4CiDgAAAAAAAAAAdAgo6gAAAAAAAAAAQIeAog4AAAAAAAAAAHQIKOoAAAAAAAAAAECH2LLG2N8AAAAAAAAAAAB4ymBEHQAAAAAAAAAA6BBQ1AEAAAAAAAAAgA4BRR0AAAAAAAAAAOgQUNQBAAAAAAAAAIAOAUUdAAAAAAAAAADoEFDUAQAAAAAAAACADgFFHQAAAAAAAAAA6BBQ1AEAAAAAAAAAgA4BRR0AAAAAAAAAAOgQUNQBAAAAAAAAAIAOAUUdAAAAAAAAAADoEFDUAQAAAAAAAACADgFFHQAAAAAAAAAA6BBQ1AEAAAAAAAAAgA7RSUX9xtkttGXLp3RD/vj5U/69hT79mX//tUgz/Hvm+0dyBQAAAAAAAAAAeObAiPqwUCOCNS7w/z/dMkOLf+kf9Oj7Gdpy1lzpJhXxDdIFANh4wvYphkxnrOx+3wIAAJsJyEMAgDo2Ti7bssbY3wAAAAAAAAAAAHjKYEQdAAAAAAAAAADoEFDUAQAAAAAAAACADgFFHQAAAAAAAAAA6BBQ1AEAAAAAAAAAgA4BRR0AAAAAAAAAAOgQUNQBAAAAAAAAAIAOAUUdAAAAAAAAAADoEFDUAQAAAAAAAACADrFljbG/C/zzzz/2FwAAAAAAAAAAAPrlhRdesL/qwYg6AAAAAAAAAADQIaCoAwAAAAAAAAAAHQKKOgAAAAAAAAAA0CGgqAMAAAAAAAAAAB0CijoAAAAAAAAAANAhoKgDAAAAAAAAAAAdAoo6AAAAAAAAAADQIaCoAwAAqOaXz+jFF19MHp/9Yu9hbp7zr83S5b/tBeHvyzSbPMf3nrtAn/G/s1ce2wuOm8XzUVyKz+Q8vjIb3KvHO5cpf8KEX7gnjiejaQueFczzfh5kuLQVjs/4qYrr5/RqRpyGqvQWwvTj22983PWIsKztEcVdqSkvDSf1nManWA4BNs5x/ifLPXGfI31/SR0ou65xCfMqzqPytpIfLn8a5y9TFlZQdnH5loSlJOtCRVju8MIsK4PCe0vK0PCYLr/jP+/nb7rt6Xur0sZU3qPxCcvWT0tZHQJNicvUOwr9a47U8cq+rylavuk+LY0X35p61ZShpWXIdDVeQ6V1+Vf1F6ZurHefAEUdAABANa8fpydPnuixcor/PrWS/X38dbnBfLB6lJ9/8tsUXXu14iMmH8xX52jPT3zviTk6/tsFoiPHAgH55rkezfO7Fg+O6N/6wdxPtOLe8eQuTf24q1qAmr5Ad7P7Of6752hXJBCeljh49zx5skiHttuLAsf1/J3TdJqu0WqV4lhgki78Fod9nPbZq8XrK3T6bC/LM0nvriN7vPSu0J4ju9LClJ+f9v5iWtvGJ74e4dUDKYsLd3pBWfRVXi24+R2n99Rpml9JhBeV+5Of+L79FQJa4f49NHfC5V37+i1Cb++OFybX79v7o/uD/DOHq+tKTf469p1w93D94b/z+mzLTowlr16jKa9sVzg1VYpRXBdWTs1TL3h3dd1V4jyV40RYm8rLUPJ8F83t9vLgJ6JeSyE7xrSpZftXDL+T+6LgKudd1ga1DGuMR6CGETr0nS1Pzs9Jvx59d4ivdo37dH/ptCn/qO72i7TXoJ2DTYqpy0YGWj+gqAMAABiMX76lOWKh3Bdkth+iRVGOvkopAzfpM6tUZh85vv/Li5QrR6Icn2UBKQvzJn17hFio8xVH+VCKgnC+sfC87wTfvzRH35YZEBI8vn6N6MC79O4Bjt93g6gJdeyjiVNEtx+YHLv/B6sMpya89O6jdy9O0vKPq8U8/fs+KxinacITGva9w4LwUlvjQr9wWZzj92VlMZzyKucmrXL9mDgx0Sy81/k+uk0Pmr53+yjnHQvp8rt1/X5MD+6wKntgIlc8+P6jXLZJo0Ij4vxtCiufX82z8h4an/adYMWfU9W0HezrnSa68yCRVkdYd5tRUYaS56Ig+Xn++nE1GJzvc9RPjCe7fpyiFW5DKR5fOUbXdp9m1THn8YPbeRvcPkFT08t07Xp/7wcN8D1wygxJOir6In32f8ajo+Jlkf8t5e3Cyoyb23fQnulRGpXfNhxzT8oAI+H1aJ7/62XXjdHOhZsZpiTe78ya8Fy8S9ISjlwbzxC959xn/Nu+R8Pjv7N3VRiIUu/RtHl5o+HlcVAjqn0mNPyuevHx+yovnv61ynh6eWXvyQ15JfkYYO757EpeThLXvFzjss/Dy+Kn+cDlou8qGvk0rCDPXBj2Xk6fGvbOpoykNn427n59SxlU+wWKOgAAgIG4uTIfKiUOVXZiRdEIP7cv3i1YokcOHrVKNH8AT4gi7yl5v6zS/PQUTfgj3QoLXa2E57YKxWNa/ZFoanzExO/sauFjPzxEcSHas8PkpCpHIiB4AtbIwcX0yJMqor5AyYgyGXsHrCdWkbmvguawyqsECV8VKDFeUH14cj/toR0N80KMM8tWoG9Xv4URmjgwSctHQu8BHfkeZFTOz9+m/L1K11jh9Q04hhHasbu54aA0DzLCutuIijKU94VGKsMgo5Ga/9x2VEmLYSH92JE9dPSd8KoYyyZfcedMni3/oeYbMGxEUdovRiUZYTeGpF2xwiP3vHqfjj55Qsf/V2kP87SaKcuuPnH7ZUW0J4ZeO3JP3BaNQrWPjmv/6b4x8i4+xIOmYITle9VLRUb9TT9689wuY7TTZ8RLx+tvl/g7Id4BEr6m5bb1FihJC+O8xiQOd1+5zX2UxxL/9YF9ntt90khc9h41JJL1guG0fkW04r4bonz+OGW9XcRLK/dkWz5ynyZsnk1mHjKikJpvduYJ4RvWSuIphq8srz7gvobzx6H56Lxl4nyMmOfv75f2PulTz78i8ZB3OaNdTfxomfZo/ELvMFGsNSzNF5ZLPI809SCS7+7rx+muGPakjKr6bs7T3IOK43anrUG1HCjqAAAA1gcZvbA/DfwRf1VGKMpgwUg/2kYYereRS5kRngdhfr9nCZfDU4xV0SGncIqS7wmGtUh6o7ADYS2+HhkwdMqBFb7cPX7cAkSoZGFPvBKyMGPhp2184uvDYPDyEkSRO90zgtPI+BRR7GWw5OWZHCrMhoJaQHS/ujs7wbaMQv3OUYOKdQfP4hDnpX9Nj3JhdT0YfSU9smwI64IIoV8GCnJN3RXiMuDDHzmrK8NcQS4nbrvlbu3VqAu+bxhUjGcE2CDEK2ja9fsjdOgDMVT6htFVVqZkCocrJ2MQc0ZXvz6pgeXiu+a+Jt4s0tfWGtFMfTj9ge0XXn9XFdPcwJQbAo2hz303bFoKHili3JqkC+/Y1IghWH85nIHNpDNF5XvEA4V6NPvOMbp2wOYFExrd5LvhGXMD7xE9w4gnlGcgK/R7qXiKgXs5yiu9wBijnisrl49lBsgsrmIY5Xcd1Xj435G6+E3SqEuf5YEYcjh3smfUkJsbNI03mvWoao3EZ3gGcijqAAAANoxJsXoHIxwR9oOefeCHTlH4LsxR9xQ0FYQ8haPHAkZz9+V4Hi8fgTDoXf9JRDQnhPgYIcQ9r/POK5RnoyC6MPewMuW7+7WIT/J6HTKf0/5cV4yglylpr85xGUUj2978aLOuwtFqwakwn7pCqW+MMZ6Y8GSUhYVm3820MEe9TrjbqPwVorrwwX1uAyV1qazuJuao54p8fRk2GbmO266OfrVFRsNYaI89fEJlAKw3Os3ARxWzHBntHY08L0YyA4/UJ6doFfv4olFK+tUVoszQU3SLLhK3v6h+OJd6h2+o2j/Pf0eK398PKEpxSBxeGRXvEYWTlvZ4bbPa+FRqHBMXd/cOnQ7gkYxnfV+VG9l20RzfW+bl1shLpyp+ngHFMK/G96J3nHik2TCkP2ozVUpG3g9cy8ohnE4wGFDUAQAADIS4aCfnTYuVOnB/nlQX8mx+b9XiXjHi2p10MzajEhpuI4wA0cxFV+ZZL0fKwLDmWEfI6Idzt9MT4s5XHGEtmyssrp4F4aDtvOxBUcHTjl4MrbyKPL5ynutVqASqJ0HJ+gG6LsHZSEluQfP67ZDpHXHdtu7wg7hN+/nbFB0ZS3mB2BEvN6pVR1VdKtTdeurK0Ez7KE4zSdbzAVE3e+fdoAK6eAuYticKXl5mRslpMtIP2jOyI/JP0XU3cmSE/NDBo4GrttZvWeTzSu72XlCgGV3vo4BnSBM38dr6K9N27E+lWuktGuIi41+FR04rSt8j7v2sknK7yheC7Mf4xP1ZNiVBDpkOUEecVzFFo3D/C+y1jZ8YFQ/RuxdvhwtkFgyL7UbFcyO5WTQ1ORDRB30r6v5CBOWLMPC1wPJvz3mHJCQMyx15mMEE/UZWrxJkLof3jlRnr3GJRivC97vnimnRwz4bpCkKr4tofG0nJekd9ocQNCOrN1IWWl8HqO+bhFSbAw3I+rMO1BEZBY/n4OncOf54lo2MtxbuzTzWcITYzE2brxst9dA5gfxBbuRWH7nDGUQAWZ8FpcKF7kSx4/RmK48LnN6vWKnYvaOQpzqyFK2ar8pQYTRhvRChkJWcrCyGU15FjIIZz5dWIb90/QAzpWL5yLf9tZXW9dtMkQhXSTdGn/6VvDh/mzKi7rDxHFA317bZ9BJG20J5XWq3SGODMlTPmigPZW7tEbNexDDJV83nQ+a3qhJhhPQgTjrffzAjE6hA13xwdcj2dYV1Cmy/khnlbD95hNuiZ3RSA4tr79xWz/uu1orI8JHukuhXQ4ySmy0gqQsepuuD9Mf+PGnVIwrfOuknlr053dJft6PqPbo44oEv6dBB4wLvFEfNm8zwaHSZNkpls3gaw2SYV3qBCdPtZJlhKbZN89GsOWPzTg3Lef9lZPHmslVRjm1pUK2gP0WdM/WYfHDsxP0VyXBfmNBMj10PGOvm4Y9OiKtR4KqnnSTjPkbikiQNTJ8xiweEH7+myEfO255EXS9joSa1bYexmPlxNlYf36XNhKedu8w1kfzJFmpIuLsBUIVYR8X1VheCGob7JXgm0frRxLK9ERj3bN3ySY0HfNjtoIrupDlOuI+3SytDvxW6RZN9x4u7WBDh71CVe7aEn91vt8yK5h4X5qjzIUKDjrQVBEU7MuopffHzucARz+OVI2XYdogQysKN9TSQ9PrudOoiKAvwpNIr9cFuGebeZbaV8vuQuvi0jG8wx7oYt8blFc/Vzr7xcXw4Lv93ibKkI74VK4KnFL/GtK/fovwF99s53MGoUWGOOh9+/GrytzGvH2cZJawb4urtT/EoEuV93Rz/qO4qUdvTQ43QTcpQ8tzIT2Echjf3sxHi0iojb/J+XWxqg9//PJF5Wkl5G0NSsNOCZeTgl1ovXD87IspqZFCVvkcNwbbcKF4/gevrcZ0a5OoWhTsMlOB2S9B6raO4JfVB05KHrwvbJdqb8/aRe46JO7Y935iy94hRi/UQt66EvIessU7zRqZQSRpSa0sUcG3bvOMYHa2cU+7QcnJ5tTKqU9ocmo+ubSfLpw39xU+e0zqg+iv/Zj1OttCUMMQg6Po7Y6zjuFZ8O1yd1PTod+7LofUTW9YY+7vAP//8Y39VYxRcSRRXWGIlXV2HLP5KeTKHoKajFWuQWakx/UGou94csewboUE+nBouC3ArLBT1/jjqfQzF2nSeRms+DvK8rB6Yct3Q/AnC7AhaHmJO4S5OFtq4M6UC7H2XlvFVLstrRFzhl3UfyUHzHNQR1BUxeOnqpibfQ0NSbvE3de8C7TkyZ4xjhTaXm8zE4KSdoZz/iv/mJ8xKnHl4aUx7uf+B97zuj2ziFtR//53iSuQ+Tpoe1zfY9/3t3evH2yNPt62n3Am7+0x/oD/VcKjv1/d49fa3UTrP+TjFwtacDefCb0fpvlvUbJD80v4uLyPTX6zSRGlbifIx6l/89DSKV+37AAAAgGeXzsrYbYnkqmcKK5dNVcqZzw8vvPCC/VXPEOaoG3euYLK+CJhuZNzDLBThWWlj6wQXpLinZCs1xtjrjRdYqCScp1i6bYd6AXhxTo38aLxSiwAJ1sWra3OapNGw4G88Bb6k0TtOAYxJb2sANhjuwM3omJSF9WLx5mMuH7nGyp5cM9ZZtTRrGbttO8wiO8Gev022/sgwo4husQ9py5PTZOcriteJHR0J3mktz9rOxaMlsRWKjlZwT1GipEt4x9QIKM8dJTqb11P5OGfbYaiHjD8nKK63snjIl/puzbtXRTk2z2VuY/3kVzz/U9xDCyOwDeEyTm7vURcvAAAA4DlEjNsqG21KJV0M91a3kEO/88+OrC1lk6UN3ih9M6CiLpXMjUq5Jf0P0WKywRiFNZusL6uEskLhu4Tr6rqs3qfn/9zUPe50PKxyL89muL0LzahUBbqYhYwmW+E5UzxyZFsPShkXxDom7jtLZUr8UyS1DUaS4c2zAAMgrouesaSwgmkwL5QVOVmVWtqitxhGYaGWzFXMKOF1yPNuXtP9P/bQ0Q/s6qve9lXNtiRhJD0NPqwaXpQ2QzTHkdMq26/kq4bG9TbvVzTvXJj+Yi595VdowPC3hxkMcfu0camNFwAAAPD8YdYX2KzKrZlSo4MXejxbimyw9gMftfoWSDKQoq6LkagbKCuytUK3rZDODVbnIlGwmqZR5FMrqHoGAVYu3ZyLflH3Uhm5amKBCxQkq3gEC9ZUrGCrz3KadY5e80UJNoLCNhilbNRCRKCa0PIar6VQ5rERWDQ912mlrWeKLrYh235wnb/Dz27np6X9itHHX4TFn5co79RnpP3XbYUSplGMeOmVWnOWj+zK7heX8bw/ietts3rcT36NJLeH6QPxLijZ3qMyXgAAAAAA4JljoFXfzVxKmas5BGuWLi7CoSVGywODgFP0+8IoAvWLqNTgC+yl27N46F6QG7hFTgMwKre5kNU7dWEVa5mM94r1t/zJlFtxpdb1HKxFU/e6HQRZqZPr8S8P6LYo5jIafecBXY5HkcWN3b1TD9c/eAswJrdCCa3LMt+84DkQ4S/yqMcg7m/95ldye5iGRPuo6uJb+n5ve4+hlyMAAAAAAOg6A636LpSueFjAjpY54Vy3+uDnnYBv90ss7G2rQqr8GNwgoAp/y1VTxSCRz6XnNHw1HxgTdGQ63tJBXN49JSR0B+4IwVYEJl1gs+DWhfDIvDxkVNdrVxnDKePRV4iufXWNSEfwWXHffY2u3clHkUdKtwqRRc+i1aNrt0KJw/PTbVzO87naEv4wtxVsk18Sl+L2MFXo1ATGTPcxhH2NkJp2grYKAACViAyW2q3AO6/9rfNS8g/bB5vrcRiJ7xgAoDUiG9bJa+X3sBzE+mS+JlE7pG0PT1Zcf/pS1H3hMt+Wpq7zGqFD5y7oHoluWwNZpbluzoJuj6N4C7r15UZuFJh4O5S6wtJtDLItVoyi76/sLqOXBbfjyIVVF7oYyBNgPZBtCfJtMO4fKC7+B7qD7veYuZSv0oSMqnpzvydPEZ3Xa95WG247Ij1/jOgDaX/ihl5NUWHMEcWZlvJ9bEVxX97tjSLLfOrkliTlW6God0fZ1hcc3pe6F7M8t0qjnidBvMWIrDmR2nWhMX3ml6AGhWwOe1Ue2n7Q9kP+diyl23sMEC8AAHjuEBlMvhv+tsGiZLPcGQwuuTWT/CMYyKlbZBUAsPEY78t+57yrHJvtI999hrI9GwBgOIiCV7Y9WxlidSzbGrA/WKA5R3R8EDfydUGsqPmWil0iKDdlo/JQRniwPRsAAISE34u4j9a/fzRb0qa+Jub+PXT67DxRsB1m/Xa9ADzbhO0gbEum3ZktaM1vM3WZsdv1ktxvvSPdtroaRnTOyLaprYe9d9BnFVsNe++fPq33yM49x18P5SZ9jwyZcFvXGNh4ZmnZzU9KPyCU7VDUkg3eng0AMFRktPX/9f/U7SySuwmsN7+sEg1l5fIhoK6KMpJsRpljj5YuIJ18YXuYjchDMeSIJ4H9EwAAgGNEF/9dPvIt3dTpmv1s4TVhPA+xHSYAHrJe0TLdt17U9/8Q9dh5+fG/S8a7MJturN4qK9l0W/WGPJUr5CLnqaJv79tz5Fjmob185D4r1Hxet9K1Ww/HlGw1HKzt9AFZRV6Q+Hvb6jLLZ4mOuvdk04IN83dGvd3K8qmdGwUUdQA6RLaY2P/n/6v/NlFKZQuMoSqvrx/v26Vo6LidE9wxBEvmsEluD7MReajbtiXeDQAAQPvhFRbIe2VG72w6WX4UFAGZesTi/rFNNKcVgPVGFvo1a+08pgc0RUcP3DaKr6w/ZhfVVdkok9lGaXTa/oyQKc752l+y6LDnsZJt/T1BUyXPy3h6cetcs5PY6Q+sx4xOIdQLyr7e6WytIKXiPVnc7G5lGw0UdQAAAAAA8Myx750Lun7I0ZQxOzFHvWhgNeuKkIzM2zMAPO+MyLo8sk6S7NhFO2jfjj10+8FjXWA7W7dLvf48j8hsRNuHFf079meCsq2HA5Jb58rIvv2ZQnbj8td5qnhPYZHzDQaKOgAAAAAAACm2H6KjMjJ/btWeAOA5R7elZWX47/tmFyBWfOmPVVr90S02/JgunxBPlrvWCCZu6ebRkBHasdv+HCrlI/iK21Z3E+zgAEUdAAAAAACAEvadWNGF5bAmCACCKNi36fxX82bE2Sq+1/j/ya2of/m2ZETduNEvZ6uwy0Jv/W+9lhNt4Vt4v9lW99r17k9pgaIOAAAAAACeLxJz1F98p2zhOLOlLQDAsK+3h5btwnGquMua6dlcc7eY4y7TrlYmdAE5cY8XVDnna7JFdrzVbrbF8IDolrdkw10ZLYzoy9bAy3/0u9GtGBTybcn9Pd9lBfuyLY77AduzAQAAAAAAAAB49tDtjq/RVEe2VsT2bAAAAAAAAAAAnjtklDvzlHl1jvb81A0lvS0YUQcAAAAAAAAAANYZjKgDAAAAAAAAAACbFCjqAAAAAAAAAABAh4CiDgAAAAAAAAAAdAgo6gAAAAAAAAAAQIeAog4AAAAAAAAAAHQIKOoAAAAAAAAAAECHqNyeDQAAAAAAAAAAABsLRtQBAAAAAAAAAIAOAUUdAAAAAAAAAADoEFDUAQAAAAAAAACADgFFHQAAAAAAAAAA6BBQ1AEAAAAAAAAAgA4BRR0AAAAAAAAAAOgQUNQBAAAAAAAAAIAOAUUdAABANT9/Slu2bEken/5s72FunPWvzdDiX/aC8NcizSTP8b1n/9/0Kf878/0je8Fxo3g+ikvxmZxH388E9+pxaJHyJ0z4hXvieDKatuBZwTzv50GGS1vh+JSfqrh+Vq9mxGmoSm8hTD++/cbHXY8Iy9oeUdyVmvLScFLPaXyK5RBg4xznf7LcE/c50veX1IGy6xqXMK/iPCpvK/nh8qdx/jJlYQVlF5dvSVhKsi5UhOUOL8yyMii8t6QMDY9o8ZD/vJ+/6ban761KG1N5j8YnLFs/LWV1CDQlLlPvKPSvOVLHK/u+pmj5pvu0NF58a+pVU4aWliHT1XgNldblX9VfmLqx3n0CFHUAAADVvPExra2t6XH9DP995nr298dvyA3mgzVO+fm1P2fo6ssVHzH5YL58mPbe4HtP/W/08Z+XiGbfDwTkG2fH6SS/6+rbW/Vv/WCOEV1371h7SDM/bKsWoA5eoofZ/Rz/1w7TtkggXJA4ePesrV2l2ZfsRYHj+vmvC7RAV2mlSnEsME2X/ozD/pg4CZb4+nVa+GQ8yzNJ77bZvV56r9Pe2W1pYcrPT3t/Ma1t4xNfj/DqgZTFpV/Hg7Loq7xacOMCp/fMAp38TyK8qNzXbvB9YxUCWuH+vXT4Q5d37eu3CL3jv3phcv2+NRbdH+SfOVxdV2ry1zF2yt3D9Yf/zuuzLTsxlrx8lWa8sr3OqalSjOK6cP3MSRoP3l1dd5U4T+U4Fdam8jKUPN9Gh1/z8oBvGW8pZMeYNrVk/4rhd354mIKrnHdZG9QyrDEegRq20uxlW56cn9N+Pbo8y1e7xj26d2XBlH9Ud/tF2mvQzsEmxdRlIwOtH1DUAQAADMbP39BhYqHcF2RemqWrohx9kVIGbtCnVqnMPnJ8/9eLlCtHohx/wgJSFuYN+maWWKjzFUf5UIqC8Hlj4XnsFN9/5TB9U2ZASPDov1eJ3nqP3nuL43dhEDWhjjHqnSG6dc/k2L3fWWU40/PSO0bvLU7T0g8rxTz96x4rGAvU84SGsTkWhK+0NS70C5fFF/y+rCyGU17l3KAVrh+9U71m4b3B99Etutf0vS/t5LxjIV1+t67fj+jer6zKvtXLFQ++/yMu26RRoRFx/jaFlc8vTrLyHhqfxk6x4s+patoOxt5cIPr1XiKtjrDuNqOiDCXPRUHy8/yNj9Vg8Hmfo35iPNn2wwxd5zaU4tH379PV1xZYdcx5dO9W3gZf6tHMwSW6+t/+3g8a4HvglBmSdFR0C336Yzw6Kl4W+d9S3i6szLjJ7XrvwZ20U37bcMw9KQOMhDdOJ/m/8ey6Mdq5cDPDlMT70IwJz8W7JC3hyLXxDNF7zn7Kv+17NDz+O3tXhYEo9R5Nm5c3Gl4eBzWi2mdCw++KFx+/r/Li6V+rjKeXV/ae3JBXko8B5p5Pv8/LSeKal2tc9nl4Wfw0H7hc9F1FI5+GFeSZC8Pey+lTw94nKSOpjZ+Nu1/fivf2DxR1AAAAA3HjPydDpcShyk6sKBrh59biw4IleuvbH1klmj+AH4oi7yl5P6/QyYMz1PNHuhUWuloJz20Vike08gPRzL+3mvh9slL42A8PUVyI9u40OanKkQgInoC19e2r6ZEnVUR9gZIRZTL2DlhPrCKjyvDQyqsECV8VKDFeUH14cj/tpZ0N80KMM0tWoG9Xv4Wt1HtrmpZmQ+8BHfkeZFTOz9+m/LVCV1nh9Q04hq2087XmhoPSPMgI624jKspQ3hcaqQyDjEZq/nPbUSUthoX092f30kdz4VUxlk3/y50zebb0u5pvwLARRWlMjEoywm4MSdtihUfuefkefbS2Rh8fkPZwklYyZdnVJ26/rIiOi6HXjtwTt0WjUI3Rx9p/um+MvIsP8aApGGH5XvVSkVF/04/eOLvNGO30GfHS8frbK/ydEO8ACV/Tcst6C5SkhblhvcYkDg//dYv7KI8r/NeH9nlu90kjcdl71JBI1guG0/oF0XX33RDl84cZ6+0iXlq5J9vS7D3q2TybzjxkRCE13+zME8I3rJXEUwxfWV59yH0N549D89F5y8T5GHGSv79f2/ukT/38XxIPeZcz2tXEj5Zor8Yv9A4TxVrD0nxhucTzSFMPIvnuvvExPRTDnpRRVd/NeZp7UHHcfm1rUC0HijoAAID1QUYv7E8Df8RflhGKMlgw0o+2EYbea+RSZoTnQTg55lnC5fAUY1V0yCmcouR7gmEtkt4o7EBYi69HBgydcmCFL3ePH7cAESpZ2BOvhCzMWPhpG5/4+jAYvLwEUeQW3jSC09Z/zxDFXgZXvDyTQ4XZUFALiO5Xd2cn2JZRqN85alCx7uBZHOK89K/pUS6srgc7/5UeWTaEdUGE0K8DBbmm7gpxGfDhj5zVlWGuIJcTt91yt/Zq1AXfNwwqxjMCbBDiFXTQ9ftbafZDMVT6htEVVqZkCocrJ2MQc0ZXvz6pgWXxPXNfE28W6WtrjWimPix8aPuFN95TxTQ3MOWGQGPoc98Nm5aCR4oYt6bp0pxNjRiC9ZfDGdhMOlNUvkc8UGicZg69T1ffsnnBhEY3+W54xtzAe0TPMOIJ5RnICv1eKp5i4F6K8kovMMao58rK5WOZATKLqxhG+V0faTz870hd/KYLBtp7Ysjh3MmeUUNubtA03mjWo6o1Ep/hGcihqAMAANgwpsXqHYxwRNgPevaBHzpF4bswR91T0FQQ8hSOcRYwmrsvx/N4+QiEQe/6DRHRnBDiY4QQ97zOO69Qno2C6MLcy8qU7+7XIj7J63XIfE77c10xgl6mpL18mMsoGtn25kebdRU+qhacCvOpK5T6xhjjiQlPRllYaPbdTAtz1OuEu43KXyGqCx/e4zZQUpfK6m5ijnquyNeXYZOR67jt6uhXW2Q0jIX22MMnVAbAeqPTDHxUMcuR0d6dkedFbuCR+uQUrWIfXzRKSb96nZuorX8Jt+gicfuL6odzqXf4hqqxk/x3pPj9dY+iFIfE4ZVR8R5ROOnKXq9tVhufSo1j4uLu3qHTATyS8azvq3Ij2zY6zPeWebk18tKpip9nQDGcVON70TtOPNJsGNIftZkqJSPvb13NyiGcTjAYUNQBAAAMhLhoJ+dNi5U6cH+eVhfybH5v1eJeMeLanXQzNqMSGm4jjADRzEVX5lkvRcrAsOZYR8joh3O30xPizlccYS2bKyyungXhoO287EFRwdOOXgytvIo8+v5zrlehEqieBCXrB+i6BJ9ESnILmtdvh0zviOu2dYcfxG3az9+m6MhYygvEjni5Ua06qupSoe7WU1eGZtpHcZpJsp4PiLrZO+8GFdDFW8C0PVHw8jIzSk6TkX7Qnq07I/8UXXcjR0bIZ9/+KHDV1voti3x+n7u9FxRoRtf7KOAZ0rii1ddfmbZjfyrVSm/REBcZ/yo8clpR+h5x72eVlNtVvhBkP8Yn7s+yKQlyyHSAOuK8iikahftfYK9t/MSoOEvvLd4KF8gsGBbbjYrnRnKzaGpyIKIP+lbU/YUIyhdh4GuB5d+e8w5JSBiWO/Iwgwn6jaxeJchcDu8dqc5e4xKNVoTvd88V06KHfTZIUxQeAGVk9UY+GFpfB6jvm4RUmwMNyPqzDtQRGQWP5+Dp3Dn+eJaNjLcW7s081nCE2MxNO1k3WuqhcwL5g9zIrT5yhzOIALI+C0qFC92JYsfpzVYeFzi9X7BS8drOQp7qyFK0ar4qQ4XRhPVChEJWcrKyGE55FTEKZjxfWoX80vUDzJSKpdlv+msrreu3mSIRrpJujD79K3lx/jZlq7rDxnNA3VzbZtNLGG0L5XWp3SKNDcpQPWuiPJS5tbNmvYhhkq+az4fMb1UlwgjpQZx0vv9gRiZQgYygZ3XI9nWFdQpsv5IZ5Ww/Octt0TM6qYHFtXduq5/7rtaKyPCR7pLoV0OMkpstIKkLHqbrg/TH/jzpYNGyDOknlrw53dJft6PqPbo44ltf0+zbxgXeKY6aN5nh0egybZTKZvE0hskwr/QCE6bbyTLDUmyb5qNZc8bmnRqW8/7LyOLNZauiHNvSoFoFd0zt+fPS2jQ/Or34UP+8fobW6OClNfMXY69L8HTmuj3J2PMLN+zfKdyz7rkbCxqOeebh2qWDUZiNkWen1y79af/U93h/Mw8Xp4txtu+sjLPghye/s/wwz7u8AqAKrYN91e/Ny/OY5uFxfW2BFvj/G4f29yXlpdekD9Uj7F9Tfa6JP9/rfz/q+lz7TXBHVd+a9en+EbzLvj9xyPvL0mrClXxPP69xd9+ywuF9Jwr54Yft/+09X9VWCu/06kaj+FRcjwjL2h6puNWUV2k4yfhwXH5J55srSwlf8ywoZ6FcfkjfX6S+fodtMU6bn/ZkuuWw8WucvwEmD5JtJ87PqrDK8t6lV68Xy8Cvu4V66w7J55LnXfzzfLJllj3vP5NOq763Jp8q70nEzU9Lab8E2pOqB35/4bVJaQ9xvcjKQsMJ257gt6G431GCvqn4vEHqmR/HsE5mcZCw4j6kJPwwLaYeyz3Ti5fyd0XhVdbZ1HsK8QnTkcqbqjz228D04vX8WmU8vbw6cyksM/+aF4eQ6nL241sav7huxH/78ddrLk5embv8LeS/H78m6emP/hT1CJNBNlFBQqOEaWL9Cl/EVB4vEyPqrjfHZKpfQaWwrhcaQ9xI04QVPKSyga0rUSVnJJ7Z367yyeE1NE3LmYW8HIPGDtaToK5EHYrfEfntyNQ96eDttUKbc89EZX9wYW0h61jq6nhUlzTcPG5B/S+pV8lO0L+3pI3k6Z5eWzgTtiV5r3s+e7++Z3ptWtPGcbT5eMkL59Kf+cdxoPyKyohjxOFW9U9xmyz/eDaKV+37AAAAgGeXpydjDxn9zj+j33Mrl1XLmSDFEOaoG3euYLK+zJdQ96EQs1CEt1Jo4CbAWPeUbKXGGHu98QILlYTzFEu37dA5YV6cU26aGq/UIkCCdfF6KnOarOtJtvCRt9iGuJpUbB2xxPks219oOTZ2ZwPrhrr87TVbjfBx3XcbYpZmr9JOLUszF1NdiIIyNovsBHv+Ntn6I8PUJbfYh7RlVoTtfEWZp2Xdv0rrlXHbLGyFIgtwVG19weG9r3sxy3MfEX2SzzMTV6NsO4zC4mTxdhyyeMjX+m7Nu5c/N/kl9du5PvWTX/H8T3EPTWwp1AhZ0Ci1vUddvAAAAIDnEHH1Vtmo1aKXXUGmAlndQg79zg9jEctuEEwb1q3PhrcS+vPEgIq6nW8mP7Ml/WfparLBGIWV3GR9WSU0WtxFV9dl9T49/+eG7nEnYnr1Xp7NcHsXFlf5jNDFLOxejAmFVpBtPShlXNBVCGU1wzIlfv3R+Stu4SFPiajdOiIrT1FE9Ax4mrBC6y9EUljBNJgXao0z0R7KhYVasrm3RgmvQ55385ru/b6XPvrQrr7qbV/VbEsSRtLT4MOq4UVpM0RzHO32K/mqofH8oLxf0bxzYfqLufSVX6EBw98eZjBkRVobl9p4AQAAAM8fZn2BzarcynfeGODN8WwpssHaD3zU6lsgyUCKui5GoosDsCJbK3TbCum2vdEVRClYTdMo8k7I9/EMAqzoh3t5tkesPDpy1cQCFyhIVvEIFqypWMFWn+U0883jT2vBJ7ci5l8JJeLK4dItHbCqadcILa/xXrFl5RVYNKWMfdp6puhiG1JHuM7/ys+ykkvSfsWY5S/CkqxX0v7rtkIJ0yhGvPRKrTlLs9uy+2XbrLw/iRc9aragVj/5ld4epg/Eu6Bke4/KeAEAAAAAgGeOgVZ9F8FYRqqG4qqhq2lyaInR8sAg4O1v2x6jCMh+mf4+ua3xBfbS7Vk8dC/IDdwiJ0BG/GTkc7GoRNRtHQE6g6zeKSv0Grdo4/7s42/5kym34krNZe7c5dWLZSBkpU6uxz/fo1uimMto9K/3aDE2AJXWq7qtUELrsmzVUfAciFiI9tBtt+dzRL/5ldwepiE6tSYnub3H0MsRAAAAAAB0nf4UdZ03apSBhcZzDuxomRPOdasPft4J+Ha/xMLetiqkyo/BDQKq8L9WMhe2hHDJfU7DFycDY4LOu4+3dBCXd08JCd2BNx6zbc/hQIlotnUE6CZuXQiPzMtDRnW9dpVh6u6g7PwX0dUvrhLpCD4r7q9dpau/5gag8nrVz1YocXh+uo3LeT5X22wxktpysT/a5JcxhsXbw1Th1o0w030Mzbb3GE45AgDAM4vIYKltg73z2t86LyX/sH2wuR6HkfiOAQBaI7JhnbxWfo/RJ/vdzk3a9vBkxfWnL0XdFy5PZq6sdZ3XVpr9wixMpq6dY6zwLj6snbMg7toGb0G3vtzIjQIj8+L9TrmusGSES/YfNPcbRd/flF9GLwtux5ELqy50MZAnwIDYeeaBEiHzXmVBL5unOmL3NOMIKtH9HjOX8hXqyaiqN/d7+gzR53ptnG65duX2odXz7xN9KO0vn95QRlFhzFGjz5V8H1tR3Jde80aRS+uV7GOcn9/CD7jpMmafWm5jqXdyeF/rXszy3Art9DwJtG2+5vLErDnht83W9JlfghoUsjnsVXlo+0HbD71PMzoFSK+8/TVd+jXva3T/U1HUB4gXAAA8d4gMJt+ND/3BB1ayWe4MBpfcmkn+EQzk1C2yCgDYeIz3Zb9z3lWOzfaR3wRwxwSedQpbSIGu8rBie7Yygq3RhsL1tYVObnUSbqnYJYJyUzYqD7E9GwAAFAm/F3EfrX9XbD1r7l/QbTzLttME4PkkbAdhW/K3oDW/RdXUw96j99tzQfuMzpVvPey9o2zrXMV7v73HxCuUm/Q9yS2p7Xv4mgmbj6cgGw+46jvoPOLqpdsiYP75pkFGW994XcstuZvAevPzClFDF+51R10VZSTZjDLHHi1dQNyzCtvDbEQeyrZt4klg/wQAAODYqov/Ls1+Qzd0umY/W3j16OMbC9gOE4AAWa9oKVt3697vMlHPefnxv1eMd2E23Vi9Va6rV6hs9azekGf4mcWHRp5jOW/bDzPWu+U67Z19P/PQXpq9Rz05r1vp2q2HY0q2Gg7WdvqQ6KSudSZI/L1tdZmqLalP/rrT260sn9q5UUBRf9axK89jW4TNQbaY2M+/6L9NlFLZAmOoyivXmc7UF1t/s6O1oLX+JLeH2Yg81G3bEu8GAACg/fB1FsjHy4ze/g4l9igoAjL1iMX99zfRnFYA1htZ6NestfOIVfMZ+uitW0bx9baBVtkok9l20s6SrZ5linO+9pcsOuxNT2m0VbSbduhvnWt2Elv40E7p1SmEekEZe3MhWytIqXhPFje7W9lGA0UdAAAAAAA8c4zNXdL1Qz5KGbMTc9SLBlazrgjJyLw9A8Dzjq7LI+skyY5drISP7dxLt+490gW2s3W71OvP84jMRrR9WNH/1f5M0Gir6OTWuTKyb3+mkN24/HWeKt5TWOR8g4GiDgAAAAAAQIqXZukjGZk/u2JPAPCco9vSsjL81z2zCxArvvT7Cq384BYbfkSLH4ony0NrBBO3dPNoyFba+Zr9OVTKR/AVt63uJtjBAYo6AAAAAAAAJYyduk4Ln5zEmiAAKKJg36LPvzhpRpyt4nuV/5/civrnb0pG1I0b/VK2CrvZarffrddyoi18C+832+pe/W/3p7RAUQcAAAAAAM8XiTnqWw6VLRwnW4w+jRmqAHSTsTf30pJdOE4Vd9m4O5tr7hZz3Gba1X96uoCcuMcLqpzzNdkiO95qN9tieEB0y1uy4f5nZ2FEX7YGXvq9341uxaCQb0vu7/letcVxP2xZE58EAAAAAAAAAADgWULmy798lWb+9Baq2yRgRB0AAAAAAAAAwDOBjHJnnjK6TfXmU9IFjKgDAAAAAAAAAAAdAiPqAAAAAAAAAABAh4CiDgAAAAAAAAAAdAgo6gAAAAAAAAAAQIeAog4AAAAAAAAAAHQIKOoAAAAAAAAAAECHgKIOAAAAAAAAAAB0iMrt2f755x/7CwAAAAAAAAAAAP3ywgsv2F/1YEQdAAAAAAAAAADoEFDUAQAAAAAAAACADgFFHQAAAAAAAAAA6BBQ1AEAAAAAAAAAgA4BRR0AAAAAAAAAAOgQUNQBAAAAAAAAAIAOAUUdAAAAAAAAAADoEFDUQQd4TJffeZFefPFFmr3ymOiXz+jFdy7z2Y3n5jkbh6eGyYvPfrF/PnX6iY95xuTj00lPWTk2Kd/1rANPv35tfh5fmU30D7YPOXfT/m35+zLNcr8ifYt/hGVQ/WxcXoUylPskPnr/Z+RCkfte9P5W/HuScZuly3/rnYqmNY5XWXwL2PuysKO4KNX36PujOHHK6DPvnElnfJjr5vnEdRv3sut+f5EOPy+D2ny2xO/y31EXzxS14RXqqJdv8o3znvUPF04cfm2/UQgzTL/mU7KO2/v0d1zWhrL8KfTrhW+3rV+Jc356NG7J/Arfp0fhPkeD+wv1In6meC1Mo72/NA7VlNVl9165XlvOTdH6ENaBjUPKWOqS5Fe6TlXj5X2f8mA6rxvkR9n7GsRD20ltv9wPcT/dtJ6Y50wd9sJwcZQ0BfEtts2NQPJtsHf66YxIfAtaMejzQwCKOugMp396QosHR+xfzysjdOi7J3T8dfvnU2fQ+HQrPftOPN069rTf/8zyy7c0t/s0nT67mvigTtKF357QkyfuWKE9R47lwmPls0TLR76t/Eg/vn6N6MAE1/QU83S+UgCJ4vbTHpp7tUawrYmvQQSXXXzfihc2US8QOEQY3kXXDtyN7onfv0xz31XlAHPKe48ei3Rou702fYHuBtf4OLHPXmTi6z+dpvn9kWBUCD9uR9X5LILgriN7aCV7foVofyTY1cXTo1F4Vbx+PHvHyin+20uf9JWp8Pcc2VUqzKqCsP92UJfuXrxNvT4VyiSJ/Cn069tHaXLpPt23fxL/ur80ybX8Gq1mdcqcmxq35ceC8Pk7XJ+De3JELsjfeZcu0Bwdqyjr5vdL/e/R7Yt5/dc8KxXKvfu/O1TS3quR/t+8a4XT68f1OKVr2ibl71UuzSmacH3AIEhb6TO/435Dy7dfRXqQeAyE6aeDvtz2B437G0Xa3WnTp9h+7ebKPJ3uPf2aNzI+RfTj6vD6Kp/th2hxkPY16PNDAIo66CyrmUU0/HD6ltJMcLFWr8+8a34npoKMnp/lexpaPTXMPJzke50l75xYr+11L+z27w0tg/nzJgwnQBvL+2W1OsfvNB27e8a7phZhziNnVW1k6fbiU/N8lj/vfOsJas3SU459ntPqRh8DYVXilIWXvyfAK0eTb/b54FlTxyR+vbOinDmh2Lw/uy8TfG28Ssq9jPz95vnZd0x+mHiXlFtN3QaccypwHKeJU3WKsTBKo9PLdN+1pcpnWYHg81XC3f0/lmnPjrT4NnmKxXHfKFAHC4Mrp6oV40ZpFWVehDJf0dSw82ceXzlP8yzIBgov33P3IoXv5zScPtvbuDr3+gTn+m160DTPmOp8vknfHllmpcgXtvbRcTEIfNWPIjvs8IpInaJTE0H4716cpOWkMOvi4xlHmJGDR+n0Ulr5XTe2T9DU9DyturryyyrXsaN0dPcyXbtuY/73A7o9nStxxtD1Lr17IKp3SUZo4gDnwx/5F6aaivslHuQZDBjNM/LinyH9tVHS19/Qupr+rtvvmPkGlBkTKij7Vup3/TJdzr4vftgl37+6b9Lf92l5946CUqvfP/5mZukIDEneu86t2nOMjZ+5ryQ+DRnZsYfozgP7TMn3NsC+T6758QjKwsoxfH0Xt0PivtKFVSm/leZDiPbTYiQLjIamP5hfMe8J5Bob57C/Nkamef4vN8Q+pgd3Jmm00phSlt/2HSVyWet0b99BezwDX2X+BPU4agcPEvGxdVXuM/mUkpsr0hM/X1puXn3ie/rzJEkDRR10k6U5ut8Ty+FdusAfficoG0XKWgV/u8DCmW9VnKfbrxjruIxSZEITN7RjR8iONhzljpQ70zqkcb56n45yWG6Eo/y9/K47o2a0gYU1OnveNNB+3uujHX8+qhIL8MtHrtGohr3iCdLS4XijBBzXSRcfYWme6AN5RvK1wUhZTMnzQf6cG6XbS3o6pCY9VcwfMWVh8t4K5FJG3ijSXflwxYJyVI453KkGz95WBWbk4KLWnUkrkN0851uyOZ+5Xn5bV+4tWN59VMM+/npNuZXVbcDcpFWuexNcvvve4fpRZ5mX0Z4lJ6DUPztxQtpXWdnmzyd55V36MlZ8a9jX47qUCZMxzdIqynyo6Blyj47HtPojK3eJ0RQVZoPR+omhKqG1iHJHe2hHm9G4qnzW8BJl1O8I2bDDS6B1QAR+TxCUvikZfll8xHjgezZsCEYxvv3AxPrxA1aFXxnV9DhlWRTzXImTekiqLKuSXOklIph6K2E2o+J+NSrwN+hVX6mRPIu/FdI3m+/A+ivp8l2/TxPZN8B91/l79eoc7bEj8GJwa+UtUfet5O/atez7kstb1d+/8m9S1Ujt8lnKvuWTXnj6LrJeGz0JvUjd97gO7Re17tV9bwVT7vdF3gmUZD5/Ii8L9YKSfkeNnJNmFF/ur5PfSvIhxNbfhMeW9gdBvKqQes35pR5ctk9o4PVQK/+k5LK+0r1PDc++gSx9X1puc8xzX/KlPMPfq+USw21abjYk0xNRXn97avjWeL1yO1l/+wWKOugoTvAwH36HjDRMXnzXCKDbD9FR+UBYq6K4kTrruAo6FhUMTh21AouxRFazyh9F7sJ+y0dMqt/Lb3YdqY4GGdq/N0IEP8/lZvSV6PkobBMf42qeCRRiqTS/LOl8bU7zcilQl54KwrDt6Iy6JOWCqCoYAcVyLEM+eikhTF0Vs4+hjMTan5ZUubchFyDryi1dtwGjo3ZWKRXhu+BCa4RxtXTLoQKvrTe1zwrSvlgJPJEQjP3nSzAKyJBGpBvF19BcmYkQ92X7M+P1d6tdjkWpdPnLR5BWFmZ2eddqr6sgFrXZKPyUN05lPk9z27U/S6mLp0+T8AZB+0rjtp3FqUox8+MjSlmTNLQlyh9/BM1H+mEz8p8r4do/WiVcvhWZEhcoC0VhXZjfn7/zResCXKUwN7/f9LlmqkX+TJxf8/s5jJTheb3w27f73kTGGDHShVMMaqj9Vp6mozaPNGxbVtXfv7JvUo3xMpU+risP7nAsPrCGKOlvom+tUPc9LhD1G707bmS67nsrHp1mWlBhekeMtNWUwlwrv6XyIY3vsSWjulma2hhrIqqnbBlq5Z+UXNZnuqUO+TJ1k/yJ5bZG8lhSbjYk0xOTjJfU+Um68I5JtfHMGR5Q1EE3SQpCpjP3CTuB9CiMuhGmCASaXPATi/YoC+Z5I617b9iROkrf2xix6OadsrpVeZQK4oFrkLg7eQwqYDYslzTV6amizLU4+GjtD22YxXL02UfHf2M1xylwZR+8oI4UBbayeDUleL6q3NqOMD5H6ChJJpBJGcUf2HiOej5iVv+sYeTgl6o0xaMebsSwmnZu0RJmGU3jKzR3D24CC7bnZJShZL5+NBc0EG7r5jZ712VkLhekPKLwgznwGRX53ESpaTIH29FGSeobq0jauKzsZkU5c9WM8OOjSpk8I15P9twwiPKnVFkWIVnjI/85JVyEfJnOELrbqjHbMwDItKNAWGeyedwygiVt2QrDZbS93ygW+TO390dGIK17ZvStzDgxTMr7E3FbNvkkxsblltNDqr6VpXJB5fev5JukUxvK5Yx0+riuNDGGlMUn+HZ67tBxv+F7pFR9b7lO3n+lzGNJ2qVZk6LwvoA+5LeSdDgPFUGVZ0kL93WDIPJprfzSl/zTp9wqBmLPkyx9X7Xc1kQeK29fAzyv02jWDyjqYBMxQjt225+WJspw6chtJtDIkQt+YlU7dPCot+DUkN/bkMdXjuWuYHyoW5WHL4jn8RHXoPlcWFF3p/WmmD8p6tJTRf6h8owC/FHL3O3liD5cxXKM8Mr/7oFrCSHYuLiRc48btuAb8DTKbbNgPvzJkUEWJM6LJdtXxNVtrXoBOKXVsyycfSAjb59RPnvSGzGsw41If1ev3mlbTszvbBNfHeFKuBHLFBWjbBiPmFgpEownkB018NFRBnGL9eaPDpl9Os1gAIUolc86upKYdyxCaD8jUg3CK45YMo2FOanvRY8BLdPUlIiy+EQkv0cyl9j+HB4yMs5K5JVVms/qsdQ3rtv8vlx5d3PrvfqsCnHJNBOufzq94dUyxSii7n5RiuI+X0fJ8vUrBDP6LwqCtLWSb8lGUDAkFY1VZg5uokbXfCsDQ09WJ/r7/jUZqS0ihhz7s5SK+PjGlkYLf9V8bzmv3z3I/d3uMi8irg/ufbIAZ6If6UveKaTD9NPptSnKaGL08LwepN9KGhvqyz8ll/Ut50nbq/AQy6iV26pJy82GpJzZhIRHxjDpW1EvWywghxuCXAsy0Z7zDhG+wrDckYc5LFcPUyHzsFIdmsYlKvjg/dlzxbToUag05r6huZ8NQmmDZOSjNUjebhAibGSrMHN6zp91H9JyRsanvPlHRjiox7q72rk1G/feMhLPZ4K4dLrp+OhCJPb3eiJCZJw/1bTLj+xDZecXF5Uj/qh8lUppWI4ZibZQZWlVdIEu+3ud2ahy2xwYQ5D7iPqKrCqV3sJUin406xWX1s+yECXzN+dd3W61srEdkT47X60YqUCdHgVsFV91Hc3nmioc9q4juWHBuYoH30F7T9kopFGkZUmi9cKMitettF9OKp+ti2Owkjx/l19lIbS1QiE0CE9XPw89MG5+N1csvyRGqQ2nWtj+LWXAyeITymEqMHv9lVl7wFeCbZgpo8yAjL5CdO3H28E3Sd5/e2U1z6PIndsgClu5l4h6tnC9Ll1EMaLyfjFwcP0PZDPt40sW2GprKBgm6qWQ1ycjMxfjoXKKWwtAPHNKPOCK38q8D1GvnVSdaPT9a2G8DDAKaeYN0+RdQ/wel31vdR2QQl8kMn2k8yTbpU//8p/20+J1EutSsQehk5G0XdUQTKGSb4jzzjBKfnJkOZHf9XJZm3Sbfq+s7Sv9yG0xFXJzfXrKEONkPhd/2PJbf4o6Z9YxznxZcEmsGrpYgP9R0cyMXTcZa1H2LajiWqaLIti/jbsS49zfVHCxz8g1rrBVW3OUI9Yhma+avye2jkrnV3THNZYVP87G5cuzqNnwUm5WusCA/d1pxJL3VLaeaIfUFV3sRIwiIhhxHSx1T3RkH1gxpqzSaEMLn37k75gP+bDfmzIIxWQdtBqBVmlCrOC+a9ApovN6zSyKYuLjhDY5/yIdo6MsqIQjBCmaxKcSq8SY/LlPU4k8rkpP3ftP775vnuO8z+YXO2VEwztG9IH0D97IgMUvxwwtG9mKx+TTrh+n6EvrymmMMrLqO+koqvxWI9zKBKcxdENLk/iQ1/KUym2TIAqibEcjeaMjQzpvrmyhHflosuhZ6Wre37OqqNrfZSsbl6J1Lm4X0fx5nZ+dcutuG19xz7yr9b48bPmG3aWpH2391nuIVpJu5Q6jSLcia/PeUWUUThkZMnd/7yir94l8lv7bbL3lnk+s4N0inrXhcRwWWSa47c191vmxDb+xGr6MFmXh7zKLOqXmwjJy/xPfJZQPt6BT9p2Sb7xu/1cVZlQfW/djhhHZbomF+kDhZWVzz1mWhqwSkFYIjcJWbqgxni1lC0UVqbpf6r/vwsxHafszOMW/fAu39YLj6tUnNaYl1l5x37rsnnP+nO+Kb+U0t+mvTNjBPO7W3z9R9PqbpqVxJ9sGvxqlC/yukH7iU0bD762TE4K+RvpArx1Jn2nbkDGGcf7z/XXyW3OknrKeRX4faBfCs/2Jfpfcu1Y472q8E8IpW356WF85tWL7jPr8Tsllg6Rb8q9yylaF3NaUtNxsSMqZDXHeYBKvYzQVemgMyJY1xv4u8M8//9hf1RgFVzoOThixks6JzNRdmSPiPgQyalvTEcrotXHRSbiviAHAKkml86Maw4r7O2axCAlL38sd1Ap/HHt/HPU+XiJ0n6fRijgL8vz5V6J4SXr5OyAjEMSKfq1iN0RMPto/XBlo/okSdZvm1CAhbpQ2XRJX7hxFkLivabnAgvGcMTL4ZbgumLKQ1TXXP4/Cct844vdyvTpHdLyQr83yIlnfBqIsPhvFYPnRNR5f+YxWx4+36uj742mXGwAAgE2LJ/ttpEQENjObUy4rl5uHnB7VdcXoXT4N44UXXrC/6hnCHHXn2uBZ0USx0xHmELNIjmexjS3irEiKy2y28p6PJFytHBWLmLQidPHQBRq4oyo4UagXgBfnlIVd452vmmlgAVqMEu9M2L83EM4rtYrqaL+MqvjubvN0jb5UL4CCJ4RH1RYG64VYN/uem1iF1B21oMlhRhE2REmveu8vq0Sxq7p6ovB9dIHe3ejOLxWfjeRpv3+oPKbVP0YbukQPyDOVbwAAAAAAmwlR9J2sz4cOSDdZK6EZA46oGyuEzluIR13t6Pdydt7eK4sMiOVOLQ7zrJTn1o1gZD4p5LLya10zBh3h1RFnKoajcfBH1DWezjJi0xC5i6WsNBLOMVaIFw/e1zhv6Ii6xDllIdUyEff/4ii6loc3ou7nTSFPAAAAAAAAAAC0YsNG1HUzfF1cwM0ZrGLEbDXilEddqZS8+QhmDh5VLrZi5uOlVrNtgyrp2TycGnQVRmcZMXM2wveb/fOCRQdYIT7Wx9yJocFx9ue3haPUzeYPtV6gAQAAAAAAAADAUBho1XczB1rmOQ9hiF9X2ePQCovl+Ngl8/veC9q4J+hocTza3Ab//bJ6YmRc0NV5s8UUzGJy4ta9kSu/6+Iy1vVdFgtq++6qLQwAAAAAAAAAAKwfA636LpxuvDKe9eF3c7xFweV/sqXx7d6N8bYAYhDIVh5tpMyXox4AFSunptD3Z3PpOQ1fzQfv13n30cq/uZJs53jzOVk1fqNc38M4CyXbjVTRYOsvAEA7xJtnaOsw6JoGYgx8CtsFAQBACUZuMx59cvgDBXqtsNaPTGssrjAv/WX63jzs7EitHyRT+oL7/L6yJJwgHvE96GsBABtLX4q6jhjb3257g/ptPEZ0f1PZXk1Hmu389Drl1WyHYRdzs3Pe+1sIzCic8TYvdUKzKN35tghG0fffL6PNXXMT97fokDhfO/Bl69Wnq7YwAAD0hyxa2V//lUC2gLKGQAAA6AKiiLut4dxghWyB1tqj8O/LdP7Oae7frtFqQrb0t8zVRXMp3LpXDQK6qFN+n26pFyn0YThyuMEnsyaSboPlPw9lHQCwgQxlezbwbJFaHA8AMDh52yJdmPIaTdLy0rL1uDGCoW6JKPiLZuqilubK6YsX6PaR+3RU186QZ1ZpomIbEAAA2BhMH1ZYPNdbrJZEkf9xKlrsVp4Lt8EVRVsW5P2S/x8uZpt+hxoIsvtK4hG8p+weS7z4rlLzDAAANGCDt2cDAADQD8u7WbB8IkKfTA3yRm9ke8uzbltFFg5ZSXcjPxN/zGUeTQAA0Bl0SuNpmoiVWFmUt9W6QLK4MOkivSMHj9Lp2gWEzWLEmXdjWTxoHx3PRsxr2D5BU9abM/cGkOehpAMANg4o6qDAUN1zAQCl5NNmzK4YWbvbvoP2mF8FoXPfO6zEm58AANAtmiz2my226w7Pk0iQ9YjILdIru/3M02rkOp9Pu5SjOC0xiEe2noc5fDf8MBw+Mtd4u1PRT6eDe1q78AMAwABAUQcAgKdEsHhmsPBRJLj2vdMFAABsIEv3Kd8zpoTpC3RXPIeyI1xrI9w550XdYWh+JRxTz+aWi/eR7D70TjT5x4+Hruch99+lC9P2nKUwRz0e+dcteu01ftft/XXrMQEAwPCAog4AAE+d0L09FlwbCb8AAPA0eX2C+63i6LeOaKdWZU9yk749YtbtyBRk6Q+zqUARrIR/eZFo7lVvkbeyeLRBDKfB7jmMdYe/D0UdALBBQFEHAICO8fjK+XxE3Qqd5+2Kxje/wxx1AEAX2UfvXpyk+f3RNmivzhE13VY3Ob98lEZZQb52Pa3qm92B8j4yj0c4+v34yjGaW7J/1CH97tle6Or+y7f8fB/b3QIAQJ9AUQcAgKeOEyyNq+cxOqrbUpqRm310/LcLREd26bXzLMRijjoAoIvIlrZmG7N8Go8sktl03ZubK/NEpya41/MZoYkDk7R85FvPAOAzQoc+OM3Xj2WKucTjyW9TdE229rVxcdvG+YvBFeao82GUc1k4zmwtl13T7d4aLkYHAHiGkR0gckOg7OjjtvvWrSFjb5wBwPZsAACwmdBtg7A9GwAAAADAZgPbswEAwLOOrmQcLToHAAAAAACeCTCiDgAAAAAAAAAArDMYUQcAAAAAAAAAADYpUNQBAAAAAAAAAIAOAUUdAAAAAAAAAADoEFDUAQAAAAAAAACADgFFHQAAAAAAAAAA6BBQ1AEAAAAAAAAAgA5RuT0bAAAAAAAAAAAANhaMqAMAAAAAAAAAAB0CijoAAAAAAAAAANAhoKgDAAAAAAAAAAAdAoo6AAAAAAAAAADQIaCoAwAAAAAAAAAAHQKKOgAAAAAAAAAA0CGgqAMAAAAAAAAAAB2ib0X90fcztGXLFnvM0OJf9kLGDfpUrp29Yf8W7Dnv+PTnOCx3FMO8cTZ9vjF/LdKM946Z7x/ZCzkalyDO7r3xc8W06GGfLaQpCrMTaH58yimpRtKfyisAQIpHtHjItPt1bTdZf1bfhteLuJ9LpTfsP8P+W68l+sbsfNBHlfS5Nsy4n86PYv4E/bzNxzjufr+X/EYdWuSSzkmmJe5jszKLw8jrTOGw96TT5+Vn/C7Hz5+G91mS8S1Dw/Df67+npFyi/FGicPw89/NbSZWLnuO0/F9RPnqH3u/uS6S5EN6h/4P+j8q8b5E+V47JehA9H8UvWcfkKCujOEw/PiXp9wnrk3+vSYPIZhm23IrnpB5Ut8tW9UOR+/P4mHyJ0xLekyZxj1//4vf717I8L4l703ZTSV2bT5RDP1TVkz4otKEU+s5EX8RoeRbi0KQ8GSmjAeLfKO4ebe8X0ulrTtU7G8VnwDyK6ScPQsrLti5sycvB3j1shtQmW9Kfos6N8P3ZJZpefEhra2t0/cwSHf7QqxjaSMfppP0z4697dIv/Wbixps/J8fEbRFvfvpr9vfbnJZqWe898RLMvyQ8Lh/n5J/Z3X3AGf3iVZv7M30Oz7weVRyrFNk5XyCO692sY56tvb+XzY/Sxi7MNb5r/uzQ3pk/d+z3PHz1OmfOd4qVZurr2MaekmrFTLs0AgKZIn7Gu7Ubb73VasH9uNKa/3EvXs37wOu2d3eZ9WM1HbZyu5/3gnzN09eX8Qzf2Jsf+k5VIoLtBK9zXL7yZ7pn8vtgcV/VbIf2U+dvkSX5ffR8nLM1+kxQsMw5eoofee6+/dpi2tRGI5Lv48mHa68U/D2MrzV625923xH2rLs/yVcsZLy/5eLhI4be3AJfBF7do4QzR1f/2J/Co4Dl2K4+PvvcWjUdpD8vlIV2iw/S+J2SZcMirLw9p5odtmdKz81/TtPT7Pf2tsLywdJClgR9W8vfouRnq/S9S9004Dxf5Hq9s2rS5R/+9SvTWNP3vDfK+Ln3Kz9/Q4dcWaKFQpwUvXDlu7KXDL0cCbFTH9EjJDpV1qY66drmVdr5GdOueV3b3btE0l8XJ/+SpknN0ppe1rbJ26WiUf6WwjHmhsnVGiHIQyaCSZ2Mns3hofjmFW6+5Os5x+3Xc9mPVct5gNGzzgzBQPUnzVOXBNz4eXt40oGuy77Mmi9elZ+u/Z8L+/6lj2qzorRtJf4q6Coh5BssHlq5cpRX54NiOIVZ3FfnIcme001fAI25ckGcX6HrwcRIluyTMxkgGex+Ol3o0c3ApE17EsrPthxm6Lh/9gHt070p1nAWJNy1+bcM3yv3enR1vUFJWzupprXCLnA/G8ppbQwe3qAHwHOO3M8G3eOs11+Y8ob3kvLbFQzLC9PTbpBgjfUFdhNr3uP9cch9WUVpYHH/o9+Xy7bixQCe/sOl/o8e9/UlaCUbqVvjMAvU29GPIytWZkzTeYqRs7NR1WrhymL5pal3X71+YrrE5FtDdt7MPRJCZvsLfKPt3gb9W6CrN0HtzLPDUGSKS3KBvZjnWN0Kla+vbH3Haq+K9lXqsAOeKt4RDrIj4RhP5JnMefvK51m9Ni6fg3vgP14IPP6K93ntUYXyrNzRBXepwf9/pOH0GjfObH1OP69Lnde2TlQ4d5GilgFoGqUsN2qUY0LJ2zP9f+YFo5sOwfCTvyoxp9aTzr5QzYvwYbzaSpX3nOBdGZMRUI88les/mmeaXS4/m514r5xlDRSpuoZy3QdzLvwVBn+97AJQp3k3qSSqc+JvFv9yoaCgPGqOPe96UD9+rOgD3pyWj6tWYMD8968XL9cvRaLHExd0Txyn1vOgqWXv3010SzzytFXESsrBm6Jvf7TkmlVdZHU68X4yZ45+I0dgYvOPvfRielIl7no8m365UWTNl8UzG5/vF/L3ZO6O0adykvsh5MZhxPxcbJZngvanyeGkn9//5903v5zLIZKOg3nv5wfdko/hal2c4H71wA/nKnpP3Z+GZ9GRxy9pDnM6NYQhz1M2HnNXSXJkVq79aCEPUAqsF5jIzqlicGTJqPr34nvcxl8ryPh2+skCXCkr0IIgCnivTOhpzeZZ26l8e3NHd8uMcVAyLxnuBPsosQybsk2P2GVcRug4LnVf/5bwk2gmtAIC2cKf/oTfaISNsKrSXnTcsseIlo25P27JuRsPHgz5RvaPsiIcoLUmlij++uaA4xkoN95XeSJ0+F30DNoKeKN5WaWyGibs/8liJNUqMOwFCUKN3qAS3QUaElw7uLH63LGbEmMuA3/MR9+mBQaQJpUYTGWmsircod0s0/S8bMwlHRsIL93PcncFcjee36J7mjRi7xUAuebyUnZMwh2cAF8+Nfg1CUfqUPDxRhpqMBGkb+vVe7X0FBqhLjdqlhJ8JyCLPsHzH5/LykbTWD2CUk8q/Knr0sW/gq0Lzoemol01PYDA0Ay2FuBXkvI3h5A9EX+t3YIEVJusFKoqD7wFAnneAT1090XCcl4EXjrZFr78oab83zm6jw69ZzwwpnzF5D/cNKv8v0PWG3kwpTv6603iXcLiU6JeNEinv4Hv4fcTKpK9ApZ6X75OpF6zUeV5C4iFUa1hjknEK8vBr2vlrkyHF9Pslftf5myLeuO77nv7eGwX4lvPalfyu+3aVlXUFyfjMXqWdGm/5XtYZz6wxVr1FqvqmsvKQ/j/8bi2xjviRS7NnKL9xdpxOWo+zh/+6xbXeh78bH0rYUh/5XS+Lwc3TdUSGifs80WCdsU4MXsGgxMYyoKJuKotmiEuEdAJJN2/TMWeuXVrRnXuRQYUOzpyZf/sV0hgCRHDr2TPDwBVqbWduLZLGXS9duY2V1RMsVbnP3ZiyimAvd5f8IxRYmwEA64+49aX6zvj8azuLQvbTQOLl+kRnnW7Sz4mV3P4UQmXFKADhNyAkN4C2eGcjxCOgzpV8EIwbrbqrO8OvL0A3QQwjXtp16kGpK6h8cynLS8ln3yDSGN8QIMKe9/5AMA7KxQjw9cYkM3ppkN9WabeeAKIY5PEWhbGNYu0Z2O0ho0MZony0EL5q0+eHJ4oOp6B2dDuGBc+sLdkjLQgPoS7FBO1SDChWQM7SJaPgdgqFyDiR4lbXLvurHx5vvKd9TXN3+Qg1ROSCvZE3HZKf1/kfE7d7LNTHcSvIeRtEZlRRpdtgDHQu/1kZ+tDvQ31q6onIt5mXgQ1H5T7TLl1/kTbuRFOUpHwOOqPa4KTS7WOml9ryUENkHl+h7nkfUUib1MVkmKk8bEnl+5Pfe1GAvToafVOTlJZ1S7JpycaDrq9vSg1+fhS+W34fe1DPMEZucFNS1ONLfzk8o6LqZ5GuowZKr8/je+itj2jmV5M/xlNqo1t+zkCKulrTrsiv2FU9halY2fwSW9Fz9yKnyIedvyrUXLm+btCImiLuE+O/Rq5fZagw6qyCqcqdECwjy3bB1airVIzMAACGjfSJTjiUw3nelJ03NB+F2ghsv66GzGjeZ1PkW2D7x0fff14y8poTznXlY4hzFre+/bUqA83c2c3IW1tECMnirvOUW3hcZXPUH7JQzHWhSnEQZfeKp6yOnexPMPNd6+1opXu/T1YuOprW3zxeEcpUJlBByQrFomCJEiICVqtvlDfn1x4yOuRQN/oWbakufSLM5YYUkY3yqXVlGC9DDzeQ4R1VgwkD1aVKjGu6eItIHJ2QunXn3qx8liIFoq5dDl4/uK/5QkZO+5nCwXDd/VoUC9uvvv/7Xo6F9QRVt9sV6tm49/7D9wT9WL0Bcb0o9SDxjTrStiumwJTVk0L9k7Zmf+YG1Oq05wYYow809jCqodpzptj36hRcj+rnZdTfrMugcW9o7E2FWcjDRjR/f2kfFbiK2wHTCqrKug3rI39U5Ifr/+2fyfer8l2F5/EtfZf9qWRGDq/PE0+0nWO08zXxuHHeXXrTU6FvRd3NXTAfw/7dWzJUqODQAqudsdi5Dsks9Jae69AMM79AF1EZRLjzhYVSl74Yr6J0Fb+jjyszAGAohB9MM+JhBCjyPG/KzncF6UuL/XAu3Jnf+TxXj0KfKZZsUWq4v/9hiRY+HJ7i3R5jjD059imt2DPlyAhvLrzFgqLi9aPyzfQ9yBQ1WDt34jY4pSV09/TR9V6ixefEu6uJi2eGxi90PaxFFSIZwfOURs8YExIpAXIf159FVnozoVhHpzmvOS8z5X1gQm+DVqTS95e4RUeGAVZI65RKXeehDw+ZQepS03apCzn9vqL5lMkutnxueMp7a1L51xR+VqZwjJ+tb50pfIX16pssTVpZTo0snneF9mO+UauxnLeBRG07tWhmXT0Rw0uAL/e5Nvtz0Xsip2gMqxuZLrxT4Pe2U3d9TxyDtqU2cF3KFqR862p7A7MlmZ4k5nuRMdD7xVXcubHLEa3HkKCyrAOieEb4azeU5nnr8mTK8qOJd1KmbDcgNlB4cTV9Hqf/d9Pn7fwXp/G/uXfX06I/RZ0/SrLquxAvMlOOUZIzS4l0fPxP1tnbShNarDxhVQpP56hLx9D0nSHZfJomI+kW6eiCBRO+CF2AVOiOP7TBogROYGruYvf0yAWy+MMFABgE17as55DCH9vYXVX7krLzXcK4wYZu4qZ/zOJqXVUDAcTNkwuUcbuw1Oy4rkXS35zhIaKLfJ2kk76bdALn7eUWp1JBKJgnaPPD9qMqBBR2Gvmca0afRlxVeKZL5u0aI3esTOnK6g3mTudY90ade2pPMWbdGPtHAvVMOOgbBey0gkA5E5lApqD5O7yI4nSVrv7q1wMRym/Ryn/6VKxTeK71/RCnL3RFtqjwWGHkYDlhXJT7PjwPBqpLTdulxP9XLosgn6R87tHK73sHaqfF+tEcXcTxE26f9u/G6LQNV/9CWS5WzFX+8QZkknLeU8QsvJj3NeIlmhqVra0norRk0wHC/krarKwPcXjscImBzF5366do/jZYaCt4p0Fl5JaGEO3LnCGM3y3rWzU2HgV1wdD3SLEaNKI89MgXVzU6jzLM9zOmTGuoLOuSeKbI2knxG+Nc1MNpJQ2ozA9vyk0pYV2szA/bL7u+J6h72ud9znXJtA9tPz/YdV707qdDX4q6Xwi520vdKLcZAZCKou46/FGQBQo2bpl7OzofzfErWBsjxAJ7nTx3tmhelc6TiRsYC3pqEbLvaOxm/7Q5yB+rLzZZnAHoOk6h0r7yfe70ne17jD5WN0TT5nTrKm1zZee7hfSNfj/n+sfcEGrc4vP+k4+XWez/s+jOq4Kn/GhgHAznupqjVjhsiSoD9neG+3bZQ/tI3zNLpkn55Rbnh4wY+O59fJjt7fr3SDOrr6e2CRNhq2j00HzOhDUm+h6mVg7WUchkvKvcso1nQrb4lZyRcDj48ex92+jqWw8jw7kRypZUIcwZe5NFK/5+92XQSCEDAwMpXn76jPEt9AYURHjk+poZUrxpCHLo4knRoENUx/RIedM0qkvR+zIZrWm75Pi/thTlk5TPLV1UK1Yr2rXLYv1ojvSPdeOHCbQfvmXrXyTLicyWXeO2LYuUeW07Kec9TaT8vb4mjm9GXT3RcMSDyOYJhXKfGjC4Zy4zkI2deqhb2WnYdoEurUNWGUqu+q5xukS3vPpS6EsboLK5eFfE725CUBc4T36YGWB6ramPLg/vvSVTO+wVuzOItun/7MynC1W83xgg/G1OUzgDqnn+ffqIw65ZH6CirEvjycTxmeY+7XONt1nMzuQ5t2fR7+z35H2a8b6f3Fdw3Co9oWvKQ4zgqV0YfIwBL/X+GC4v9XbapveGbcf2eU4O4XpMV8oMxOGAir+CfTjAOzhb1mSoGgDxAvhiZ+vOEgAQIyOFZkGixoJD38jHQuZWDmH6EQAAAABAAlFGP/9XvgJ8ZxF9hgWiQYzgXWLAVd8BAACkEMt1ncfOQKi7WP0iMgAAAAAAzyYyOGJG4/VQb6VnZ/ACI+oAAAAAAAAAAECHwIg6AAAAAAAAAADQIaCoAwAAAAAAAAAAHQKKOgAAAAAAAAAA0CGgqAMAAAAAAAAAAB0CijoAAAAAAAAAANAhoKgDAAAAAAAAAAAdonJ7tn/++cf+AgAAAAAAAAAAQL+88MIL9lc9GFEHAAAAAAAAAAA6BBR1AAAAAAAAAACgQ0BRBwAAAAAAAAAAOgQUdQAAAAAAAAAAoENAUQcAAAAAAAAAADoEFHUAAAAAAAAAAKBDQFEHAAAAAAAAAAA6BBR1AAAAAAAANjmPr8zSiy++mB2zVx7bK0Q3z4V/11F6/9+XafbFz+im/bMtbeNRyS+f0YvvXKYhhdaQx3T5nRfps1/snxvEUPOtBWXvzc97+dFXedykz7iufvaL/Nt/vWqPe6/90+Np5XUKKOoAAAAAAABsYkRJ33VkD608eUJP9FihPUd2ZQrHvhNPaPHgiP5+Znj9OD357hA9Y6naFAy/Pu2jiVPztLrBBpCuA0UdAAAAAACATcz9P5aJTk2wuuPYR+9enKTlH1d1hNONEoajhXWjw6s66qgj9OfSY53hKP4sXf7bXmD8a8kRSh2dT7zfjsxe5ria5z+jm/beICxvBFfTde6z7J5wZNek08Ule58+P2ue0fvD+5JxdjxIxIdJ5kfBC0FGc/O8krg3emdpeZSkT5A0ume8PKnOrxK88grrUZrydHnxPbdqzxGNvjJJtx+4+2zd5Di6MPw0l9W7xvXAe6+PhNs7S7QsRq5zn3jPm2ezdARlWpH/AwJFHQAAAAAAgE3Mvt5porO9QDEZObhYGHHed+IuTf14zCg2v3xL1w7cpeOvm2sxy0eu0ehvZnT+NIedUqj9UfyVU8s0951VpuTaj1N0Nxvdt+90iKLz6n06yteT71+ao/s9efYuXZiep56998lPpzle3yZdpJdZwdJ7frtAk/z8tza+N8/torndKxpHeX5+v2dQWCKakjRyPtGVY/l9Guf0e4T5H4m+zOLj8rMkP7ZP0BSnIRst/mWV5qenaGK7VQzvXDD5xPEmVhDLFL2y8ihNn+Tx/tt0QZ/hfKQ52uUpu2X5laSuvCKq0qXx5djotR7npTlNI+NTRNaw5Ji/M2ru43TR2fPV+WyprAeJ9/pIm1k5RTR58S4tnvhf6fTSfbqvV+TfSaI/zF/0931atoaxINy4fg0IFHUAAAAAAAA2M+IG7pSx5GiiY4QOnZuiaydmWYljhabKffnUUTrEyqQbnZ9fidRWfefxbBRfRkQdN1fmafLAhDUS7KPjTxZtWMIqffbqNVaQ82eLnKYJVQhHaMduUZzeNfduHxV1KY3zKFDFWM8wN2mVFbfTPfum199lxX+Z7meK1B7akcXLR+JcHr8sba9PcEwtpflh0uDyL8+bx7T643Ie1vZDdJSVxHxUOSJZHuXpe3z9Gi1bg4CW+wcc0zsP8jqRzK8UTcrLpypdj+nBHY7vB9aApPGVH4zEg67RqqfktstnSzJdFe8tZZRGnYHl7wdEB47S1J1VNd5IGZo8T4W7TNeul5RhS6CoAwAAAAAAsOlhZew7M8qoI427wxHUDFGcdi8TOeW3hMlXRu2vMkKX311HOEx7XpSXMpaP3KfRi1StzEyzkmR/NqUqvvP7XTx30dySpwx779HRVOpl6alyYd6zQ9WyiLL8YNVaPB5USRbFepKmxvPnxc3aPaNu127UNqKv9C15hpv98/y3GyFuUr6GRuWVIJ0ufj/HL40YNHwjSvt8FtLpqnpvGSM0ccC444vRg3bs4/jdpgd/S/2epFE1gMThGqPMsICiDgAAAAAAwKZFFJeiu22uHEb88hmroxdyF/gSfIVR58BHPBZXcefyy8fdi+EIchkyOn7o4NGiO/y6MWndv/OjbCE0WSTN3LNC1NKFuTw/GBkRXrpGq788oNvZKLfh9E95vPQ4kTaflJdHRfpOOVd+dzQdFc/pt7zS6ZJRanM9hdTZgudGRGU+l1L93jJGxB2f8/3+HxwCl9noK5z311fpGrkyjMOtNlK1pW9FvWwSf45Z9j5c7MCe8w6xVoVhuSMP01+MQI+UdbAJdhEEF05qEQSNSxR+/H7zXDEtemTP+teHN1dh3eBOO+0iZaxWdQtGALBx5JbU9aiX/gIp/u9ByPqQQhszaamy2peS9WcbuZ1JM+I+3c9Dv48190Xxl76o4psS5pXtZzVf5Xf+nIad7NNS4Viib0R+2Dgmr1f073q/S5+Na/R9SX1zcuwz2ZEo6zhOqfAL+ZDnVeH7mh3mXXXPp7FtNE5XWf7qfXFa7eG/O8hPi9aX/P50e62OT/xMbbuP3jm8chHS+VDaR7j3FMJy/aQrp7DM9P2FMvTvKSmPfsrdYt6Zh1VMk4uzO/x8TcXfv5ePIA/q4m+vp8pFz8Vx8Y5kuT1tZOSPaO6EHzdOw1fzRLt38FUfTvt+opUTh6wLfEV6zho3X3kmcK9OcpO+9UY2xR3ZLWTn8jssc3Hf5jh7c4vXB1lN3JvDbNtMqk0V236ZW3wTwvzI4rF/jsi5c2u5TdL8V64MTD6V9j/J8ihPnyiZk25eN6P9fd/1t015VaUruvbLt+oBkCEGjSydTYjzuYya95axfQftuXOezp81dUEV9x+vBWWo0xqCcEOPiUHoT1HnSnCMM0Um2oslQyfx+w1dK0mvOEn/7wd0m//xLSyyIIEudmH/1on/cm82D8NaJnyLUImlqRrusE7I/Ir8PRRZhqSDjt0n3Pv9OBsrlcxdyc+ZeE/ShXckbtLB9+i2zZ8nP+2JOk8AwKBIm9wcW80YFym1dhe2kTFuik0WZimw/RAtyoIy9s+uYPrR8i2CfMyiLfPUy4RlESDnuWz9uYxlyIff9rND3Z6nODIRjkBE16V/f7VKeYnwhKZqvPTZd929eJt6vvIiCqPOG8zjo26bLQQxf/RI6lL+rWs/6pIhgsru0yXCViJ/vW96OAJj5tseKxNaJf3ZQknm/qkfE3WtMj7inlm+YFSMKnLBO225+Hk+hHIJ8oHli9v7K5R1lT7CeZ30t4z4yPkqwgWYUoTlIUdF26zI51S/QEGaRG7a5S3kxcdPFNb3mOl8RE0OdfOO8rg2/qXt0XMhd/KdK8+Obgcm/endA9dyN2dxgZb8DGTm/5/Kp/STbd/8HflSnikxrkxeHKVVDcv0RfG3auTgUTqduVav0oQs+GVH8LV/lzKpfP5LunAnsUjdkJEF9OQ9mi+vsqKciIuw74T5Xpn88/KpIVX5IaiHA9clX4mL82me9Z0y2aasPErTJ3KCfqPkGXE/P00rA9TfNuVVlS4Nx62l8NUoXTilpy0yQi3u5fbPBHX5XEb1e3PUyJTJLftoYvdytnCcKO66AKFXhpr/LtzGMkwztqwx9neBf/75x/6qxnTAxJ0YR4xYSedKkqm7omC7TiL7qJYnQKw9WpEyISEXVoYrlJuPgqx2KeHqe+9coBXusHp/HPU6Nnn/eRqtiLMgz59/xcZRDBUniL58ap25/eCJpWiaP5piMvnAKgMSt6x8vHyWsuFKe9fG2ZQD/7DP37b5BMDTx9Tv+65OM1l9Ffw+p6S+B+3VC+/dB7mxTgyRR//Yxfdd4A/3nDE8+mEXMH1VZqDUe0fztsic/ukujX7F/Q5/qJeXlrO/87T4YUTtU+aWWUT4zO/nj9QgStWQ0bJgtcTPJ/1GyOq/3L+Q/C70sSIQPaGJleKzOfl9x18P++/8et5X++8Mey4/HHvKofVFFKyS/r7keirNit5/n45q+Zj4EQsG83fyeGk8g/ywJN9VzAO/HRjC8+l8CPPKkM6X5s/nSH6s9kx55u2Mqczfive7/AnyM1UHmOAeQ3V87tOeU/Pc5vLyC/sHn3QczXmXH4OUi9CmHBibhqmLt7lf+TKLs9x/jKa475JVoiVeYZmZfN3DSjX3K9m7/HvK0lpOaT6X5Zsvd2gfR57sZ8jL4n4x/sl66d5TF3+T1kbtsbLeAgBAO1544QX7q54hzFF3Lgeee4gIqG5k3OPxAxlPX84sOyk3tPMsbGcrOwp2FD5fkKDCutoKM/nfLVKgowrcUReWH9D3e3FOWcQ13qfzlTNlyf7dRKuZ21SL0ZYhEMzd+IA/QplrB3+YrKVNrMI6kpVIj3yojLGEnz83Srez5wHoICzgZVuAyAjcHTdC0qy++5gRXqOkOyFTFlGZkLClT0ttT6OIEO6Nfuq9Eg8ZleE4TfvKNYe5mwVBvi8UIE0YIljKNR2lkz5ShERvBE/mYuXuZN2j6RZBOfvouG5nIsYW7ndihbWAUXhkpKioSD0dSueBJhh9x1j0K7fBEXS1WvPtyeuc8eTSeiMjpktuVWSfcHXhjUdcMk289r1zobDVTjvsysGphYE0/Qn3QvU08ZW9+vhMnJCtjhp4OsiWSpTKc29F63UqlxFxYfUWgYrZsWOP52Ys+SYjPjv0r3ImTNsbSn9Skc9l+SYrN9t+QVZQDvcAN4hs1rydiwtwxYrZCRq3RwAAeAoMqKgbwVLHeTKXAP5IJgUt88HNXJXETYGFOd9FTbcRiFxC3DkjpIprXr2w3YSb54wbRtrS6iFKt45syfuta0NkYLj5nSgD0cqZZ+fUcm4E63je0Hpi8jm5/YAaHXKDgnxMJ2Vhi0g4kQUq8m0wzJYKAGwORDF2AnOz+l5Lo+1LjJtkJlDKnCbzK0m54pELs6rcSl+qikc+kjPCAnmnabxFkIfbdiUhqMfM7889FNYHzzDrjhK30P7guvKBGCbqjM7W9dYaMVxcmrgcFraqGRR/1WA9PM+RGFHK/DYTu2TH+RvVDT+tznW3XFFrMH+0Nj6CnXvZ5Dvtr0QtRrQsrvVlM/Ry8XELVUna1O09XKyqFJERuK2WTS8Iy4OPsrZcl88NVvBuugJ1G+rj37Q9AgDAxjOQoq4bvKvA1GQUxAodblTFCmb5CoZOkQ8/LiqsZkKqsZb6Wwv0g7hS6QhcbZyZYK8+06HnizkIYkVOWPWnL9C7TuBWS3gfCkJfxNsEeKjRwSOpTAx3tUIA1h1uo/68vMz416i+15MUHsVNMxP+rIAXnKtQZJjkdiNxfD2kz8rC9lzgu4vt79XAaeeOVii7xnAqc1sbzH0Tjy0x2kaG3uFRPYc6hfEWawHXWfHwON8k/voNsvHQucob66GlRHOB3Xz2FDoyKh4VWl9FRoj3k43yN/K0yOYUu3nBuu5LGdXzGIX6+Bjc3MXakVVf/lAjmsTXeM2sKxX9g8EsKJXtnVxYQKwMbqvnZM2e9Dz9whzvEs+Y2nxuILeVbUnVnKL80ij+bdojAABsIAOt+m7mhMpHN5xT1Bc6msShZavorQfiAWDnEpZ8bBrhW4bFihwZF2j7aKWL2voSbxPgIfGyPxU7rSBkuPv/AbARGIOeCGJmMSlV9hrVd6HCuFWGrzypIe+mXQTNnStXZEqJ4+sQ1343FUUO8UbqLNLHFhXJStdwl74Tx60LfPXIllvl9jgrcvGCoE8L3SansWJkUPdgjv+3f9gTMWL4iY0b1h1e95jV3/O0WlAsrVeVXZ056YFR2hYGRKeBRYq4llPzxdoyWAn+Uka5Xy2pDzYvikq3zD22z7SKTz6yumrPFNABhlSeezQsl7aoMahmVNpsa3S5/XvUc04WdSxNeTV1+VyWb+KRYEe4zZSZ9CJ0zQ1ypi9P77tcTW17BACAp8BAq74LzVe2M0py5nakc5ac0MVYa3HcwUon7W+nIdsRNHGPTKEeAIUVMKvR92fCEqfhq/nAmKAfz1hAiz7U4hq/HCvz60bF9gM6ophbjcviJR/MbBVc/QDraQA6SdhGhUnd67KuvmfzOW1fNEweXznfPkwbX9dvaLoKbpqmD+ou0v/ELsQ2zilFVgR1NXBYY68d2cpXga+gTpHbKNTQUDfym8DGf/5syTipKDexh4Hd9kXrN+emUSxDw4h+5yj36DKG43CkeL2+STqSWzBch/W6DTrKzd/S9EinSf9yYKwROUO8M4yM0Do+tv7Nl37zxEWev69Rnuu6MJmxr2G5tMHKXNmUtjKkrM/OcVxSc+SrkdWuZWG5fnqX+nx2+ea3VbuGiJOndJpe1Pa5bclCxQWPxRLUM8fzZmxFXXsEADy7iCxSuwaa0WObTD8bJn0p6mbeuCGf/1McRQkx7lUiMLjl62XBpro54uZD7ea0mU64kct6AavkZ65Z5qiz1OriUrKtit5vFH1/vpzO5y64xnJavzNbj8hzOlo0yAh+S4LtB1ZGPZc8NwplFuYrjZcTluV5XU12HefVATAgWt/dtiTcRq8d+DKbKlNW31UodX1R0EbMPNJ8W46mOEHUtPljdFT7LR35bIyJr2zDJGHoVkYSXyfAavqOEX0g/ejT8tipR/rM+i2CBCOoL0drhRiFoZlbu1PkSrdwiudWe4aPeO5q/vFNzFEPvm/R9ZqdTKow8bd/FJAFyvLvSPJd4tnx2xRd8+JT8BhjBWTRq1d6j0z9Gvo3yYwYF73izJS1/hYsSynjHpJ+b+uhsK71Fx+tf/Z3CvXeifLcbTuW1eMm5SI0rZ/cTvb8VLZ6uYcOEvC/fQ1mcH1LeOsU5njzEQqqzfJZ+wXdXtCFE+/mI3KTLAbqyWh1bSvKv1S9ro9/TnV7BAA8s8h3Mtpxooj0UQ364SEzlO3ZQIcRKxG2FQHPFGLVTG1/9Dwibr7d2p4NAAAAAGDToLrSfd3Wk2RLSDHXnp03g9IyQKwGwOHJnhu8PRvoGsHCU2qJh5IOnj1kpGR9FhPbJKirVvWidQAAAAAAoDnLZ4mVdrPWRjx1bKOBov4MonvCuwVdfHc8AJ4JjPuR1O3m++s+g6irluQDRtMBAAAAAIaCv9XkU54OA0UdAAAAAAAAAMBzT3Jb3qcEFHUAAAAAAAAAAKBDQFEHAAAAAAD///bu2ARAIIii4OZ2YVkmYjd2YQFWdl3ICWIiJwbKCjNdfBb2AZCIoQ4AAAC3anHnzLbWJ97Hc+OyDtHN7SL7E/JsAAAAcEmeDQAAAHLYc7h9TLHE+HFJy0UdAAAAXuaiDgAAAD9lqAMAAEAihjoAAACkEbEBnW9HUOMBDlkAAAAASUVORK5CYII=;clipPath=inset(0% 1% 48.47% 5%);" vertex="1" parent="1">
          <mxGeometry x="528.5" y="392.9" width="424.06" height="101.5" as="geometry" />
        </mxCell>
        <mxCell id="E-J0n9S15oYXZed2iLMT-6" style="edgeStyle=orthogonalEdgeStyle;rounded=0;orthogonalLoop=1;jettySize=auto;html=1;strokeWidth=3;" edge="1" parent="1">
          <mxGeometry relative="1" as="geometry">
            <Array as="points">
              <mxPoint x="473.5" y="326" />
            </Array>
            <mxPoint x="473.5" y="327.98" as="sourcePoint" />
            <mxPoint x="523.5" y="326" as="targetPoint" />
          </mxGeometry>
        </mxCell>
      </root>
    </mxGraphModel>
  </diagram>
</mxfile>
